<?xml version="1.0" encoding="UTF-8" standalone="no"?>
<!-- Created with Inkscape (http://www.inkscape.org/) -->

<svg
   width="43.391582mm"
   height="5.6562128mm"
   viewBox="0 0 163.99969 21.377812"
   version="1.1"
   id="svg5"
   sodipodi:docname="email-small.svg"
   inkscape:version="1.1.2 (0a00cf5339, 2022-02-04)"
   xmlns:inkscape="http://www.inkscape.org/namespaces/inkscape"
   xmlns:sodipodi="http://sodipodi.sourceforge.net/DTD/sodipodi-0.dtd"
   xmlns="http://www.w3.org/2000/svg"
   xmlns:svg="http://www.w3.org/2000/svg">
  <sodipodi:namedview
     id="namedview7"
     pagecolor="#ffffff"
     bordercolor="#666666"
     borderopacity="1.0"
     inkscape:pageshadow="2"
     inkscape:pageopacity="0.0"
     inkscape:pagecheckerboard="0"
     inkscape:document-units="mm"
     showgrid="false"
     inkscape:zoom="0.58974467"
     inkscape:cx="181.43445"
     inkscape:cy="323.86897"
     inkscape:window-width="2478"
     inkscape:window-height="1651"
     inkscape:window-x="0"
     inkscape:window-y="0"
     inkscape:window-maximized="1"
     inkscape:current-layer="layer1" />
  <defs
     id="defs2">
    <rect
       x="219.01837"
       y="249.1861"
       width="148.41898"
       height="116.50581"
       id="rect7702" />
    <rect
       x="-217.94958"
       y="-45.78894"
       width="719.78058"
       height="229.2377"
       id="rect5210" />
    <rect
       x="-631.75757"
       y="-261.38974"
       width="1207.608"
       height="647.85999"
       id="rect4742" />
  </defs>
  <g
     inkscape:label="Layer 1"
     inkscape:groupmode="layer"
     id="layer1"
     transform="translate(-215.57584,-235.67904)">
    <text
       xml:space="preserve"
       id="text4740"
       style="font-size:64px;line-height:1.25;font-family:sans-serif;white-space:pre;shape-inside:url(#rect4742)" />
    <text
       xml:space="preserve"
       id="text5208"
       style="font-size:64px;line-height:1.25;font-family:sans-serif;white-space:pre;shape-inside:url(#rect5210)" />
    <text
       xml:space="preserve"
       id="text7700"
       style="font-size:64px;line-height:1.25;font-family:sans-serif;white-space:pre;shape-inside:url(#rect7702)" />
    <g
       aria-label="kxygk@aliyun.com"
       id="text9270"
       style="font-size:21.12px;line-height:1.25">
      <path
         d="m 215.58615,251.00342 q -0.0103,-0.0206 -0.0103,-0.0619 0,-0.0516 0,-0.0928 l 0.0103,-0.21656 q 0,-0.0928 0.0722,-0.11344 0.0825,-0.0206 0.165,-0.0722 0.0928,-0.11343 0.22687,-0.12375 0.14438,-0.0206 0.23719,-0.0722 0.27844,-0.11344 0.56719,-0.22688 0.28875,-0.12375 0.46406,-0.43312 0.0309,-0.0412 0.0825,-0.165 0.0619,-0.12375 0.11344,-0.26813 0.0516,-0.15469 0.0928,-0.29906 0.0412,-0.14438 0.0516,-0.20625 0.0206,-0.0309 0.0206,-0.0825 0,-0.0619 0,-0.0825 l -0.23719,-1.12406 q 0,-0.13407 0.0928,-0.2475 0.0928,-0.11344 0.0928,-0.23719 l -0.12375,-0.47438 q 0,-0.14437 0,-0.35062 0.0103,-0.20625 0.0206,-0.4125 0.0206,-0.21656 0.0619,-0.39188 0.0412,-0.18562 0.11344,-0.27843 0.0206,-0.29907 0.0309,-0.56719 0.0206,-0.26813 0.0206,-0.55688 0,-0.22687 -0.0206,-0.44343 -0.0103,-0.22688 -0.0309,-0.46407 0.0516,-0.0825 0.0619,-0.18562 0.0206,-0.11344 0.0206,-0.20625 v -0.165 l -0.0722,-0.7425 q 0,-0.0928 0.0412,-0.13406 0.0516,-0.0516 0.10313,-0.0825 0.0516,-0.0413 0.0928,-0.0722 0.0516,-0.0412 0.0516,-0.10313 l -0.28875,-0.58781 0.165,-1.17562 q 0,-0.19594 -0.0516,-0.38157 -0.0412,-0.19593 -0.0412,-0.42281 l 0.0516,-0.4125 q 0,-0.165 -0.15468,-0.34031 -0.14438,-0.18563 -0.2475,-0.31969 l -0.70125,-0.70125 q -0.0206,0 -0.0619,-0.0206 -0.0412,-0.0309 -0.0412,-0.0516 -0.0103,-0.0206 -0.0103,-0.0309 -0.0103,-0.0103 -0.0103,-0.0309 0,-0.14438 0.0206,-0.26813 0.0206,-0.12375 0.10313,-0.165 0.0516,-0.0516 0.13406,-0.0619 0.0928,-0.0103 0.20625,-0.0103 h 0.17531 q 0.14438,0 0.19594,-0.0206 0.28875,-0.0619 0.5775,-0.19594 0.28875,-0.13406 0.61875,-0.13406 0.10312,0 0.2475,0.0412 0.15469,0.0412 0.29906,0.10313 0.14438,0.0619 0.2475,0.15468 0.10313,0.0825 0.10313,0.17532 0,0.12375 -0.0619,0.22687 -0.0516,0.0928 -0.0516,0.20625 l 0.165,1.13438 q 0,0.14437 -0.0103,0.21656 -0.0103,0.0722 -0.0619,0.21656 v 0.97969 q 0,0.10312 0,0.26812 0.0103,0.165 0.0103,0.33 0,0.15469 0,0.27844 0.0103,0.11344 0.0103,0.12375 l 0.0516,0.71156 -0.0722,0.30938 q 0,0.17531 0.0309,0.33 0.0412,0.15469 0.0412,0.33 0,0.20625 -0.0825,0.35062 -0.0825,0.14438 -0.0825,0.28875 l 0.11344,0.37125 q 0,0.0722 -0.0516,0.14438 -0.0413,0.0619 -0.0928,0.13406 -0.0516,0.0722 -0.10312,0.14438 -0.0413,0.0722 -0.0413,0.15468 l 0.0413,0.39188 -0.0413,0.29906 q 0,0.11344 0.0825,0.23719 0.0928,0.12375 0.25781,0.12375 h 0.0516 q 0.0928,-0.0103 0.18563,-0.0722 0.10312,-0.0722 0.18562,-0.15469 0.0928,-0.0825 0.165,-0.15468 0.0722,-0.0722 0.12375,-0.10313 0.26813,-0.14437 0.45375,-0.21656 0.19594,-0.0825 0.35063,-0.165 0.165,-0.0928 0.30937,-0.22688 0.15469,-0.14437 0.35063,-0.42281 0.0516,-0.0928 0.0825,-0.14437 0.0412,-0.0516 0.0619,-0.0825 0.0309,-0.0309 0.0412,-0.0619 0.0103,-0.0309 0.0103,-0.0928 0,-0.11344 -0.0722,-0.19594 -0.0619,-0.0825 -0.14438,-0.165 -0.0722,-0.0825 -0.13406,-0.17531 -0.0619,-0.0928 -0.0619,-0.22688 v -0.12375 q 0,-0.0413 0.0103,-0.0825 0.0206,-0.0412 0.10312,-0.0825 0.14438,-0.0206 0.28875,-0.0309 0.14438,-0.0206 0.25781,-0.0206 0.17532,0.0206 0.34032,0.0413 0.165,0.0103 0.31968,0.0103 0.0825,0 0.14438,0 0.0722,0 0.14437,-0.0206 l 0.825,-0.0309 q 0.0103,0 0.0516,-0.0103 0.0516,-0.0103 0.10312,-0.0206 0.0516,-0.0206 0.0928,-0.0309 0.0413,-0.0103 0.0516,-0.0103 h 0.92812 q 0.11344,0.0928 0.20625,0.19594 0.0928,0.10313 0.0928,0.21656 0,0.10313 -0.10312,0.20625 -0.10313,0.0928 -0.26813,0.18563 -0.165,0.0825 -0.37125,0.15469 -0.19593,0.0722 -0.38156,0.13406 -0.18562,0.0619 -0.34031,0.11344 -0.15469,0.0412 -0.22688,0.0619 -0.29906,0.13406 -0.495,0.22688 -0.19593,0.0825 -0.46406,0.21656 -0.0825,0.11344 -0.12375,0.21656 -0.0309,0.10313 -0.165,0.21656 -0.0516,0.0309 -0.18562,0.0825 -0.12375,0.0516 -0.26813,0.12375 -0.13406,0.0722 -0.2475,0.17532 -0.10312,0.0928 -0.10312,0.20625 0,0.0825 0,0.21656 0.0103,0.13406 0.0309,0.27844 0.0206,0.14437 0.0619,0.27843 0.0412,0.13407 0.10312,0.22688 0.22688,0.29906 0.47438,0.52594 0.2475,0.21656 0.42281,0.52593 0.0619,0.0722 0.0722,0.11344 0.0206,0.0309 0.0206,0.0619 0.0103,0.0309 0.0206,0.0825 0.0103,0.0413 0.0619,0.13406 0.0309,0.11344 0.11344,0.18562 0.0928,0.0619 0.18563,0.12375 0.10312,0.0619 0.19593,0.13407 0.10313,0.0619 0.165,0.165 0.25782,0.59812 0.71157,1.17562 0.45375,0.56719 0.92812,1.00031 0.0928,0.0722 0.30938,0.15469 0.22687,0.0825 0.47437,0.18563 0.25781,0.0928 0.495,0.19593 0.23719,0.10313 0.36094,0.22688 0.0309,0.0309 0.0309,0.0722 0.0103,0.0413 0.0103,0.0928 v 0.20625 q 0,0.10312 -0.0619,0.18562 -0.0516,0.0825 -0.13406,0.10313 h -0.85594 l -1.26843,-0.17531 q -0.0103,0 -0.0206,0.0103 -0.0103,0 -0.0206,0 -0.0206,0.0103 -0.0309,0.0103 -0.68063,0.20625 -1.29938,0.20625 l -0.5775,0.0206 q -0.165,0 -0.31968,-0.0206 -0.14438,-0.0206 -0.21657,-0.0722 -0.11343,-0.11343 -0.13406,-0.21656 -0.0206,-0.11344 -0.0206,-0.25781 v -0.19594 q 0,-0.10312 0.12375,-0.15469 0.12375,-0.0619 0.27843,-0.12375 0.15469,-0.0619 0.27844,-0.15468 0.12375,-0.0928 0.12375,-0.26813 0,-0.12375 -0.0722,-0.19594 -0.0722,-0.0825 -0.165,-0.14437 -0.0928,-0.0722 -0.19593,-0.13406 -0.10313,-0.0722 -0.165,-0.165 -0.0722,-0.15469 -0.10313,-0.31969 -0.0206,-0.17531 -0.0619,-0.33 -0.0413,-0.165 -0.14438,-0.29906 -0.10312,-0.13407 -0.33,-0.21657 -0.0206,-0.0413 -0.0722,-0.13406 -0.0413,-0.0928 -0.0928,-0.19594 -0.0516,-0.11343 -0.10312,-0.20625 -0.0413,-0.10312 -0.0516,-0.15468 -0.0516,-0.0825 -0.15468,-0.13407 -0.0928,-0.0516 -0.18563,-0.10312 -0.13406,-0.12375 -0.26812,-0.29906 -0.12375,-0.18563 -0.27844,-0.36094 -0.14438,-0.17531 -0.30938,-0.29906 -0.165,-0.12375 -0.37125,-0.12375 -0.0825,0 -0.15468,0.0516 -0.0619,0.0412 -0.0619,0.165 l 0.0722,0.22687 q 0,0.0309 -0.0516,0.12375 -0.0413,0.0825 -0.10313,0.17532 -0.0516,0.0928 -0.10312,0.17531 -0.0412,0.0722 -0.0412,0.0825 v 0.495 q 0,0.28875 0.0722,0.51562 0.0825,0.22688 0.0825,0.48469 0,0.11344 -0.0309,0.19594 -0.0309,0.0825 -0.0619,0.165 -0.0206,0.0928 -0.0412,0.17531 -0.0206,0.0825 -0.0206,0.17531 0,0.39188 0.10312,0.64969 0.11344,0.2475 0.29906,0.37125 0.11344,0.0722 0.25782,0.11344 0.15468,0.0309 0.28875,0.0516 0.14437,0.0103 0.26812,0.0206 0.12375,0.0103 0.18563,0.0412 0.11343,0.0516 0.12375,0.10312 0.0206,0.0516 0.0206,0.11344 0,0.14437 -0.0309,0.30937 -0.0206,0.15469 -0.12375,0.2475 -0.0825,0.0516 -0.20625,0.0619 -0.12375,0.0206 -0.2475,0.0206 h -0.27843 l -0.80438,-0.15468 -1.09312,0.0722 h -0.68063 l -0.83531,0.0825 -0.48469,0.0206 q -0.0619,-0.0206 -0.15469,-0.0206 -0.0928,0 -0.165,0 z"
         style="font-family:'IM FELL English';-inkscape-font-specification:'IM FELL English'"
         id="path82332" />
      <path
         d="m 227.36302,250.80748 q 0,-0.11344 0.15469,-0.19594 0.46406,-0.17531 0.87656,-0.45375 0.4125,-0.28875 0.77344,-0.62906 0.37125,-0.34031 0.70125,-0.72187 0.33,-0.39188 0.62906,-0.76313 0.0722,-0.0928 0.20625,-0.21656 0.13407,-0.12375 0.26813,-0.26813 0.13406,-0.15468 0.22687,-0.29906 0.10313,-0.15469 0.10313,-0.28875 0,-0.0722 -0.0516,-0.15469 -0.0516,-0.0825 -0.12375,-0.165 -0.0619,-0.0825 -0.12375,-0.165 -0.0619,-0.0825 -0.0928,-0.15468 -0.0103,-0.0309 -0.0619,-0.12375 -0.0516,-0.0928 -0.10313,-0.20625 -0.0516,-0.11344 -0.10312,-0.21657 -0.0413,-0.10312 -0.0516,-0.13406 -0.14438,-0.0516 -0.29907,-0.165 -0.15468,-0.12375 -0.29906,-0.26812 -0.13406,-0.14438 -0.25781,-0.29907 -0.11344,-0.15468 -0.18563,-0.28875 -0.0722,-0.13406 -0.12375,-0.28875 -0.0413,-0.15468 -0.0928,-0.31968 -0.0412,-0.165 -0.11344,-0.31969 -0.0619,-0.15469 -0.18562,-0.27844 -0.0103,-0.0103 -0.0619,-0.0413 -0.0412,-0.0309 -0.0928,-0.0619 -0.0413,-0.0412 -0.0825,-0.0722 -0.0412,-0.0309 -0.0412,-0.0413 -0.0206,-0.0206 -0.0928,-0.0825 -0.0722,-0.0722 -0.15469,-0.14438 -0.0825,-0.0825 -0.15469,-0.14437 -0.0722,-0.0722 -0.10312,-0.0928 -0.14438,-0.12375 -0.30938,-0.165 -0.165,-0.0413 -0.30937,-0.0928 -0.13406,-0.0619 -0.22688,-0.165 -0.0928,-0.11343 -0.0928,-0.36093 0,-0.0722 0.0309,-0.15469 0.0309,-0.0928 0.0825,-0.165 0.0619,-0.0722 0.13406,-0.12375 0.0825,-0.0516 0.17531,-0.0516 0.53625,-0.0619 1.0725,-0.0619 0.52594,0 1.08282,0.0619 0.14437,0.0516 0.42281,0.0516 0.27844,-0.0103 0.54656,0.0103 0.27844,0.0103 0.47438,0.0928 0.20625,0.0825 0.20625,0.30938 0,0.14437 -0.0928,0.25781 -0.0825,0.10313 -0.18562,0.20625 -0.10313,0.0928 -0.19594,0.20625 -0.0825,0.10313 -0.0825,0.23719 0,0.23719 0.0619,0.39187 0.0722,0.15469 0.17531,0.28875 0.10312,0.12375 0.21656,0.25782 0.11344,0.13406 0.20625,0.33 0.0516,0.0928 0.0825,0.22687 0.0309,0.12375 0.0722,0.2475 0.0516,0.12375 0.13406,0.20625 0.0928,0.0825 0.26813,0.0825 0.27843,0 0.4125,-0.0516 0.14437,-0.0516 0.22687,-0.15469 0.0825,-0.11344 0.13406,-0.25781 0.0619,-0.15469 0.18563,-0.36094 0.0928,-0.20625 0.17531,-0.38156 0.0928,-0.18563 0.0928,-0.4125 0,-0.165 -0.0619,-0.40219 -0.0619,-0.23719 -0.0825,-0.44344 -0.23719,-0.0928 -0.35063,-0.22687 -0.11343,-0.14438 -0.11343,-0.43313 0,-0.0619 0,-0.10312 0.0103,-0.0516 0.0516,-0.0516 0.165,-0.0309 0.31969,-0.0516 0.165,-0.0206 0.33,-0.0206 0.15468,0 0.34031,0.0206 0.18562,0.0206 0.29906,0.0516 0.0206,0.0103 0.11344,0.0309 0.10312,0.0206 0.17531,0.0412 0.0103,-0.0103 0.0516,-0.0206 0.0516,-0.0206 0.10313,-0.0412 0.0516,-0.0206 0.10312,-0.0412 0.0516,-0.0206 0.0722,-0.0413 0.14438,-0.0309 0.25781,-0.0412 0.12375,-0.0103 0.26813,-0.0103 0.11344,0 0.23719,0.0103 0.13406,0.0103 0.25781,0.0412 0.0928,0.0516 0.23719,0.0619 0.15468,0 0.28875,0.0206 0.14437,0.0103 0.2475,0.0722 0.10312,0.0619 0.10312,0.23718 0,0.165 -0.15469,0.26813 -0.14437,0.10312 -0.35062,0.17531 -0.19594,0.0619 -0.4125,0.12375 -0.20625,0.0516 -0.31969,0.12375 -0.27844,0.21656 -0.53625,0.50531 -0.2475,0.27844 -0.51562,0.53625 -0.0412,0.0309 -0.11344,0.0928 -0.0619,0.0619 -0.13406,0.13406 -0.0619,0.0619 -0.11344,0.11344 -0.0412,0.0516 -0.0412,0.0619 -0.0309,0.0309 -0.12375,0.19594 -0.0825,0.15469 -0.17531,0.34031 -0.0825,0.17531 -0.165,0.33 -0.0722,0.15469 -0.0928,0.18563 -0.0103,0.0309 -0.0619,0.10312 -0.0516,0.0722 -0.11344,0.14438 -0.0516,0.0722 -0.10312,0.13406 -0.0516,0.0619 -0.0619,0.0722 v 0.12375 q 0,0.26812 0.11344,0.54656 0.12375,0.27844 0.29906,0.55687 0.18563,0.26813 0.38156,0.52594 0.19594,0.25781 0.35063,0.47438 0.11344,0.13406 0.14437,0.29906 0.0413,0.165 0.12375,0.30937 l 0.34032,0.27844 q 0.0413,0.0413 0.0516,0.10313 0.0206,0.0619 0.0309,0.13406 0.0206,0.0619 0.0516,0.12375 0.0309,0.0619 0.0928,0.10312 0.27844,0.28875 0.56719,0.54657 0.29906,0.2475 0.62906,0.51562 0.0516,0.0516 0.13406,0.13406 0.0825,0.0825 0.15469,0.165 0.0825,0.0722 0.13406,0.13407 0.0619,0.0516 0.0619,0.0619 v 0.12375 q -0.17531,0.0825 -0.31969,0.15469 -0.13406,0.0619 -0.33,0.0619 l -0.9075,-0.0722 -0.35062,0.0206 q -0.0516,0.0413 -0.12375,0.0516 -0.0722,0 -0.18563,0 -0.0825,0 -0.15469,-0.0309 -0.0722,-0.0412 -0.14437,-0.0722 -0.0722,-0.0412 -0.15469,-0.0722 -0.0722,-0.0412 -0.165,-0.0412 l -1.04156,0.0928 q -0.14438,0 -0.17531,-0.0309 -0.0309,-0.0412 -0.0309,-0.18563 v -0.12375 q 0.11344,-0.10312 0.21656,-0.165 0.10313,-0.0722 0.17531,-0.13406 0.0825,-0.0722 0.12375,-0.165 0.0516,-0.0928 0.0516,-0.23719 0,-0.17531 -0.0928,-0.34031 -0.0928,-0.165 -0.22687,-0.31969 -0.12375,-0.165 -0.26813,-0.31969 -0.14437,-0.15468 -0.23718,-0.31968 -0.10313,-0.15469 -0.10313,-0.2475 0,-0.10313 -0.0206,-0.165 -0.0206,-0.0619 -0.11344,-0.0825 -0.0928,-0.0206 -0.38156,-0.0206 h -0.21657 q -0.0722,0 -0.13406,0.0103 -0.0516,0.0103 -0.13406,0.0619 -0.0309,0.0103 -0.12375,0.19594 -0.0928,0.18562 -0.19594,0.42281 -0.10312,0.22687 -0.18562,0.44344 -0.0825,0.20625 -0.0825,0.25781 0,0.165 0,0.36094 0.0103,0.19593 0.0516,0.33 0.0412,0.11343 0.14437,0.165 0.11344,0.0516 0.21657,0.0928 0.10312,0.0412 0.18562,0.10312 0.0825,0.0516 0.0825,0.17532 0,0.14437 -0.11344,0.22687 -0.10312,0.0825 -0.2475,0.12375 -0.14437,0.0412 -0.30937,0.0516 -0.15469,0.0103 -0.25781,0.0103 h -0.64969 q -0.55688,0 -1.16531,-0.0206 -0.59813,-0.0206 -1.13438,-0.0825 -0.15469,-0.0309 -0.15469,-0.165 z"
         style="font-family:'IM FELL English';-inkscape-font-specification:'IM FELL English'"
         id="path82334" />
      <path
         d="m 238.44896,255.94311 q 0,-0.0928 0,-0.165 0.0103,-0.0722 0.0619,-0.18563 0.0516,-0.23719 0.21656,-0.39187 0.17531,-0.15469 0.52594,-0.25782 0.0309,-0.0103 0.10312,-0.0309 0.0722,-0.0103 0.14438,-0.0206 0.0722,-0.0103 0.12375,-0.0206 0.0619,0 0.0722,0 l 0.38156,0.0722 0.22687,-0.0722 q 0.0309,0 0.0928,-0.0103 0.0619,0 0.17531,0 0.18562,0 0.2475,-0.0103 0.0722,-0.0103 0.11344,-0.0619 0.0825,-0.12375 0.13406,-0.21657 0.0516,-0.0928 0.0825,-0.18562 0.0413,-0.0825 0.0619,-0.18563 0.0309,-0.0928 0.0619,-0.23718 0,-0.0103 0.0103,-0.0722 0.0103,-0.0516 0.0206,-0.12375 0.0103,-0.0722 0.0206,-0.13406 0.0103,-0.0619 0.0206,-0.0928 0,-0.0412 0.0516,-0.15468 0.0516,-0.11344 0.11344,-0.23719 0.0619,-0.12375 0.11343,-0.23719 0.0619,-0.10312 0.0928,-0.15469 l -0.0722,-0.43312 q 0.11344,-0.18563 0.17531,-0.34031 0.0619,-0.15469 0.0619,-0.37125 0,-0.0309 -0.0103,-0.0825 -0.0103,-0.0412 -0.0103,-0.0619 0,-0.0825 -0.0103,-0.20625 0,-0.11344 -0.0103,-0.21656 -0.0103,-0.11344 -0.0206,-0.19594 -0.0103,-0.0825 -0.0103,-0.0928 0,-0.0309 -0.0413,-0.12375 -0.0412,-0.10313 -0.0928,-0.21656 -0.0413,-0.11344 -0.0928,-0.21657 -0.0412,-0.10312 -0.0412,-0.14437 -0.0103,-0.0206 -0.0412,-0.12375 -0.0309,-0.10313 -0.0722,-0.21656 -0.0309,-0.12375 -0.0619,-0.22688 -0.0206,-0.10312 -0.0206,-0.12375 l -0.33,-0.55687 q 0,-0.0103 -0.0103,-0.0825 -0.0103,-0.0722 -0.0206,-0.15469 -0.0103,-0.0825 -0.0309,-0.15469 -0.0103,-0.0825 -0.0206,-0.10312 0,-0.0928 -0.0206,-0.22688 -0.0206,-0.14437 -0.0309,-0.14437 -0.0103,-0.0309 -0.0619,-0.0825 -0.0412,-0.0516 -0.10313,-0.10313 -0.0516,-0.0516 -0.10312,-0.0928 -0.0516,-0.0412 -0.0516,-0.0516 l -0.14438,-0.37125 -0.34031,-0.48469 -0.38156,-0.97969 q -0.0103,-0.0206 -0.0619,-0.11344 -0.0412,-0.10312 -0.0412,-0.11343 -0.0206,-0.0206 -0.0619,-0.0516 -0.0412,-0.0413 -0.0412,-0.0619 -0.0103,-0.0103 -0.0206,-0.0928 -0.0103,-0.0825 -0.0206,-0.17532 0,-0.0928 -0.0103,-0.165 0,-0.0825 0,-0.10312 -0.0413,-0.165 -0.12375,-0.35063 -0.0825,-0.19593 -0.17531,-0.38156 -0.0928,-0.19594 -0.19594,-0.38156 -0.0928,-0.18563 -0.165,-0.34031 0,-0.0206 -0.0206,-0.10313 -0.0206,-0.0928 -0.0412,-0.11344 0,-0.0309 -0.0516,-0.0825 -0.0412,-0.0619 -0.0928,-0.0825 -0.29906,-0.23718 -0.63937,-0.37125 -0.33,-0.13406 -0.69094,-0.30937 l -0.0928,-0.13406 q -0.0412,-0.0825 -0.12375,-0.12375 -0.0928,-0.0412 -0.0928,-0.11344 0,-0.36094 0.13406,-0.46406 0.12375,-0.10313 0.31969,-0.10313 0.15468,0 0.29906,0.0516 0.15469,0.0516 0.31969,0.14438 0.0309,0 0.12375,-0.0103 0.0928,-0.0103 0.21656,-0.0103 0.11344,0 0.21656,0.0103 0.11344,0.0103 0.15469,0.0103 l 0.26812,0.10312 h 0.26813 q 0.0103,0 0.0825,-0.0103 0.0825,-0.0206 0.165,-0.0309 0.0928,-0.0206 0.165,-0.0309 0.0722,-0.0206 0.0928,-0.0309 0.0619,-0.0309 0.165,-0.0516 0.11344,-0.0309 0.21656,-0.0516 0.10313,-0.0206 0.17532,-0.0309 0.0825,-0.0103 0.10312,-0.0103 h 0.46406 l 0.27844,-0.0516 q 0.0928,0 0.21656,0.0413 0.13407,0.0309 0.23719,0.0928 0.11344,0.0619 0.18563,0.14438 0.0825,0.0722 0.0825,0.14437 0,0.0825 -0.0206,0.2475 -0.0206,0.15469 -0.0928,0.23719 -0.165,0.17531 -0.35063,0.2475 -0.17531,0.0722 -0.25781,0.0928 l -0.17531,0.0516 q -0.0722,0.0309 -0.165,0.0206 -0.0825,-0.0206 -0.15469,0.0516 0.0103,0.0825 0.0413,0.20625 0.0309,0.11344 0.0722,0.22688 0.0412,0.11344 0.0722,0.20625 0.0309,0.0825 0.0309,0.0928 0.0103,0.10313 0.0516,0.18563 0.0516,0.0825 0.10312,0.165 0.0516,0.0825 0.10313,0.165 0.0516,0.0825 0.0825,0.17531 l 0.12375,0.66 q 0.0206,0.14437 0.10312,0.27844 0.0825,0.12375 0.17531,0.2475 0.0928,0.11343 0.18563,0.2475 0.0928,0.12375 0.12375,0.26812 0,0.0103 0,0.0928 0.0103,0.0825 0.0103,0.17532 0.0103,0.0928 0.0206,0.17531 0.0103,0.0825 0.0206,0.0928 0,0.0103 0.0619,0.10313 0.0619,0.0928 0.0825,0.10312 0.0103,0.0206 0.0516,0.11344 0.0413,0.0928 0.0722,0.12375 l 0.15468,0.31969 q 0.0206,0.0722 0.0722,0.18562 0.0516,0.10313 0.0928,0.10313 0.0722,0.11343 0.15469,0.165 0.0928,0.0413 0.165,0.0413 0.0516,0 0.14438,-0.0413 0.0928,-0.0516 0.14437,-0.165 0.0309,-0.0412 0.0722,-0.0825 0.0825,-0.0825 0.12375,-0.11344 l 0.0206,-0.0619 q 0.0103,-0.0206 0.0206,-0.0412 0.0103,-0.0206 0.0103,-0.0412 0.12375,-0.30937 0.23719,-0.62906 0.11344,-0.31969 0.22687,-0.67031 0,-0.0309 0.0206,-0.13406 0.0206,-0.11344 0.0722,-0.15469 0,-0.0103 0,-0.0619 0.0103,-0.0516 0.0103,-0.11343 0.0103,-0.0722 0.0206,-0.12375 0.0103,-0.0619 0.0206,-0.0722 l 0.15469,-0.43313 q 0.0103,-0.0103 0.0206,-0.0619 0.0103,-0.0516 0.0206,-0.10313 0.0103,-0.0619 0.0103,-0.10312 0.0103,-0.0516 0.0103,-0.0722 0.0309,-0.10312 0.0928,-0.20625 0.0722,-0.10312 0.13407,-0.19594 0.0619,-0.0928 0.11343,-0.18562 0.0516,-0.10313 0.0516,-0.21656 -0.0206,-0.0412 -0.0619,-0.11344 -0.0309,-0.0825 -0.0516,-0.0928 v -0.43313 q 0,-0.0206 -0.0825,-0.11344 -0.0722,-0.0928 -0.11344,-0.11343 -0.0412,-0.0206 -0.12375,-0.0516 -0.0722,-0.0412 -0.165,-0.0722 -0.0928,-0.0309 -0.18562,-0.0516 -0.0825,-0.0309 -0.13407,-0.0412 -0.10312,0 -0.15468,-0.0309 -0.0412,-0.0412 -0.0516,-0.0412 l -0.34031,-0.2475 q -0.0516,-0.14438 -0.0516,-0.23719 0,-0.13406 0.0516,-0.23719 0.0516,-0.11344 0.12375,-0.22687 0.13406,-0.0722 0.2475,-0.0928 0.12375,-0.0309 0.21656,-0.0309 0.0928,-0.0103 0.17532,-0.0206 0.0825,-0.0103 0.14437,-0.0516 l 0.2475,-0.0309 q 0.0206,0 0.11344,0.0103 0.10312,0 0.21656,0.0103 0.11344,0.0103 0.20625,0.0206 0.10313,0 0.12375,0.0103 l 0.34031,0.0722 q 0.23719,0 0.42282,-0.0722 0.19593,-0.0722 0.43312,-0.14437 h 0.23719 q 0,-0.0206 0.0928,-0.0309 0.0928,-0.0206 0.13406,-0.0206 0,-0.0206 0.0206,-0.0206 0.0309,0 0.0516,0 0.0928,0 0.2475,0.0413 0.165,0.0412 0.31969,0.11344 0.15469,0.0722 0.26812,0.165 0.11344,0.0928 0.11344,0.19594 0,0.12375 -0.0722,0.17531 -0.0722,0.0516 -0.14437,0.13406 l -0.39188,0.31969 q -0.12375,0.11344 -0.2475,0.17531 -0.12375,0.0516 -0.25781,0.0825 -0.12375,0.0309 -0.26812,0.0516 -0.14438,0.0206 -0.29907,0.0619 -0.17531,0.26812 -0.29906,0.54656 -0.11344,0.27844 -0.2475,0.54656 0,0.0516 -0.0206,0.13407 -0.0206,0.0722 -0.0412,0.0928 0,0.0103 -0.0103,0.0619 0,0.0413 -0.0103,0.10313 -0.0103,0.0516 -0.0206,0.10312 0,0.0516 -0.0103,0.0516 0,0.0206 -0.0412,0.0722 -0.0309,0.0516 -0.0722,0.12375 -0.0412,0.0619 -0.0825,0.12375 -0.0309,0.0516 -0.0309,0.0619 v 0.53625 q -0.0103,0.0103 -0.0412,0.0722 -0.0309,0.0516 -0.0722,0.12375 -0.0309,0.0619 -0.0722,0.11343 -0.0309,0.0516 -0.0516,0.0619 -0.14437,0.26812 -0.34031,0.5775 -0.19594,0.30937 -0.27844,0.63937 v 0.37125 q 0,0.0206 -0.0412,0.11344 -0.0309,0.0825 -0.0516,0.0825 -0.11344,0.21656 -0.14438,0.40219 -0.0309,0.18562 -0.12375,0.36094 l -0.29906,0.60843 q -0.0412,0.20625 -0.0516,0.42282 -0.0103,0.21656 -0.0103,0.44343 0,0.21657 -0.0103,0.43313 -0.0103,0.21656 -0.0412,0.43312 -0.0206,0.25782 -0.165,0.50532 -0.14437,0.2475 -0.25781,0.47437 -0.0206,0.0206 -0.0619,0.0516 -0.0309,0.0413 -0.0309,0.0516 -0.0412,0.0619 -0.0825,0.19593 -0.0206,0.0619 -0.0412,0.13407 -0.0103,0.0619 -0.0206,0.19593 -0.0103,0.13407 -0.0206,0.27844 0,0.14438 -0.0103,0.26813 0,0.13406 0,0.18562 -0.10313,0.0825 -0.15469,0.23719 -0.0412,0.15469 -0.0722,0.34031 -0.0206,0.18563 -0.0412,0.36094 -0.0103,0.18562 -0.0516,0.30937 l -0.28875,0.37125 q -0.0206,0.0206 -0.0412,0.13407 -0.0103,0.12375 -0.0103,0.15468 -0.0309,0.0309 -0.0722,0.10313 -0.0412,0.0619 -0.10313,0.17531 -0.0619,0.11344 -0.14437,0.30938 0,0.0103 -0.0206,0.0619 -0.0206,0.0619 -0.0516,0.12375 -0.0309,0.0722 -0.0619,0.13406 -0.0206,0.0619 -0.0309,0.0722 -0.0412,0.14438 -0.12375,0.18563 -0.0722,0.0412 -0.17531,0.13406 -0.0619,0.0516 -0.0928,0.0825 -0.0309,0.0412 -0.0516,0.0722 -0.0206,0.0309 -0.0516,0.0619 -0.0206,0.0412 -0.0722,0.10313 -0.14437,0.18562 -0.33,0.21656 -0.18562,0.0412 -0.39187,0.10313 l -0.20625,0.165 q -0.12375,0.0412 -0.23719,0.0412 -0.11344,0.0103 -0.21656,0.0103 -0.19594,0 -0.4125,-0.0722 -0.21657,-0.0619 -0.40219,-0.18562 -0.18563,-0.12375 -0.30938,-0.29907 -0.12375,-0.17531 -0.12375,-0.39187 z"
         style="font-family:'IM FELL English';-inkscape-font-specification:'IM FELL English'"
         id="path82336" />
      <path
         d="m 250.30834,256.96405 q -0.11344,-0.11344 -0.28875,-0.15469 -0.165,-0.0413 -0.27844,-0.0619 -0.37125,-0.13406 -0.73219,-0.34031 -0.35062,-0.19594 -0.61875,-0.47438 -0.26812,-0.26812 -0.43312,-0.61875 -0.165,-0.34031 -0.165,-0.76312 0,-0.12375 0.0206,-0.35063 0.0206,-0.21656 0.0619,-0.46406 0.0516,-0.23719 0.11344,-0.45375 0.0722,-0.21656 0.165,-0.31969 0.0619,-0.12375 0.21656,-0.20625 0.165,-0.0722 0.33,-0.15468 0.165,-0.0825 0.28875,-0.19594 0.12375,-0.11344 0.12375,-0.29906 0,-0.28875 -0.15469,-0.48469 -0.15469,-0.19594 -0.35062,-0.37125 -0.18563,-0.17531 -0.34032,-0.37125 -0.15468,-0.19594 -0.15468,-0.48469 0,-0.12375 0.0103,-0.26812 0.0103,-0.15469 0.0309,-0.29907 0.0309,-0.15468 0.0722,-0.28875 0.0412,-0.14437 0.10313,-0.2475 0.0619,-0.0825 0.14437,-0.19593 0.0928,-0.12375 0.18563,-0.2475 0.10312,-0.12375 0.19594,-0.22688 0.10312,-0.10312 0.18562,-0.165 0.10313,-0.0722 0.19594,-0.11344 0.10312,-0.0413 0.17531,-0.0825 0.0825,-0.0516 0.13406,-0.10312 0.0516,-0.0619 0.0516,-0.165 0,-0.14438 -0.0619,-0.27844 -0.0619,-0.13406 -0.165,-0.25781 -0.0928,-0.12375 -0.21656,-0.2475 -0.11344,-0.12375 -0.23719,-0.23719 l -0.0825,-0.0928 q -0.0722,-0.0825 -0.0825,-0.10313 -0.0103,-0.0206 -0.0309,-0.0206 0.0103,-0.0103 -0.0619,-0.18563 -0.0619,-0.18562 -0.14438,-0.42281 -0.0722,-0.23719 -0.14437,-0.46406 -0.0619,-0.23719 -0.0619,-0.35063 l 0.0206,-0.34031 q 0,-0.165 0.0722,-0.19594 0.0722,-0.0412 0.12375,-0.10312 -0.0206,-0.0825 -0.0825,-0.165 -0.0619,-0.0928 -0.0619,-0.28875 0,-0.0103 0.0309,-0.0722 0.0412,-0.0619 0.0619,-0.0825 0.44344,-0.9075 0.84563,-1.42312 0.40219,-0.52594 0.9075,-0.78375 0.51562,-0.26813 1.20656,-0.33 0.69094,-0.0722 1.71188,-0.0722 h 0.0412 q 0.20625,0.0825 0.43312,0.14437 0.22688,0.0619 0.42281,0.19594 l 0.26813,0.23719 q 0.17531,0.13406 0.4125,0.21656 0.23719,0.0722 0.495,0.15469 l 0.35062,0.0722 q 0.0619,0.0309 0.14438,0.0309 h 0.0206 q 0.0928,0 0.165,-0.0619 0.0722,-0.0619 0.13407,-0.14438 0.0722,-0.0825 0.13406,-0.17531 0.0722,-0.0928 0.13406,-0.15469 0.34031,-0.27843 0.7425,-0.495 0.40219,-0.21656 0.86625,-0.21656 0.42281,0 0.66,0.26813 0.23719,0.26812 0.23719,0.63937 0,0.14438 -0.0206,0.31969 -0.0103,0.17531 -0.0825,0.33 -0.0619,0.14437 -0.21656,0.2475 -0.14437,0.10312 -0.40219,0.10312 -0.17531,-0.22687 -0.30937,-0.28875 -0.13406,-0.0619 -0.30938,-0.0619 h -0.4125 q -0.21656,0 -0.4125,0.20625 -0.18562,0.20625 -0.31968,0.50531 -0.13407,0.28875 -0.21657,0.59813 -0.0722,0.30937 -0.0722,0.52593 l 0.11343,0.83532 q 0,0.36093 -0.13406,0.67031 -0.12375,0.30937 -0.29906,0.5775 -0.15469,0.20625 -0.25781,0.45375 -0.0928,0.23719 -0.30938,0.37125 l -0.17531,0.0722 q -0.39188,0.14437 -0.66,0.26812 -0.26813,0.11344 -0.52594,0.19594 -0.25781,0.0825 -0.56719,0.13406 -0.29906,0.0413 -0.76312,0.0413 h -0.26813 l -1.50562,-0.10312 q -0.5775,0 -0.9075,0.33 -0.31969,0.33 -0.31969,0.91781 v 0.12375 q 0.0825,0.27844 0.19594,0.39187 0.11344,0.10313 0.25781,0.13407 0.14438,0.0309 0.30938,0.0516 0.17531,0.0103 0.38156,0.11344 0.20625,-0.0206 0.42281,-0.0412 0.21656,-0.0206 0.43313,-0.0206 0.0722,0 0.15468,0.0103 0.0928,0 0.18563,0.0206 h 0.66 l 0.58781,0.14437 h 0.29906 q 0.17532,0 0.2475,-0.0103 0.0825,-0.0103 0.19594,-0.0103 0.0516,0 0.11344,0 0.0619,0 0.17531,0.0206 0.13406,0.0206 0.26813,0.0722 0.13406,0.0516 0.30937,0.0722 h 0.71156 q 0.11344,0 0.22688,0.0516 0.12375,0.0412 0.23719,0.10313 0.11343,0.0516 0.20625,0.11343 0.10312,0.0516 0.165,0.0722 0.13406,0.0928 0.2475,0.14438 0.12375,0.0516 0.21656,0.0928 0.0928,0.0516 0.15469,0.0928 0.0619,0.0516 0.0825,0.12375 0.0516,0.0825 0.165,0.21656 0.11343,0.14438 0.23718,0.33 0.12375,0.18563 0.23719,0.4125 0.12375,0.23719 0.17531,0.495 0,0.0825 0,0.12375 0,0.0516 -0.0206,0.12375 -0.0619,0.5775 -0.14438,0.94875 -0.0825,0.38157 -0.23718,0.67032 -0.15469,0.28875 -0.4125,0.53625 -0.25782,0.25781 -0.68063,0.58781 -0.33,0.25781 -0.66,0.53625 -0.33,0.27844 -0.71156,0.39188 l -0.75281,0.19593 q -0.0309,0 -0.10313,0.0309 -0.0722,0.0412 -0.0928,0.0619 -0.30938,0.0206 -0.53625,0.0309 -0.21656,0.0206 -0.42281,0.0309 -0.19594,0.0206 -0.4125,0.0206 -0.20625,0.0103 -0.48469,0.0103 -0.23719,0 -0.44344,-0.0103 -0.19594,0 -0.39187,-0.0206 -0.19594,-0.0103 -0.4125,-0.0309 -0.20625,-0.0103 -0.48469,-0.0309 z m -1.01063,-3.88782 q -0.0206,0.11344 -0.0309,0.20625 -0.0103,0.10313 -0.0103,0.21656 0,0.14438 0.0206,0.28875 0.0309,0.14438 0.0825,0.31969 0,0.0103 0.0516,0.11344 0.0619,0.10312 0.13406,0.23719 0.0825,0.14437 0.14438,0.26812 0.0722,0.13406 0.10312,0.18563 0.0516,0.0825 0.0825,0.17531 0.0309,0.10312 0.0619,0.19594 0.0309,0.0928 0.0619,0.15468 0.0309,0.0722 0.0928,0.10313 0.14437,0.0516 0.35062,0.13406 0.20625,0.0928 0.30938,0.14438 0.165,0.0722 0.38156,0.13406 0.21656,0.0722 0.43312,0.11344 0.21657,0.0516 0.39188,0.0825 0.18562,0.0309 0.27844,0.0309 0.0309,0 0.0412,-0.0103 0.0103,0 0.0103,-0.0103 0.165,0.0412 0.31969,0.0412 0.165,0.0103 0.30937,0.0103 0.20625,0 0.39188,-0.0103 0.18562,-0.0103 0.37125,-0.0412 0.19593,-0.0516 0.40218,-0.0928 0.20625,-0.0413 0.38157,-0.11344 0.18562,-0.0722 0.31968,-0.18563 0.14438,-0.10312 0.21657,-0.29906 l 0.62906,-0.30937 q 0.0619,-0.48469 0.11344,-0.91782 0.0619,-0.42281 0.0619,-0.91781 0,-0.46406 -0.23719,-0.76312 -0.22687,-0.29907 -0.5775,-0.47438 -0.35062,-0.17531 -0.76312,-0.2475 -0.4125,-0.0722 -0.77344,-0.0825 -0.495,-0.0206 -0.95906,-0.0722 -0.46406,-0.0413 -0.93844,-0.0413 -0.0825,0 -0.22687,-0.0103 -0.13407,0 -0.26813,0 -0.25781,0 -0.48469,0.0309 -0.22687,0.0309 -0.39187,0.14437 -0.0516,0.0516 -0.13406,0.15469 -0.0825,0.10313 -0.0928,0.13406 -0.0722,0.0516 -0.18562,0.0928 -0.10313,0.0413 -0.20625,0.10312 -0.0928,0.0619 -0.165,0.13406 -0.0722,0.0825 -0.0722,0.18563 z m 0.88688,-6.91969 q 0.0619,0.11344 0.10312,0.17532 0.0516,0.0516 0.10313,0.10312 0.0619,0.0412 0.12375,0.10313 0.0619,0.0619 0.15469,0.165 0.12375,0.165 0.22687,0.36093 0.10313,0.18563 0.22688,0.35063 0.12375,0.165 0.28875,0.27844 0.165,0.10312 0.4125,0.10312 0.36093,0 0.63937,-0.0825 0.27844,-0.0928 0.495,-0.2475 0.22688,-0.165 0.4125,-0.38156 0.18563,-0.22688 0.36094,-0.48469 0.14437,-0.17531 0.29906,-0.30937 0.165,-0.14438 0.20625,-0.35063 0.0619,-0.21656 0.0928,-0.50531 0.0413,-0.29906 0.0619,-0.53625 -0.0722,-0.47438 -0.15469,-0.83531 -0.0825,-0.37125 -0.2475,-0.63938 -0.165,-0.27844 -0.46406,-0.46406 -0.29906,-0.19594 -0.80438,-0.30938 -0.17531,-0.0413 -0.33,-0.13406 -0.15468,-0.0928 -0.29906,-0.0928 -0.22687,0 -0.46406,0.11344 -0.23719,0.10312 -0.45375,0.26812 -0.20625,0.15469 -0.38156,0.34031 -0.165,0.18563 -0.26813,0.33 -0.0722,0.22688 -0.19594,0.37125 -0.12375,0.13407 -0.23718,0.34032 v 1.12406 q 0,0.21656 0.0103,0.4125 0.0103,0.18562 0.0825,0.43312 z"
         style="font-family:'IM FELL English';-inkscape-font-specification:'IM FELL English'"
         id="path82338" />
      <path
         d="m 258.6099,251.00342 q -0.0103,-0.0206 -0.0103,-0.0619 0,-0.0516 0,-0.0928 l 0.0103,-0.21656 q 0,-0.0928 0.0722,-0.11344 0.0825,-0.0206 0.165,-0.0722 0.0928,-0.11343 0.22687,-0.12375 0.14438,-0.0206 0.23719,-0.0722 0.27844,-0.11344 0.56719,-0.22688 0.28875,-0.12375 0.46406,-0.43312 0.0309,-0.0412 0.0825,-0.165 0.0619,-0.12375 0.11344,-0.26813 0.0516,-0.15469 0.0928,-0.29906 0.0412,-0.14438 0.0516,-0.20625 0.0206,-0.0309 0.0206,-0.0825 0,-0.0619 0,-0.0825 l -0.23719,-1.12406 q 0,-0.13407 0.0928,-0.2475 0.0928,-0.11344 0.0928,-0.23719 l -0.12375,-0.47438 q 0,-0.14437 0,-0.35062 0.0103,-0.20625 0.0206,-0.4125 0.0206,-0.21656 0.0619,-0.39188 0.0412,-0.18562 0.11344,-0.27843 0.0206,-0.29907 0.0309,-0.56719 0.0206,-0.26813 0.0206,-0.55688 0,-0.22687 -0.0206,-0.44343 -0.0103,-0.22688 -0.0309,-0.46407 0.0516,-0.0825 0.0619,-0.18562 0.0206,-0.11344 0.0206,-0.20625 v -0.165 l -0.0722,-0.7425 q 0,-0.0928 0.0412,-0.13406 0.0516,-0.0516 0.10313,-0.0825 0.0516,-0.0413 0.0928,-0.0722 0.0516,-0.0412 0.0516,-0.10313 l -0.28875,-0.58781 0.165,-1.17562 q 0,-0.19594 -0.0516,-0.38157 -0.0412,-0.19593 -0.0412,-0.42281 l 0.0516,-0.4125 q 0,-0.165 -0.15468,-0.34031 -0.14438,-0.18563 -0.2475,-0.31969 l -0.70125,-0.70125 q -0.0206,0 -0.0619,-0.0206 -0.0412,-0.0309 -0.0412,-0.0516 -0.0103,-0.0206 -0.0103,-0.0309 -0.0103,-0.0103 -0.0103,-0.0309 0,-0.14438 0.0206,-0.26813 0.0206,-0.12375 0.10313,-0.165 0.0516,-0.0516 0.13406,-0.0619 0.0928,-0.0103 0.20625,-0.0103 h 0.17531 q 0.14438,0 0.19594,-0.0206 0.28875,-0.0619 0.5775,-0.19594 0.28875,-0.13406 0.61875,-0.13406 0.10312,0 0.2475,0.0412 0.15469,0.0412 0.29906,0.10313 0.14438,0.0619 0.2475,0.15468 0.10313,0.0825 0.10313,0.17532 0,0.12375 -0.0619,0.22687 -0.0516,0.0928 -0.0516,0.20625 l 0.165,1.13438 q 0,0.14437 -0.0103,0.21656 -0.0103,0.0722 -0.0619,0.21656 v 0.97969 q 0,0.10312 0,0.26812 0.0103,0.165 0.0103,0.33 0,0.15469 0,0.27844 0.0103,0.11344 0.0103,0.12375 l 0.0516,0.71156 -0.0722,0.30938 q 0,0.17531 0.0309,0.33 0.0412,0.15469 0.0412,0.33 0,0.20625 -0.0825,0.35062 -0.0825,0.14438 -0.0825,0.28875 l 0.11344,0.37125 q 0,0.0722 -0.0516,0.14438 -0.0412,0.0619 -0.0928,0.13406 -0.0516,0.0722 -0.10312,0.14438 -0.0412,0.0722 -0.0412,0.15468 l 0.0412,0.39188 -0.0412,0.29906 q 0,0.11344 0.0825,0.23719 0.0928,0.12375 0.25781,0.12375 h 0.0516 q 0.0928,-0.0103 0.18563,-0.0722 0.10312,-0.0722 0.18562,-0.15469 0.0928,-0.0825 0.165,-0.15468 0.0722,-0.0722 0.12375,-0.10313 0.26813,-0.14437 0.45375,-0.21656 0.19594,-0.0825 0.35063,-0.165 0.165,-0.0928 0.30937,-0.22688 0.15469,-0.14437 0.35063,-0.42281 0.0516,-0.0928 0.0825,-0.14437 0.0412,-0.0516 0.0619,-0.0825 0.0309,-0.0309 0.0412,-0.0619 0.0103,-0.0309 0.0103,-0.0928 0,-0.11344 -0.0722,-0.19594 -0.0619,-0.0825 -0.14438,-0.165 -0.0722,-0.0825 -0.13406,-0.17531 -0.0619,-0.0928 -0.0619,-0.22688 v -0.12375 q 0,-0.0413 0.0103,-0.0825 0.0206,-0.0412 0.10312,-0.0825 0.14438,-0.0206 0.28875,-0.0309 0.14438,-0.0206 0.25781,-0.0206 0.17532,0.0206 0.34032,0.0413 0.165,0.0103 0.31968,0.0103 0.0825,0 0.14438,0 0.0722,0 0.14437,-0.0206 l 0.825,-0.0309 q 0.0103,0 0.0516,-0.0103 0.0516,-0.0103 0.10312,-0.0206 0.0516,-0.0206 0.0928,-0.0309 0.0412,-0.0103 0.0516,-0.0103 h 0.92812 q 0.11344,0.0928 0.20625,0.19594 0.0928,0.10313 0.0928,0.21656 0,0.10313 -0.10312,0.20625 -0.10313,0.0928 -0.26813,0.18563 -0.165,0.0825 -0.37125,0.15469 -0.19593,0.0722 -0.38156,0.13406 -0.18562,0.0619 -0.34031,0.11344 -0.15469,0.0412 -0.22688,0.0619 -0.29906,0.13406 -0.495,0.22688 -0.19593,0.0825 -0.46406,0.21656 -0.0825,0.11344 -0.12375,0.21656 -0.0309,0.10313 -0.165,0.21656 -0.0516,0.0309 -0.18562,0.0825 -0.12375,0.0516 -0.26813,0.12375 -0.13406,0.0722 -0.2475,0.17532 -0.10312,0.0928 -0.10312,0.20625 0,0.0825 0,0.21656 0.0103,0.13406 0.0309,0.27844 0.0206,0.14437 0.0619,0.27843 0.0412,0.13407 0.10312,0.22688 0.22688,0.29906 0.47438,0.52594 0.2475,0.21656 0.42281,0.52593 0.0619,0.0722 0.0722,0.11344 0.0206,0.0309 0.0206,0.0619 0.0103,0.0309 0.0206,0.0825 0.0103,0.0413 0.0619,0.13406 0.0309,0.11344 0.11344,0.18562 0.0928,0.0619 0.18563,0.12375 0.10312,0.0619 0.19593,0.13407 0.10313,0.0619 0.165,0.165 0.25782,0.59812 0.71157,1.17562 0.45375,0.56719 0.92812,1.00031 0.0928,0.0722 0.30938,0.15469 0.22687,0.0825 0.47437,0.18563 0.25781,0.0928 0.495,0.19593 0.23719,0.10313 0.36094,0.22688 0.0309,0.0309 0.0309,0.0722 0.0103,0.0413 0.0103,0.0928 v 0.20625 q 0,0.10312 -0.0619,0.18562 -0.0516,0.0825 -0.13406,0.10313 h -0.85594 l -1.26843,-0.17531 q -0.0103,0 -0.0206,0.0103 -0.0103,0 -0.0206,0 -0.0206,0.0103 -0.0309,0.0103 -0.68063,0.20625 -1.29938,0.20625 l -0.5775,0.0206 q -0.165,0 -0.31968,-0.0206 -0.14438,-0.0206 -0.21657,-0.0722 -0.11343,-0.11343 -0.13406,-0.21656 -0.0206,-0.11344 -0.0206,-0.25781 v -0.19594 q 0,-0.10312 0.12375,-0.15469 0.12375,-0.0619 0.27843,-0.12375 0.15469,-0.0619 0.27844,-0.15468 0.12375,-0.0928 0.12375,-0.26813 0,-0.12375 -0.0722,-0.19594 -0.0722,-0.0825 -0.165,-0.14437 -0.0928,-0.0722 -0.19593,-0.13406 -0.10313,-0.0722 -0.165,-0.165 -0.0722,-0.15469 -0.10313,-0.31969 -0.0206,-0.17531 -0.0619,-0.33 -0.0412,-0.165 -0.14438,-0.29906 -0.10312,-0.13407 -0.33,-0.21657 -0.0206,-0.0413 -0.0722,-0.13406 -0.0412,-0.0928 -0.0928,-0.19594 -0.0516,-0.11343 -0.10312,-0.20625 -0.0412,-0.10312 -0.0516,-0.15468 -0.0516,-0.0825 -0.15468,-0.13407 -0.0928,-0.0516 -0.18563,-0.10312 -0.13406,-0.12375 -0.26812,-0.29906 -0.12375,-0.18563 -0.27844,-0.36094 -0.14438,-0.17531 -0.30938,-0.29906 -0.165,-0.12375 -0.37125,-0.12375 -0.0825,0 -0.15468,0.0516 -0.0619,0.0412 -0.0619,0.165 l 0.0722,0.22687 q 0,0.0309 -0.0516,0.12375 -0.0412,0.0825 -0.10313,0.17532 -0.0516,0.0928 -0.10312,0.17531 -0.0412,0.0722 -0.0412,0.0825 v 0.495 q 0,0.28875 0.0722,0.51562 0.0825,0.22688 0.0825,0.48469 0,0.11344 -0.0309,0.19594 -0.0309,0.0825 -0.0619,0.165 -0.0206,0.0928 -0.0412,0.17531 -0.0206,0.0825 -0.0206,0.17531 0,0.39188 0.10312,0.64969 0.11344,0.2475 0.29906,0.37125 0.11344,0.0722 0.25782,0.11344 0.15468,0.0309 0.28875,0.0516 0.14437,0.0103 0.26812,0.0206 0.12375,0.0103 0.18563,0.0412 0.11343,0.0516 0.12375,0.10312 0.0206,0.0516 0.0206,0.11344 0,0.14437 -0.0309,0.30937 -0.0206,0.15469 -0.12375,0.2475 -0.0825,0.0516 -0.20625,0.0619 -0.12375,0.0206 -0.2475,0.0206 h -0.27843 l -0.80438,-0.15468 -1.09312,0.0722 h -0.68063 l -0.83531,0.0825 -0.48469,0.0206 q -0.0619,-0.0206 -0.15469,-0.0206 -0.0928,0 -0.165,0 z"
         style="font-family:'IM FELL English';-inkscape-font-specification:'IM FELL English'"
         id="path82340" />
      <path
         d="m 278.35834,246.77529 q 0.0103,-0.0309 0.0412,-0.0928 0.0309,-0.0619 0.0619,-0.13406 0.0412,-0.0825 0.0722,-0.15469 0.0309,-0.0722 0.0516,-0.10312 0.0722,-0.10313 0.0722,-0.29907 -0.0103,-0.0206 -0.0103,-0.0516 -0.0103,-0.0206 -0.0103,-0.0412 0,-0.0309 0,-0.0516 0,-0.0413 -0.0516,-0.11344 -0.0516,-0.0825 -0.12375,-0.0825 -0.0309,0 -0.0412,0.0103 -0.0103,0.0103 -0.0309,0.0309 -0.0206,0 -0.0516,0.0206 -0.0206,0.0103 -0.0412,0.0103 -0.0206,0.0206 -0.0309,0.0309 0,0.0103 -0.0206,0.0206 -0.0206,0.0103 -0.0309,0.0206 -0.0103,0.0103 -0.0516,0.0516 -0.0412,0.0412 -0.0928,0.0928 -0.0516,0.0413 -0.10313,0.0928 -0.0412,0.0412 -0.0619,0.0516 l -0.60844,0.39187 q -0.0206,0.0309 -0.0722,0.0825 -0.0516,0.0516 -0.11343,0.11344 -0.0516,0.0516 -0.10313,0.10312 -0.0516,0.0516 -0.0825,0.0722 -0.23719,0.25781 -0.60844,0.42281 -0.36093,0.15469 -0.69093,0.20625 h -0.30938 q -0.15469,0 -0.30937,0 -0.14438,-0.0103 -0.28875,-0.0619 -0.0206,0 -0.0516,-0.0206 -0.0206,-0.0206 -0.0412,-0.0516 -0.21656,-0.11344 -0.37125,-0.33 -0.14437,-0.21656 -0.21656,-0.46406 -0.0412,-0.14438 -0.0516,-0.2475 0,-0.11344 0,-0.25781 v -0.22688 q 0,-0.14437 0.0412,-0.28875 0.0516,-0.15469 0.11344,-0.29906 0.14437,-0.35063 0.30937,-0.68063 0.17531,-0.34031 0.35063,-0.66 0.0722,-0.0825 0.12375,-0.17531 0.0619,-0.0928 0.11343,-0.165 0,-0.0103 0.0206,-0.0722 0.0103,-0.0206 0.0309,-0.0516 0.0413,-0.0413 0.11343,-0.13406 0.0825,-0.10313 0.165,-0.19594 0.0825,-0.10312 0.15469,-0.18562 0.0722,-0.0928 0.10313,-0.12375 0.0412,-0.0825 0.13406,-0.11344 0.10312,-0.0412 0.15469,-0.10313 l 0.86625,-0.73218 q 0,0 0.0206,-0.0412 0.0103,-0.0103 0.0206,-0.0309 0.0206,-0.0206 0.10312,-0.10313 0.0825,-0.0928 0.17531,-0.19593 0.0928,-0.11344 0.17532,-0.20625 0.0825,-0.10313 0.11343,-0.13407 0.0206,-0.0206 0.0516,-0.0413 0.0412,-0.0309 0.0619,-0.0516 l 0.0103,-0.0206 h 0.0619 q 0.0206,0 0.0516,-0.0103 0.0825,-0.0206 0.13406,-0.0619 0.0619,-0.0516 0.11344,-0.12375 0.40219,-0.31969 0.80438,-0.50531 0.40218,-0.18563 0.92812,-0.27844 0.15469,-0.0413 0.31969,-0.0413 0.17531,-0.0103 0.35062,-0.0103 h 0.0928 q 0.11343,0.0206 0.17531,0.0722 0.0619,0.0516 0.14437,0.0722 0.0619,0.0309 0.11344,0.0309 h 0.2475 l 0.0206,-0.0103 q 0.0928,-0.0722 0.14437,-0.14438 0.0516,-0.0722 0.11344,-0.165 0.14437,-0.13406 0.27844,-0.2475 0.14437,-0.12375 0.35062,-0.12375 h 0.12375 q 0.14438,0.14438 0.20625,0.33 0.0619,0.17531 0.0619,0.36094 0,0.33 -0.11344,0.58781 -0.11344,0.25781 -0.25781,0.52594 -0.0309,0.0928 -0.0412,0.17531 -0.0103,0.0722 -0.0309,0.15469 0,0.0722 -0.0412,0.11344 l -1.13438,2.33062 q -0.0206,0.0516 -0.0206,0.0825 0,0.0206 0,0.0619 0,0.0412 0,0.0825 0,0.0309 -0.0206,0.0825 -0.0825,0.17531 -0.165,0.36093 -0.0825,0.18563 -0.17531,0.37125 v 0.0309 q -0.0206,0.0825 -0.0413,0.13406 -0.0206,0.0516 -0.0412,0.0928 -0.0103,0.0412 -0.0206,0.0619 -0.0206,0.0412 -0.0619,0.0928 -0.0309,0.0516 -0.0309,0.13407 0,0.0928 0.0206,0.19593 0.0206,0.0928 0.14437,0.0928 0.11344,0 0.20625,-0.0619 0.0928,-0.0619 0.18563,-0.13406 l 1.155,-0.66 q 0.0309,-0.0206 0.0619,-0.0413 0.0412,-0.0309 0.0825,-0.0516 0.30938,-0.25782 0.60844,-0.52594 0.30938,-0.27844 0.55688,-0.5775 0.25781,-0.30938 0.43312,-0.63938 0.17531,-0.34031 0.22688,-0.73218 0.0413,-0.17532 0.0516,-0.37125 0.0206,-0.20625 0.0206,-0.40219 0,-0.13406 -0.0412,-0.29906 -0.0309,-0.165 -0.0516,-0.34032 -0.23719,-0.5775 -0.42281,-1.03125 -0.18563,-0.45375 -0.4125,-0.78375 h -0.0206 l -0.73218,-1.00031 q -0.33,-0.12375 -0.56719,-0.29906 -0.23719,-0.18563 -0.52594,-0.34031 -0.35062,-0.21657 -0.62906,-0.36094 -0.27844,-0.15469 -0.55688,-0.19594 -0.15468,0.0206 -0.23718,0.0412 -0.0722,0.0103 -0.12375,0.0103 h -0.17532 q -0.0825,0 -0.13406,0 -0.0516,0 -0.13406,0.0206 l -0.38156,-0.17531 q -0.29907,0 -0.61875,0.0516 -0.31969,0.0413 -0.53625,0.27844 -0.63938,0.0619 -1.08282,0.19593 -0.44343,0.12375 -0.78375,0.35063 -0.33,0.21656 -0.60843,0.54656 -0.27844,0.31969 -0.59813,0.78375 l -0.27844,0.28875 -0.39187,0.58781 q -0.0722,0.0722 -0.10313,0.18563 -0.0309,0.11344 -0.0309,0.20625 l -0.51563,1.27875 q -0.0516,0.11344 -0.0928,0.26812 -0.0309,0.15469 -0.0619,0.30938 -0.0206,0.15469 -0.0412,0.30937 -0.0103,0.14438 -0.0309,0.25782 -0.0103,0.0516 -0.0516,0.15468 -0.0309,0.0928 -0.0722,0.21657 -0.0412,0.11343 -0.0825,0.22687 -0.0309,0.11344 -0.0309,0.18563 0.0516,0.86625 0.25781,1.5675 0.21656,0.69093 0.495,1.26843 0.0825,0.11344 0.11344,0.25782 0.0309,0.14437 0.0722,0.29906 0.0516,0.15469 0.13406,0.30937 0.0928,0.15469 0.28875,0.27844 0.11344,0.23719 0.26812,0.495 0.15469,0.25781 0.37125,0.4125 0.13407,0.11344 0.23719,0.22688 0.11344,0.11343 0.21656,0.2475 0.10313,0.12375 0.21657,0.26812 0.12375,0.13406 0.29906,0.27844 0.12375,0.0206 0.27844,0.0722 0.15468,0.0413 0.29906,0.0928 0.14437,0.0516 0.26812,0.10312 0.12375,0.0413 0.18563,0.0516 l 0.63937,0.19593 0.96938,-0.0206 q 0.2475,-0.0412 0.44344,-0.0516 0.20625,-0.0206 0.37125,-0.0206 0.30937,0 0.47437,0.0309 0.17531,0.0309 0.25781,0.0309 0.0722,0 0.12375,0.0309 0.0516,0.0206 0.21657,0.0206 0.13406,0 0.22687,-0.0206 0.0928,-0.0309 0.165,-0.0722 0.0825,-0.0412 0.17531,-0.0825 0.0928,-0.0413 0.23719,-0.0619 0.0206,-0.0206 0.21656,-0.13406 0.19594,-0.12375 0.43313,-0.2475 0.23719,-0.13406 0.43312,-0.23719 0.19594,-0.11344 0.21657,-0.11344 0.33,0 0.44343,0.0928 0.12375,0.0825 0.12375,0.21656 0,0.17531 -0.15468,0.38156 -0.14438,0.19594 -0.2475,0.30938 -0.14438,0.21656 -0.2475,0.34031 -0.10313,0.12375 -0.18563,0.18562 -0.0825,0.0516 -0.15469,0.0722 -0.0619,0.0103 -0.13406,0.0103 -0.13406,0 -0.2475,0.0309 -0.10312,0.0309 -0.21656,0.0825 -0.26813,0.11344 -0.59813,0.20625 -0.31968,0.0928 -0.73218,0.0928 l 0.0309,-0.0206 q -0.0619,0.0206 -0.17531,0.0206 -0.11344,0 -0.23719,0 h -1.4025 q -0.14437,0 -0.27843,0 -0.12375,0 -0.18563,-0.0206 -0.30937,0 -0.62906,-0.0516 -0.30938,-0.0413 -0.62906,-0.11344 -0.31969,-0.0722 -0.62907,-0.14438 -0.30937,-0.0825 -0.60843,-0.13406 -0.0206,0 -0.0825,-0.0206 -0.0516,-0.0309 -0.0619,-0.0516 -0.28875,-0.21656 -0.60844,-0.43312 -0.30937,-0.21656 -0.63937,-0.39188 l -0.36094,-0.0619 q -0.0516,-0.0103 -0.22687,-0.15469 -0.17532,-0.14437 -0.38157,-0.31969 -0.19593,-0.17531 -0.36093,-0.34031 -0.165,-0.17531 -0.18563,-0.2475 l -0.825,-1.44375 q -0.0825,-0.19594 -0.21656,-0.59812 -0.13406,-0.40219 -0.25781,-0.84563 -0.12375,-0.44344 -0.21657,-0.83531 -0.0928,-0.40219 -0.0928,-0.58781 0,-0.11344 0.0309,-0.165 0.0412,-0.0619 0.0412,-0.17532 l -0.0722,-0.60843 q 0,-0.22688 0.0516,-0.5775 0.0619,-0.35063 0.12375,-0.72188 0.0722,-0.37125 0.14438,-0.70125 0.0722,-0.33 0.10312,-0.53625 0.0103,-0.0619 0.0825,-0.20625 0.0825,-0.14437 0.13407,-0.19594 0.10312,-0.12375 0.15468,-0.2475 0.0516,-0.12375 0.0825,-0.2475 0.0412,-0.13406 0.0825,-0.25781 0.0412,-0.12375 0.12375,-0.2475 0.0516,-0.0928 0.11344,-0.13406 0.0722,-0.0516 0.12375,-0.0928 0.0619,-0.0413 0.10313,-0.10313 0.0412,-0.0619 0.0412,-0.17531 l 1.22718,-1.24781 0.87657,-0.44344 q 0.0206,-0.0206 0.0516,-0.0619 0.0412,-0.0516 0.0928,-0.10312 l 0.51563,-0.17531 1.39218,-0.68063 2.71219,-0.53625 h 0.58781 l 0.53625,0.25781 0.26813,-0.0413 0.73219,0.2475 q 0.0825,0.0309 0.27843,0.11344 0.19594,0.0722 0.4125,0.165 0.21657,0.0825 0.40219,0.17531 0.19594,0.0825 0.27844,0.14438 0.13406,0.13406 0.23719,0.23719 0.11343,0.0928 0.21656,0.17531 0.11344,0.0722 0.22687,0.15469 0.12375,0.0722 0.26813,0.15468 0.0928,0.0516 0.25781,0.25782 0.17531,0.20625 0.34031,0.45375 0.17532,0.23718 0.30938,0.46406 0.13406,0.21656 0.15469,0.28875 0.0309,0.13406 0.0309,0.25781 0,0.12375 0.0103,0.22688 0.0103,0.10312 0.0516,0.19593 0.0516,0.0928 0.17531,0.165 0.0825,0.35063 0.165,0.7425 0.0825,0.38157 0.14438,0.72188 0.0722,0.33 0.11343,0.5775 0.0412,0.23719 0.0412,0.28875 0,0.23719 -0.0516,0.36094 -0.0412,0.12375 -0.0928,0.31968 -0.14438,0.22688 -0.25781,0.37125 -0.11344,0.14438 -0.11344,0.25782 -0.14438,0.18562 -0.21656,0.33 -0.0619,0.14437 -0.13407,0.27843 -0.0619,0.13407 -0.15468,0.26813 -0.0928,0.12375 -0.27844,0.27844 -0.37125,0.29906 -0.61875,0.495 -0.23719,0.18562 -0.46406,0.33 -0.21657,0.14437 -0.46407,0.28875 -0.23718,0.14437 -0.59812,0.35062 l -0.67031,0.56719 -0.0928,0.0722 q -0.0206,0.0206 -0.10312,0.0928 -0.0825,0.0722 -0.11344,0.0825 -0.0928,0.0825 -0.19594,0.11344 -0.10312,0.0206 -0.21656,0.0722 -0.15469,0.11344 -0.28875,0.2475 -0.13406,0.13407 -0.29906,0.21657 l -0.35063,0.10312 h -0.0412 l -0.67031,-0.10312 q -0.0206,-0.0103 -0.0516,-0.0206 -0.0206,-0.0103 -0.0413,-0.0206 -0.0206,-0.0103 -0.0412,-0.0103 -0.0412,-0.0516 -0.11344,-0.10312 -0.0722,-0.0516 -0.0928,-0.0928 -0.0722,-0.10313 -0.10313,-0.19594 -0.0206,-0.0928 -0.0206,-0.20625 z m -2.48531,-0.87656 q 0,0.14438 0.0412,0.25781 0.0412,0.10313 0.15468,0.15469 0.0412,0.0413 0.0928,0.0722 0.0516,0.0309 0.10312,0.0309 0.26813,0 0.45375,-0.10313 0.19594,-0.11344 0.38156,-0.29906 0.14438,-0.12375 0.35063,-0.33 0.21656,-0.20625 0.42281,-0.40219 0.23719,-0.22687 0.48469,-0.48469 l 0.85594,-1.14468 0.44343,-0.47438 0.48469,-0.99 0.20625,-0.81469 q 0,-0.0206 0.0103,-0.0516 0.0103,-0.0412 0.0103,-0.0516 0,-0.0825 -0.0206,-0.18563 -0.0206,-0.10312 -0.0825,-0.15468 -0.0103,-0.0206 -0.0206,-0.0412 -0.0103,-0.0206 -0.0206,-0.0413 l -0.0309,-0.0309 h -0.0412 q -0.0412,0 -0.0516,-0.0103 -0.0206,0 -0.0722,0 -0.0516,0 -0.0516,-0.0206 h -0.165 l -0.0309,0.0206 q -0.0309,0 -0.11343,0.0412 -0.0722,0.0309 -0.165,0.0722 -0.0928,0.0412 -0.18563,0.0825 -0.0825,0.0412 -0.12375,0.0516 -0.0516,0.0103 -0.0825,0.0412 -0.0206,0.0206 -0.0412,0.0619 -0.0309,0.0206 -0.12375,0.10313 -0.0928,0.0825 -0.20625,0.18562 -0.11344,0.0928 -0.20625,0.17531 -0.0928,0.0825 -0.12375,0.10313 l -0.0928,0.11344 h -0.12375 l -0.78375,0.83531 q -0.13406,0.13406 -0.165,0.30937 -0.0206,0.0516 -0.0309,0.11344 -0.0103,0.0619 -0.0412,0.11344 -0.0825,0.13406 -0.18562,0.22687 -0.10313,0.0928 -0.18563,0.20625 -0.0206,0.0309 -0.0619,0.0928 -0.0309,0.0516 -0.0722,0.11343 -0.0309,0.0619 -0.0619,0.11344 -0.0309,0.0412 -0.0309,0.0516 l -0.66,1.17563 v 0.0928 q -0.0206,0.14438 -0.0309,0.30938 -0.0103,0.15468 -0.0103,0.30937 z"
         style="font-family:'IM FELL English';-inkscape-font-specification:'IM FELL English'"
         id="path82342" />
      <path
         d="m 290.81584,249.85873 q -0.0412,0.0206 -0.13407,0.12375 -0.0825,0.0928 -0.13406,0.0928 l -0.39187,0.19594 q -0.0206,0.0103 -0.0722,0.0516 -0.0412,0.0309 -0.10313,0.0825 -0.0516,0.0412 -0.0928,0.0825 -0.0413,0.0309 -0.0516,0.0309 -0.0206,0.0103 -0.0825,0.0206 -0.0516,0.0103 -0.12375,0.0206 -0.0619,0.0103 -0.12375,0.0206 -0.0516,0 -0.0825,0 -0.0825,0.0206 -0.15469,0.0722 -0.0619,0.0516 -0.13406,0.12375 -0.0619,0.0619 -0.14438,0.13407 -0.0825,0.0619 -0.18562,0.11343 h -0.97969 q -0.0516,0 -0.14437,-0.0206 -0.0825,-0.0206 -0.18563,-0.0516 -0.0928,-0.0309 -0.18562,-0.0722 -0.0928,-0.0412 -0.14438,-0.0722 0,-0.0206 -0.0619,-0.0928 -0.0516,-0.0825 -0.0619,-0.13406 -0.0206,-0.0206 -0.0309,-0.0516 -0.0309,-0.0309 -0.0309,-0.0619 l -0.27844,-0.26813 q -0.0825,-0.165 -0.14438,-0.4125 -0.0516,-0.25781 -0.0516,-0.42281 l 0.0722,-0.21656 -0.0722,-0.21656 v -0.12375 q 0,-0.0516 0.0206,-0.13407 0.0309,-0.0928 0.0619,-0.17531 0.0309,-0.0928 0.0619,-0.165 0.0309,-0.0825 0.0516,-0.11344 0.0103,-0.0103 0.0722,-0.0722 0.0722,-0.0722 0.15468,-0.15469 0.0825,-0.0928 0.14438,-0.165 0.0722,-0.0722 0.0928,-0.10313 0.0103,0 0.0722,-0.0722 0.0722,-0.0722 0.0722,-0.0928 l 0.0206,-0.0413 q 0.0103,-0.0206 0.0103,-0.0412 0.17532,-0.11343 0.34032,-0.23718 0.165,-0.13407 0.37125,-0.22688 0.0103,-0.0103 0.14437,-0.0619 0.14438,-0.0619 0.30938,-0.12375 0.17531,-0.0722 0.34031,-0.12375 0.165,-0.0516 0.2475,-0.0722 0.10312,-0.0516 0.21656,-0.13406 0.11344,-0.0825 0.21656,-0.15469 0.11344,-0.0722 0.20625,-0.12375 0.0928,-0.0619 0.15469,-0.0619 h 0.26813 q 0.0103,0 0.0619,-0.0309 0.0206,-0.0103 0.0516,-0.0309 0.0412,-0.0103 0.19594,-0.0309 0.165,-0.0206 0.21656,-0.0206 l 0.13407,-0.17532 q 0.0722,-0.0413 0.14437,-0.0619 0.0722,-0.0309 0.13406,-0.0619 0.0619,-0.0309 0.10313,-0.0825 0.0516,-0.0619 0.0825,-0.165 0.0722,-0.21656 0.0928,-0.45375 0.0309,-0.2475 0.0309,-0.46406 v -0.22687 q 0,-0.0206 -0.0619,-0.11344 -0.0619,-0.0928 -0.0619,-0.13406 l -0.12375,-0.52594 -0.22688,-0.27844 -0.11343,-0.21656 q -0.0412,-0.0206 -0.0825,-0.10313 -0.0412,-0.0825 -0.0516,-0.13406 -0.0206,-0.0619 -0.15468,-0.11344 -0.13407,-0.0619 -0.29907,-0.10312 -0.165,-0.0516 -0.33,-0.0722 -0.15468,-0.0309 -0.21656,-0.0309 -0.0206,0 -0.165,0 -0.13406,-0.0103 -0.22687,-0.0103 -0.0928,0 -0.25782,0.0206 -0.15468,0.0103 -0.29906,0.0619 -0.14437,0.0413 -0.25781,0.12375 -0.10313,0.0825 -0.10313,0.21656 v 0.0928 q 0.0103,0.0206 0.0412,0.0928 0.0309,0.0619 0.0619,0.14437 0.0309,0.0722 0.0516,0.14438 0.0309,0.0619 0.0309,0.0825 0,0.0412 -0.0309,0.12375 -0.0206,0.0722 -0.0412,0.15469 -0.0722,0.33 -0.19594,0.50531 -0.12375,0.17531 -0.39187,0.34031 l -0.12375,0.0928 q -0.0412,0.0309 -0.0722,0.0619 h -0.78375 q -0.0928,0 -0.15469,-0.0722 -0.0619,-0.0722 -0.10312,-0.165 -0.0412,-0.10312 -0.0619,-0.19594 -0.0206,-0.10312 -0.0206,-0.15468 0,-0.0619 0.0206,-0.165 0.0206,-0.10313 0.0619,-0.19594 0.0412,-0.10313 0.0825,-0.18563 0.0516,-0.0928 0.10312,-0.14437 0.0309,-0.0722 0.0722,-0.12375 0.0206,-0.0516 0.0412,-0.0825 0.0309,-0.0309 0.0412,-0.0412 l 0.165,-0.165 q 0.22688,-0.14438 0.38156,-0.29906 0.15469,-0.15469 0.36094,-0.33 l 0.72188,-0.47438 q 0.10312,-0.0928 0.18562,-0.13406 0.0928,-0.0516 0.18563,-0.0825 0.0928,-0.0309 0.18562,-0.0516 0.10313,-0.0206 0.23719,-0.0722 0.0103,0 0.0516,-0.0206 0.0516,-0.0206 0.10313,-0.0413 0.0516,-0.0309 0.10312,-0.0516 0.0516,-0.0206 0.0722,-0.0309 0.0516,-0.0103 0.19594,-0.0413 0.15468,-0.0309 0.31968,-0.0619 0.17532,-0.0309 0.33,-0.0516 0.15469,-0.0206 0.21657,-0.0206 0.0516,0 0.0928,0.0413 0.0516,0.0309 0.0722,0.0309 0.0309,0 0.0928,0.0103 0.0619,0 0.12375,0.0103 0.0722,0.0103 0.12375,0.0206 0.0619,0 0.0825,0.0103 0.0619,0.0206 0.165,0.0619 0.10312,0.0309 0.20625,0.0722 0.10312,0.0413 0.18562,0.0722 0.0825,0.0309 0.10313,0.0412 0.0103,0.0103 0.0516,0.0516 0.0412,0.0412 0.0928,0.10313 0.0619,0.0516 0.11344,0.10312 0.0516,0.0516 0.0722,0.0825 0.11344,0.165 0.22687,0.29907 0.12375,0.13406 0.17532,0.30937 0.0516,0.10313 0.0722,0.22688 0.0309,0.11343 0.0516,0.22687 0.0309,0.11344 0.0722,0.21656 0.0413,0.10313 0.13407,0.18563 v 0.63937 q 0,0.68063 -0.0516,1.34063 -0.0412,0.64969 -0.0619,1.34062 -0.0412,0.10313 -0.0722,0.20625 -0.0309,0.0928 -0.0309,0.21657 0,0.0928 0.0206,0.20625 0.0309,0.11343 0.0309,0.165 l -0.0928,0.19593 q -0.0103,0.0412 -0.0103,0.0825 v 0.11344 q 0,0.15469 0.0103,0.33 0.0103,0.17531 0.0516,0.35063 0.0412,0.17531 0.11343,0.33 0.0825,0.15468 0.22688,0.25781 0.0516,0.0413 0.13406,0.12375 0.0928,0.0722 0.13406,0.0722 h 0.0412 q 0.10313,0 0.23719,-0.0309 0.13406,-0.0413 0.27844,-0.0825 0.14437,-0.0516 0.28875,-0.0928 0.15469,-0.0413 0.29906,-0.0413 0.19594,0 0.19594,0.12375 0,0.33 -0.13406,0.63937 -0.12375,0.30938 -0.35063,0.55688 -0.22687,0.23718 -0.52594,0.39187 -0.29906,0.14438 -0.64968,0.14438 -0.35063,0 -0.68063,-0.0309 -0.33,-0.0412 -0.72187,-0.18563 l -0.0722,-0.0516 q -0.0206,-0.0206 -0.10313,-0.12375 -0.0722,-0.11344 -0.165,-0.23719 -0.0825,-0.12375 -0.15468,-0.22687 -0.0722,-0.11344 -0.0825,-0.14438 l -0.2475,-0.21656 h -0.0722 z m -2.33063,-1.54687 q 0,0.165 0.0516,0.38156 0.0619,0.21656 0.17532,0.4125 0.11343,0.18562 0.27843,0.31969 0.165,0.13406 0.37125,0.13406 0.0413,0 0.0722,-0.0103 0.0309,-0.0103 0.17531,-0.0825 l 0.93844,-0.0825 q 0.0309,-0.0206 0.0928,-0.0825 0.0722,-0.0722 0.13407,-0.14438 0.0722,-0.0722 0.12375,-0.13406 0.0619,-0.0619 0.0825,-0.0928 0.0103,0 0.0309,-0.0619 0.0309,-0.0619 0.0722,-0.15469 0.0412,-0.0928 0.0722,-0.19593 0.0412,-0.10313 0.0722,-0.18563 0.0206,-0.0516 0.0309,-0.15469 0.0206,-0.10312 0.0206,-0.11343 -0.0103,-0.11344 -0.0206,-0.22688 -0.0103,-0.11344 -0.0103,-0.22687 0,-0.10313 0.0103,-0.18563 0.0103,-0.0928 0.0206,-0.18562 l 0.0722,-0.22688 v -0.18562 q 0,-0.17532 -0.11344,-0.31969 -0.11344,-0.14438 -0.33,-0.14438 -0.17531,0 -0.29906,0.0825 -0.11344,0.0722 -0.26813,0.18563 -0.0516,0.0309 -0.20625,0.11344 -0.15469,0.0722 -0.33,0.15468 -0.165,0.0722 -0.31969,0.14438 -0.14437,0.0722 -0.19593,0.0928 l -0.19594,0.10313 q -0.0206,0 -0.0825,0.0206 -0.0619,0.0206 -0.0619,0.0309 l -0.14437,0.26812 -0.2475,0.2475 q -0.0516,0.11344 -0.0619,0.26813 -0.0103,0.14437 -0.0103,0.23719 z"
         style="font-family:'IM FELL English';-inkscape-font-specification:'IM FELL English'"
         id="path82344" />
      <path
         d="m 295.47709,251.14779 q -0.0309,0 -0.0722,0 -0.0412,0 -0.0928,-0.0206 h -0.21657 l -0.12375,-0.10313 v -0.48468 l 0.23719,-0.37125 q 0.0928,-0.0413 0.21656,-0.0413 0.12375,-0.0103 0.13407,-0.0103 0.0412,0 0.18562,-0.0103 0.15469,-0.0206 0.2475,-0.0619 0.23719,0.0516 0.34031,0.0516 0.12375,-0.0928 0.23719,-0.2475 0.11344,-0.15469 0.19594,-0.34031 0.0928,-0.18563 0.13406,-0.37125 0.0516,-0.18563 0.0516,-0.34032 v -1.14468 q 0,-0.36094 0,-0.70125 0.0103,-0.35063 0.0412,-0.495 -0.0309,-0.27844 -0.0412,-0.54657 -0.0103,-0.27843 -0.0309,-0.55687 l -0.0722,-1.0725 q -0.0309,-0.48469 -0.0516,-0.96938 -0.0206,-0.48468 -0.0206,-0.97968 0,-0.0516 0.0103,-0.0722 0.0103,-0.0309 0.0928,-0.0825 -0.0412,-0.165 -0.0516,-0.29906 0,-0.13407 0,-0.28875 0,-0.14438 0,-0.28875 0.0103,-0.15469 0.0516,-0.31969 -0.0825,-0.0516 -0.13407,-0.15469 -0.0412,-0.10312 -0.0412,-0.27844 0,-0.13406 0.0825,-0.21656 0.0825,-0.0825 0.0825,-0.2475 0,-0.22687 -0.0103,-0.48469 -0.0103,-0.25781 -0.0825,-0.52593 -0.0722,-0.36094 -0.0722,-0.5775 0,-0.21657 -0.0206,-0.46407 -0.0619,-0.0928 -0.21656,-0.18562 -0.14438,-0.0928 -0.31969,-0.18563 -0.165,-0.10312 -0.31969,-0.20625 -0.15469,-0.11343 -0.21656,-0.23718 -0.0825,-0.165 -0.11344,-0.19594 -0.0206,-0.0412 -0.0412,-0.0928 0,-0.0722 0.0412,-0.20625 0.0412,-0.14438 0.15469,-0.165 0.21656,-0.0516 0.44344,-0.12375 0.22687,-0.0722 0.34031,-0.0928 0.0206,0 0.10312,-0.0309 0.0928,-0.0412 0.18563,-0.0825 0.10312,-0.0516 0.18562,-0.0928 0.0928,-0.0516 0.11344,-0.0825 0.19594,-0.0516 0.36094,-0.11343 0.17531,-0.0619 0.34031,-0.11344 0.165,-0.0516 0.34031,-0.0928 0.18563,-0.0413 0.39188,-0.0516 0.10312,0 0.17531,0.0103 0.0722,0.0103 0.0722,0.0825 0.0412,0.26812 0.0516,0.52593 0.0206,0.2475 0.0206,0.48469 0,0.23719 -0.0206,0.48469 -0.0103,0.23719 -0.0516,0.46406 -0.0825,0.21656 -0.10313,0.46406 -0.0206,0.2475 -0.0206,0.495 l 0.0103,0.53625 -0.0309,0.71157 q 0.0412,0.0825 0.0516,0.165 0.0206,0.0825 0.0206,0.21656 0,0.20625 -0.0103,0.29906 0,0.0928 -0.0309,0.14438 l 0.0722,0.66 q -0.0412,0.165 -0.13406,0.34031 -0.0928,0.165 -0.14438,0.37125 0,0.11344 0.0516,0.20625 0.0516,0.0825 0.0722,0.22687 0.0412,0.40219 0.0412,0.77344 0.0103,0.37125 0.0309,0.77344 -0.0516,0.23719 -0.12375,0.42281 -0.0619,0.17531 -0.0619,0.36094 v 0.165 q 0.0103,0.21656 0.0309,0.40219 0.0206,0.17531 0.0412,0.35062 0.0309,0.17531 0.0516,0.37125 0.0206,0.18563 0.0412,0.43313 0,0.26812 -0.0309,0.46406 -0.0206,0.19594 -0.0412,0.47437 -0.0103,0.0619 -0.0309,0.17532 -0.0103,0.11343 -0.0309,0.23718 -0.0103,0.11344 -0.0206,0.21657 -0.0103,0.10312 -0.0103,0.14437 v 0.0103 q 0.0103,0.0516 0.0413,0.20625 0.0309,0.15469 0.0619,0.31969 0.0309,0.165 0.0619,0.30938 0.0309,0.14437 0.0309,0.18562 l 0.0722,0.15469 h 0.0206 q 0.0309,0 0.0412,0.0309 0.0103,0.0309 0.0309,0.0412 0.0412,0.0412 0.0516,0.0928 0.0103,0.0412 0.0412,0.0928 0.0412,0.0412 0.11344,0.0928 0.0825,0.0412 0.25781,0.0825 0.19594,0.12375 0.29907,0.12375 0.0309,0 0.0516,0 0.0206,0 0.0722,-0.0206 0.0825,0.0206 0.19593,0.0309 0.11344,0.0103 0.23719,0.0412 0.12375,0.0206 0.2475,0.0722 0.12375,0.0516 0.21656,0.14438 0.0516,0.0412 0.0619,0.11344 0.0103,0.0619 0.0103,0.17531 v 0.35062 q 0,0.0722 -0.0206,0.13407 -0.0206,0.0619 -0.0825,0.0825 -0.0825,-0.0206 -0.17532,-0.0206 -0.0825,0 -0.165,0 -0.0722,0 -0.15468,-0.0103 -0.0825,0 -0.20625,-0.0206 l -0.31969,-0.0412 q -0.0206,0 -0.0928,-0.0103 -0.0619,0 -0.14438,-0.0103 -0.0722,0 -0.14437,-0.0103 -0.0619,0 -0.0825,0 l -0.50532,-0.0309 q -0.0103,0 -0.0206,-0.0103 -0.0103,0 -0.0206,0 0,-0.0103 -0.0103,-0.0103 -0.22687,0.0103 -0.4125,0.0309 -0.17531,0.0206 -0.34031,0.0412 -0.15469,0.0309 -0.31969,0.0516 -0.15469,0.0309 -0.35062,0.0309 -0.23719,-0.0206 -0.51563,-0.0516 -0.26812,-0.0309 -0.50531,-0.0309 z"
         style="font-family:'IM FELL English';-inkscape-font-specification:'IM FELL English'"
         id="path82346" />
      <path
         d="m 301.80897,251.07561 q -0.12375,0 -0.19594,0.0412 -0.0619,0.0516 -0.13406,0.0516 -0.0412,0 -0.10313,-0.0412 -0.0516,-0.0413 -0.165,-0.10313 -0.0206,-0.0103 -0.0309,-0.0516 0,-0.0516 -0.0206,-0.11344 -0.0206,-0.0619 -0.0309,-0.15468 0,-0.0103 0.0206,-0.0516 0.0309,-0.0516 0.0619,-0.10312 0.0309,-0.0619 0.0619,-0.11344 0.0309,-0.0516 0.0516,-0.0722 l 0.19594,-0.11343 h 0.22687 q 0.23719,0 0.42281,-0.0309 0.19594,-0.0413 0.30938,-0.23719 0.0412,-0.35062 0.0619,-0.67031 0.0206,-0.31969 0.10313,-0.62906 l 0.12375,-0.48469 v -0.95906 l 0.0516,-0.92813 v -0.60844 q 0,-0.0206 -0.0206,-0.10312 -0.0206,-0.0928 -0.0412,-0.19594 -0.0206,-0.11344 -0.0412,-0.20625 -0.0206,-0.10312 -0.0206,-0.15469 v -0.97968 q -0.0412,-0.11344 -0.13406,-0.27844 -0.0928,-0.165 -0.18563,-0.23719 l -0.31968,-0.10312 q -0.17532,-0.12375 -0.31969,-0.26813 -0.13406,-0.14437 -0.21656,-0.36094 0,-0.11343 0.0516,-0.17531 0.0516,-0.0619 0.13406,-0.0928 0.0825,-0.0309 0.17531,-0.0516 0.0928,-0.0206 0.17532,-0.0412 l 0.76312,-0.39188 q 0.0928,-0.0412 0.15469,-0.0619 0.0722,-0.0309 0.13406,-0.0619 0.0619,-0.0309 0.11344,-0.0722 0.0619,-0.0412 0.13406,-0.12375 l 0.29906,-0.0206 q 0.0516,0 0.15469,0.0103 0.11344,0.0103 0.13406,0.0103 0.0309,0 0.10313,0.0103 0.0722,0.0103 0.15469,0.0309 0.0825,0.0206 0.15468,0.0412 0.0722,0.0206 0.10313,0.0309 0.0928,0.0412 0.11344,0.17531 0.0309,0.12375 0.0309,0.22688 v 0.33 l -0.0722,0.2475 q -0.0516,0.67031 -0.0516,1.32 0,0.64969 -0.0206,1.34062 l -0.0516,0.37125 q -0.0103,0.0103 -0.0206,0.0722 0,0.0619 0,0.14438 0,0.0825 0,0.165 0,0.0722 0,0.11343 0,0.0722 0,0.165 0,0.0928 0,0.17532 0,0.0825 0,0.14437 0.0103,0.0516 0.0206,0.0516 0,0.0309 0.0206,0.14438 0.0206,0.10312 0.0309,0.12375 v 0.21656 q 0,0.0309 -0.0103,0.165 -0.0103,0.13406 -0.0206,0.30938 -0.0103,0.165 -0.0206,0.33 0,0.15468 0,0.22687 0,0.0928 0.0103,0.29906 0.0206,0.19594 0.0412,0.42282 0.0309,0.22687 0.0516,0.43312 0.0206,0.19594 0.0206,0.27844 0,0.11344 0.11343,0.18562 0.12375,0.0619 0.19594,0.0825 0.0309,0 0.12375,0.0103 0.10313,0.0103 0.21656,0.0206 0.11344,0.0103 0.20625,0.0206 0.10313,0 0.14438,0 0.0722,0.0825 0.11344,0.17531 0.0516,0.0928 0.0516,0.23719 0,0.14437 -0.0309,0.27843 -0.0206,0.13407 -0.11344,0.18563 -0.12375,0.10312 -0.27843,0.11344 -0.14438,0.0206 -0.30938,0.0206 h -0.18562 l -0.2475,-0.10312 h -1.26844 q -0.0103,0 -0.13406,-0.0206 -0.12375,-0.0309 -0.165,-0.0309 h -0.28875 z m 0.29906,-13.66407 0.31969,-0.31968 0.34031,-0.26813 0.10312,-0.21656 q 0.12375,-0.0928 0.27844,-0.10313 0.15469,-0.0206 0.27844,-0.0206 h 0.10312 q 0.0103,0.0103 0.0619,0.0309 0.0516,0.0206 0.10312,0.0412 0.0516,0.0206 0.0928,0.0412 0.0516,0.0103 0.0722,0.0103 0.0412,0.0206 0.12375,0.0412 0.0928,0.0103 0.18563,0.0309 0.0928,0.0103 0.17531,0.0206 0.0825,0 0.11344,0 0.0413,0.0103 0.0928,0.12375 0.0516,0.11344 0.0825,0.25781 0.0412,0.13407 0.0619,0.26813 0.0309,0.12375 0.0309,0.165 0,0.25781 -0.0619,0.48469 -0.0516,0.21656 -0.25781,0.39187 -0.0103,0.0103 -0.0619,0.0309 -0.0412,0.0103 -0.0928,0.0309 -0.0516,0.0103 -0.10313,0.0309 -0.0412,0.0103 -0.0412,0.0103 -0.0103,0.0206 -0.0516,0.0722 -0.0412,0.0412 -0.0928,0.0928 -0.0516,0.0413 -0.10313,0.0825 -0.0516,0.0309 -0.0619,0.0412 -0.0619,0.0722 -0.18563,0.0825 -0.11343,0.0103 -0.21656,0.0103 h -0.40219 q -0.11343,0 -0.19593,-0.0103 -0.0825,-0.0206 -0.22688,-0.13407 -0.17531,-0.25781 -0.33,-0.47437 -0.15469,-0.21656 -0.15469,-0.54656 z"
         style="font-family:'IM FELL English';-inkscape-font-specification:'IM FELL English'"
         id="path82348" />
      <path
         d="m 307.55303,255.94311 q 0,-0.0928 0,-0.165 0.0103,-0.0722 0.0619,-0.18563 0.0516,-0.23719 0.21656,-0.39187 0.17531,-0.15469 0.52594,-0.25782 0.0309,-0.0103 0.10312,-0.0309 0.0722,-0.0103 0.14438,-0.0206 0.0722,-0.0103 0.12375,-0.0206 0.0619,0 0.0722,0 l 0.38157,0.0722 0.22687,-0.0722 q 0.0309,0 0.0928,-0.0103 0.0619,0 0.17532,0 0.18562,0 0.2475,-0.0103 0.0722,-0.0103 0.11343,-0.0619 0.0825,-0.12375 0.13407,-0.21657 0.0516,-0.0928 0.0825,-0.18562 0.0412,-0.0825 0.0619,-0.18563 0.0309,-0.0928 0.0619,-0.23718 0,-0.0103 0.0103,-0.0722 0.0103,-0.0516 0.0206,-0.12375 0.0103,-0.0722 0.0206,-0.13406 0.0103,-0.0619 0.0206,-0.0928 0,-0.0412 0.0516,-0.15468 0.0516,-0.11344 0.11343,-0.23719 0.0619,-0.12375 0.11344,-0.23719 0.0619,-0.10312 0.0928,-0.15469 l -0.0722,-0.43312 q 0.11343,-0.18563 0.17531,-0.34031 0.0619,-0.15469 0.0619,-0.37125 0,-0.0309 -0.0103,-0.0825 -0.0103,-0.0412 -0.0103,-0.0619 0,-0.0825 -0.0103,-0.20625 0,-0.11344 -0.0103,-0.21656 -0.0103,-0.11344 -0.0206,-0.19594 -0.0103,-0.0825 -0.0103,-0.0928 0,-0.0309 -0.0413,-0.12375 -0.0412,-0.10313 -0.0928,-0.21656 -0.0412,-0.11344 -0.0928,-0.21657 -0.0413,-0.10312 -0.0413,-0.14437 -0.0103,-0.0206 -0.0412,-0.12375 -0.0309,-0.10313 -0.0722,-0.21656 -0.0309,-0.12375 -0.0619,-0.22688 -0.0206,-0.10312 -0.0206,-0.12375 l -0.33,-0.55687 q 0,-0.0103 -0.0103,-0.0825 -0.0103,-0.0722 -0.0206,-0.15469 -0.0103,-0.0825 -0.0309,-0.15469 -0.0103,-0.0825 -0.0206,-0.10312 0,-0.0928 -0.0206,-0.22688 -0.0206,-0.14437 -0.0309,-0.14437 -0.0103,-0.0309 -0.0619,-0.0825 -0.0412,-0.0516 -0.10313,-0.10313 -0.0516,-0.0516 -0.10312,-0.0928 -0.0516,-0.0412 -0.0516,-0.0516 l -0.14437,-0.37125 -0.34031,-0.48469 -0.38157,-0.97969 q -0.0103,-0.0206 -0.0619,-0.11344 -0.0412,-0.10312 -0.0412,-0.11343 -0.0206,-0.0206 -0.0619,-0.0516 -0.0412,-0.0413 -0.0412,-0.0619 -0.0103,-0.0103 -0.0206,-0.0928 -0.0103,-0.0825 -0.0206,-0.17532 0,-0.0928 -0.0103,-0.165 0,-0.0825 0,-0.10312 -0.0412,-0.165 -0.12375,-0.35063 -0.0825,-0.19593 -0.17531,-0.38156 -0.0928,-0.19594 -0.19594,-0.38156 -0.0928,-0.18563 -0.165,-0.34031 0,-0.0206 -0.0206,-0.10313 -0.0206,-0.0928 -0.0412,-0.11344 0,-0.0309 -0.0516,-0.0825 -0.0412,-0.0619 -0.0928,-0.0825 -0.29906,-0.23718 -0.63937,-0.37125 -0.33,-0.13406 -0.69094,-0.30937 l -0.0928,-0.13406 q -0.0413,-0.0825 -0.12375,-0.12375 -0.0928,-0.0412 -0.0928,-0.11344 0,-0.36094 0.13407,-0.46406 0.12375,-0.10313 0.31968,-0.10313 0.15469,0 0.29907,0.0516 0.15468,0.0516 0.31968,0.14438 0.0309,0 0.12375,-0.0103 0.0928,-0.0103 0.21657,-0.0103 0.11343,0 0.21656,0.0103 0.11344,0.0103 0.15469,0.0103 l 0.26812,0.10312 h 0.26813 q 0.0103,0 0.0825,-0.0103 0.0825,-0.0206 0.165,-0.0309 0.0928,-0.0206 0.165,-0.0309 0.0722,-0.0206 0.0928,-0.0309 0.0619,-0.0309 0.165,-0.0516 0.11344,-0.0309 0.21656,-0.0516 0.10313,-0.0206 0.17531,-0.0309 0.0825,-0.0103 0.10313,-0.0103 h 0.46406 l 0.27844,-0.0516 q 0.0928,0 0.21656,0.0413 0.13406,0.0309 0.23719,0.0928 0.11344,0.0619 0.18562,0.14438 0.0825,0.0722 0.0825,0.14437 0,0.0825 -0.0206,0.2475 -0.0206,0.15469 -0.0928,0.23719 -0.165,0.17531 -0.35063,0.2475 -0.17531,0.0722 -0.25781,0.0928 l -0.17531,0.0516 q -0.0722,0.0309 -0.165,0.0206 -0.0825,-0.0206 -0.15469,0.0516 0.0103,0.0825 0.0412,0.20625 0.0309,0.11344 0.0722,0.22688 0.0412,0.11344 0.0722,0.20625 0.0309,0.0825 0.0309,0.0928 0.0103,0.10313 0.0516,0.18563 0.0516,0.0825 0.10313,0.165 0.0516,0.0825 0.10312,0.165 0.0516,0.0825 0.0825,0.17531 l 0.12375,0.66 q 0.0206,0.14437 0.10313,0.27844 0.0825,0.12375 0.17531,0.2475 0.0928,0.11343 0.18563,0.2475 0.0928,0.12375 0.12375,0.26812 0,0.0103 0,0.0928 0.0103,0.0825 0.0103,0.17532 0.0103,0.0928 0.0206,0.17531 0.0103,0.0825 0.0206,0.0928 0,0.0103 0.0619,0.10313 0.0619,0.0928 0.0825,0.10312 0.0103,0.0206 0.0516,0.11344 0.0412,0.0928 0.0722,0.12375 l 0.15469,0.31969 q 0.0206,0.0722 0.0722,0.18562 0.0516,0.10313 0.0928,0.10313 0.0722,0.11343 0.15469,0.165 0.0928,0.0413 0.165,0.0413 0.0516,0 0.14437,-0.0413 0.0928,-0.0516 0.14438,-0.165 0.0309,-0.0412 0.0722,-0.0825 0.0825,-0.0825 0.12375,-0.11344 l 0.0206,-0.0619 q 0.0103,-0.0206 0.0206,-0.0412 0.0103,-0.0206 0.0103,-0.0412 0.12375,-0.30937 0.23719,-0.62906 0.11343,-0.31969 0.22687,-0.67031 0,-0.0309 0.0206,-0.13406 0.0206,-0.11344 0.0722,-0.15469 0,-0.0103 0,-0.0619 0.0103,-0.0516 0.0103,-0.11343 0.0103,-0.0722 0.0206,-0.12375 0.0103,-0.0619 0.0206,-0.0722 l 0.15468,-0.43313 q 0.0103,-0.0103 0.0206,-0.0619 0.0103,-0.0516 0.0206,-0.10313 0.0103,-0.0619 0.0103,-0.10312 0.0103,-0.0516 0.0103,-0.0722 0.0309,-0.10312 0.0928,-0.20625 0.0722,-0.10312 0.13406,-0.19594 0.0619,-0.0928 0.11344,-0.18562 0.0516,-0.10313 0.0516,-0.21656 -0.0206,-0.0412 -0.0619,-0.11344 -0.0309,-0.0825 -0.0516,-0.0928 v -0.43313 q 0,-0.0206 -0.0825,-0.11344 -0.0722,-0.0928 -0.11344,-0.11343 -0.0412,-0.0206 -0.12375,-0.0516 -0.0722,-0.0412 -0.165,-0.0722 -0.0928,-0.0309 -0.18563,-0.0516 -0.0825,-0.0309 -0.13406,-0.0412 -0.10312,0 -0.15469,-0.0309 -0.0412,-0.0412 -0.0516,-0.0412 l -0.34031,-0.2475 q -0.0516,-0.14438 -0.0516,-0.23719 0,-0.13406 0.0516,-0.23719 0.0516,-0.11344 0.12375,-0.22687 0.13406,-0.0722 0.2475,-0.0928 0.12375,-0.0309 0.21656,-0.0309 0.0928,-0.0103 0.17531,-0.0206 0.0825,-0.0103 0.14438,-0.0516 l 0.2475,-0.0309 q 0.0206,0 0.11344,0.0103 0.10312,0 0.21656,0.0103 0.11344,0.0103 0.20625,0.0206 0.10312,0 0.12375,0.0103 l 0.34031,0.0722 q 0.23719,0 0.42281,-0.0722 0.19594,-0.0722 0.43313,-0.14437 h 0.23719 q 0,-0.0206 0.0928,-0.0309 0.0928,-0.0206 0.13406,-0.0206 0,-0.0206 0.0206,-0.0206 0.0309,0 0.0516,0 0.0928,0 0.2475,0.0413 0.165,0.0412 0.31969,0.11344 0.15468,0.0722 0.26812,0.165 0.11344,0.0928 0.11344,0.19594 0,0.12375 -0.0722,0.17531 -0.0722,0.0516 -0.14437,0.13406 l -0.39188,0.31969 q -0.12375,0.11344 -0.2475,0.17531 -0.12375,0.0516 -0.25781,0.0825 -0.12375,0.0309 -0.26813,0.0516 -0.14437,0.0206 -0.29906,0.0619 -0.17531,0.26812 -0.29906,0.54656 -0.11344,0.27844 -0.2475,0.54656 0,0.0516 -0.0206,0.13407 -0.0206,0.0722 -0.0412,0.0928 0,0.0103 -0.0103,0.0619 0,0.0413 -0.0103,0.10313 -0.0103,0.0516 -0.0206,0.10312 0,0.0516 -0.0103,0.0516 0,0.0206 -0.0412,0.0722 -0.0309,0.0516 -0.0722,0.12375 -0.0413,0.0619 -0.0825,0.12375 -0.0309,0.0516 -0.0309,0.0619 v 0.53625 q -0.0103,0.0103 -0.0412,0.0722 -0.0309,0.0516 -0.0722,0.12375 -0.0309,0.0619 -0.0722,0.11343 -0.0309,0.0516 -0.0516,0.0619 -0.14438,0.26812 -0.34031,0.5775 -0.19594,0.30937 -0.27844,0.63937 v 0.37125 q 0,0.0206 -0.0412,0.11344 -0.0309,0.0825 -0.0516,0.0825 -0.11344,0.21656 -0.14438,0.40219 -0.0309,0.18562 -0.12375,0.36094 l -0.29906,0.60843 q -0.0412,0.20625 -0.0516,0.42282 -0.0103,0.21656 -0.0103,0.44343 0,0.21657 -0.0103,0.43313 -0.0103,0.21656 -0.0412,0.43312 -0.0206,0.25782 -0.165,0.50532 -0.14437,0.2475 -0.25781,0.47437 -0.0206,0.0206 -0.0619,0.0516 -0.0309,0.0413 -0.0309,0.0516 -0.0412,0.0619 -0.0825,0.19593 -0.0206,0.0619 -0.0412,0.13407 -0.0103,0.0619 -0.0206,0.19593 -0.0103,0.13407 -0.0206,0.27844 0,0.14438 -0.0103,0.26813 0,0.13406 0,0.18562 -0.10312,0.0825 -0.15468,0.23719 -0.0412,0.15469 -0.0722,0.34031 -0.0206,0.18563 -0.0412,0.36094 -0.0103,0.18562 -0.0516,0.30937 l -0.28875,0.37125 q -0.0206,0.0206 -0.0412,0.13407 -0.0103,0.12375 -0.0103,0.15468 -0.0309,0.0309 -0.0722,0.10313 -0.0413,0.0619 -0.10313,0.17531 -0.0619,0.11344 -0.14437,0.30938 0,0.0103 -0.0206,0.0619 -0.0206,0.0619 -0.0516,0.12375 -0.0309,0.0722 -0.0619,0.13406 -0.0206,0.0619 -0.0309,0.0722 -0.0412,0.14438 -0.12375,0.18563 -0.0722,0.0412 -0.17532,0.13406 -0.0619,0.0516 -0.0928,0.0825 -0.0309,0.0412 -0.0516,0.0722 -0.0206,0.0309 -0.0516,0.0619 -0.0206,0.0412 -0.0722,0.10313 -0.14438,0.18562 -0.33,0.21656 -0.18563,0.0412 -0.39188,0.10313 l -0.20625,0.165 q -0.12375,0.0412 -0.23718,0.0412 -0.11344,0.0103 -0.21657,0.0103 -0.19593,0 -0.4125,-0.0722 -0.21656,-0.0619 -0.40218,-0.18562 -0.18563,-0.12375 -0.30938,-0.29907 -0.12375,-0.17531 -0.12375,-0.39187 z"
         style="font-family:'IM FELL English';-inkscape-font-specification:'IM FELL English'"
         id="path82350" />
      <path
         d="m 323.44459,250.02373 q -0.10312,0 -0.20625,0.0516 -0.0928,0.0412 -0.18562,0.11344 -0.0928,0.0722 -0.19594,0.14438 -0.0928,0.0722 -0.19594,0.11343 -0.0206,0.0206 -0.11344,0.0516 -0.0825,0.0206 -0.18562,0.0412 -0.10313,0.0309 -0.19594,0.0516 -0.0825,0.0206 -0.11344,0.0412 -0.0103,0 -0.0619,0.0412 -0.0412,0.0309 -0.0928,0.0825 -0.0516,0.0412 -0.10313,0.0928 -0.0413,0.0413 -0.0413,0.0516 -0.0206,0 -0.0516,0.0103 -0.0206,0.0103 -0.0412,0.0206 -0.0309,0.0103 -0.0516,0.0206 -0.165,0.0722 -0.33,0.0928 -0.165,0.0103 -0.30938,0.0103 -0.165,0 -0.31969,-0.0103 -0.15468,-0.0206 -0.28875,-0.0928 -0.37125,-0.14438 -0.66,-0.20625 -0.27843,-0.0619 -0.495,-0.165 -0.20625,-0.10313 -0.37125,-0.30938 -0.15468,-0.20625 -0.27843,-0.63937 0,-0.0722 0.0103,-0.23719 0.0103,-0.165 0.0103,-0.37125 0,-0.20625 -0.0103,-0.35063 -0.0103,-0.14437 -0.0103,-0.25781 0,-0.0103 -0.0206,-0.0722 -0.0103,-0.0619 -0.0309,-0.13406 -0.0206,-0.0825 -0.0413,-0.14437 -0.0206,-0.0619 -0.0309,-0.0722 v -0.0928 l 0.14437,-0.51563 q 0,-0.17531 -0.0722,-0.33 -0.0722,-0.15469 -0.0722,-0.30937 0,-0.165 0.0206,-0.29907 0.0206,-0.14437 0.10313,-0.25781 l -0.0722,-0.78375 v -1.92844 q -0.0206,-0.0722 -0.11344,-0.20625 -0.0825,-0.13406 -0.18562,-0.26812 -0.10313,-0.14438 -0.20625,-0.2475 -0.0928,-0.11344 -0.13407,-0.13406 -0.11343,-0.0619 -0.2475,-0.11344 -0.12375,-0.0619 -0.23718,-0.12375 -0.11344,-0.0722 -0.19594,-0.165 -0.0722,-0.0928 -0.0722,-0.23719 0,-0.17531 0.0516,-0.26812 0.0516,-0.10313 0.13407,-0.15469 0.0825,-0.0516 0.18562,-0.0619 0.11344,-0.0206 0.23719,-0.0206 h 0.4125 l 0.83531,0.0516 q 0.23719,0 0.43313,-0.0516 0.19593,-0.0516 0.40218,-0.0516 0.27844,0 0.46407,0.10312 0.19593,0.10313 0.30937,0.27844 0.12375,0.165 0.17531,0.38156 0.0516,0.21656 0.0516,0.45375 v 0.0309 q -0.0928,0.29906 -0.13407,0.59812 -0.0412,0.29907 -0.0619,0.59813 -0.0103,0.28875 -0.0206,0.59812 0,0.29907 -0.0309,0.61875 l -0.12375,0.95907 0.0722,0.28875 q 0,0.0825 -0.0206,0.12375 -0.0103,0.0412 -0.0309,0.0928 v 1.815 q 0,0.19594 0.0722,0.30937 0.0825,0.11344 0.18562,0.20625 0.10313,0.0825 0.21657,0.17532 0.11343,0.0825 0.18562,0.20625 0,0.0103 0.0103,0.10312 0.0206,0.0928 0.0412,0.0928 0.0516,0.0309 0.20625,0.0722 0.15469,0.0412 0.31969,0.0825 0.17531,0.0412 0.33,0.0722 0.165,0.0206 0.22688,0.0206 0.29906,0 0.53625,-0.0309 0.23718,-0.0413 0.40218,-0.14438 0.17532,-0.11344 0.28875,-0.28875 0.12375,-0.18562 0.18563,-0.48469 0,-0.0206 0.0206,-0.0516 0.0309,-0.0413 0.0516,-0.0516 0.17531,-0.26813 0.2475,-0.56719 0.0825,-0.30937 0.12375,-0.62906 l -0.15469,-0.68063 q 0,-0.10312 0.0412,-0.23718 0.0412,-0.13407 0.0928,-0.27844 0.0516,-0.14438 0.0928,-0.28875 0.0412,-0.14438 0.0412,-0.27844 0,-0.20625 -0.0309,-0.39187 -0.0206,-0.19594 -0.0619,-0.40219 -0.0206,-0.20625 -0.0619,-0.39188 -0.0412,-0.19593 -0.0412,-0.37125 v -0.75281 q -0.0619,-0.23719 -0.23719,-0.40219 -0.17531,-0.165 -0.40219,-0.28875 -0.22687,-0.12375 -0.47437,-0.21656 -0.2475,-0.0928 -0.46407,-0.19594 -0.20625,-0.11343 -0.34031,-0.23718 -0.13406,-0.13407 -0.13406,-0.31969 0,-0.0413 0,-0.0516 0.0103,-0.0206 0.0516,-0.0516 0.17531,-0.11343 0.29906,-0.20625 0.13407,-0.10312 0.2475,-0.17531 0.12375,-0.0722 0.2475,-0.11344 0.12375,-0.0413 0.28875,-0.0413 h 0.23719 l 0.825,0.31969 q 0.15469,0.0722 0.38156,0.10313 0.22688,0.0206 0.46407,0.0516 0.2475,0.0309 0.48468,0.0722 0.23719,0.0309 0.42282,0.12375 0.19593,0.0825 0.30937,0.23718 0.12375,0.14438 0.12375,0.38157 0,0.0206 0,0.10312 0,0.0722 -0.0103,0.0928 0,0.0103 -0.0309,0.0722 -0.0309,0.0516 -0.0722,0.11344 -0.0309,0.0619 -0.0619,0.12375 -0.0309,0.0516 -0.0309,0.0619 -0.0206,0.0825 -0.0722,0.2475 -0.0412,0.165 -0.0928,0.35063 -0.0412,0.17531 -0.0825,0.31969 -0.0309,0.14437 -0.0412,0.18562 v 0.80438 l -0.10312,0.4125 q 0,0.17531 0.0206,0.36093 0.0206,0.18563 0.0412,0.37125 0.0619,0.29907 0.0619,0.66 l -0.0206,0.19594 q -0.0206,0.0722 -0.0722,0.21656 -0.0412,0.14438 -0.0928,0.19594 v 0.63938 l 0.0722,1.19625 q 0,0.14437 -0.0412,0.22687 -0.0309,0.0722 -0.0309,0.18563 0,0.13406 0.0825,0.29906 0.0928,0.165 0.23719,0.165 0.11344,0 0.20625,-0.0309 0.10312,-0.0309 0.19594,-0.0619 0.0928,-0.0412 0.17531,-0.0722 0.0928,-0.0309 0.19594,-0.0309 0.20625,0 0.30937,0.14438 0.11344,0.13406 0.11344,0.29906 0,0.25781 -0.21656,0.39187 -0.20625,0.12375 -0.50532,0.19594 -0.28875,0.0619 -0.58781,0.12375 -0.29906,0.0516 -0.47437,0.17531 -0.42282,0.0309 -0.70125,0.0412 -0.27844,0.0206 -0.59813,0.0206 h -0.2475 q -0.0928,-0.12375 -0.13406,-0.30938 -0.0412,-0.19593 -0.0722,-0.38156 -0.0309,-0.18562 -0.0722,-0.31969 -0.0412,-0.13406 -0.13406,-0.13406 z"
         style="font-family:'IM FELL English';-inkscape-font-specification:'IM FELL English'"
         id="path82352" />
      <path
         d="m 329.87959,251.00342 q -0.27844,0.0722 -0.54656,0.0928 -0.26813,0.0309 -0.55688,0.0309 l -0.26812,0.0206 q -0.12375,0 -0.15469,-0.0412 -0.0722,-0.0928 -0.13406,-0.19593 -0.0619,-0.11344 -0.0619,-0.27844 0,-0.11344 0.0619,-0.21656 0.0619,-0.10313 0.13406,-0.14438 0.11344,-0.0412 0.20625,-0.0412 0.0928,-0.0103 0.18562,-0.0103 0.0928,0 0.17532,-0.0103 0.0825,-0.0206 0.17531,-0.0412 0.23719,-0.0928 0.37125,-0.20625 0.13406,-0.11344 0.20625,-0.23719 0.0722,-0.13406 0.0825,-0.26813 0.0206,-0.13406 0.0206,-0.26812 l -0.0309,-0.55688 q -0.0206,-0.0206 -0.0516,-0.0825 -0.0309,-0.0722 -0.0619,-0.0928 l -0.0516,-0.165 q 0,-0.10312 0.0825,-0.15469 0.0825,-0.0516 0.0825,-0.19593 l -0.0722,-0.50532 q 0,-0.165 0.0206,-0.33 0.0206,-0.17531 0.13407,-0.30937 v -0.71156 l -0.0825,-0.21657 0.13406,-0.43312 v -0.27844 q 0,-0.25781 -0.0412,-0.52594 -0.0412,-0.26812 -0.14438,-0.495 -0.0928,-0.23718 -0.26812,-0.43312 -0.165,-0.19594 -0.4125,-0.31969 l -0.50531,-0.26812 q -0.0825,-0.0206 -0.15469,-0.12375 -0.0722,-0.10313 -0.0928,-0.19594 0.0206,-0.0516 0.0722,-0.14438 0.0516,-0.0928 0.11344,-0.17531 0.0722,-0.0928 0.15469,-0.15469 0.0928,-0.0722 0.17531,-0.0722 h 0.51563 q 0.0103,0 0.0619,-0.0309 0.0516,-0.0309 0.10313,-0.0619 0.0516,-0.0413 0.10312,-0.0722 0.0516,-0.0412 0.0722,-0.0516 0.0103,-0.0103 0.0619,-0.0309 0.0206,-0.0103 0.0516,-0.0206 h 0.46406 q 0.0103,-0.0103 0.0412,-0.0413 0.0412,-0.0309 0.0928,-0.0722 0.0516,-0.0412 0.11344,-0.10312 0.0206,-0.0206 0.10312,-0.0206 0.0825,0 0.165,0 0.0412,0 0.12375,0.0206 0.0928,0.0103 0.17532,0.0516 0.0928,0.0413 0.15468,0.10313 0.0619,0.0516 0.0619,0.13406 0,0.0103 -0.0103,0.0103 0,0 0,0.0103 l -0.0103,0.0103 q 0,0.0206 -0.0412,0.13406 -0.0309,0.11344 -0.0412,0.13406 v 0.10313 q 0,0.0206 0.0309,0.0722 0.0309,0.0412 0.0619,0.0928 0.0309,0.0412 0.0516,0.0825 0.0309,0.0309 0.0309,0.0412 l 0.21656,0.37125 q 0.0206,0.0825 0.12375,0.10312 0.10313,0.0103 0.17531,0.0103 0.14438,0 0.26813,-0.11343 0.12375,-0.12375 0.21656,-0.20625 l 0.31969,-0.45375 0.0206,-0.0206 q 0.0309,-0.0309 0.0309,-0.0309 0.0206,0 0.11344,-0.0413 0.0928,-0.0412 0.12375,-0.0619 0.0103,-0.0103 0.0722,-0.0825 0.0619,-0.0722 0.13406,-0.15469 0.0722,-0.0825 0.13406,-0.14437 0.0619,-0.0722 0.0825,-0.0825 0.0103,-0.0103 0.0722,-0.0309 0.0722,-0.0206 0.14437,-0.0412 0.0825,-0.0206 0.14438,-0.0309 0.0722,-0.0206 0.0825,-0.0206 0.13406,-0.0516 0.20625,-0.10313 0.0722,-0.0516 0.13406,-0.0825 0.0722,-0.0412 0.165,-0.0619 0.0928,-0.0206 0.26813,-0.0206 h 0.20625 l 0.43312,0.21656 q 0.0103,0 0.0619,0.0103 0.0516,0 0.11343,0.0103 0.0619,0.0103 0.11344,0.0206 0.0516,0 0.0722,0.0103 0.0412,0 0.15469,0.0206 0.12375,0.0103 0.12375,0.0309 0.0206,0 0.11343,0.0619 0.0928,0.0516 0.12375,0.10313 0.0103,0 0.0516,-0.0309 0.0412,-0.0309 0.0722,-0.0309 0.14438,0.0516 0.27844,0.18563 0.13406,0.13406 0.21656,0.22687 0.0516,0.0619 0.12375,0.17532 0.0825,0.10312 0.15469,0.20625 0.0722,0.10312 0.12375,0.18562 0.0619,0.0722 0.0619,0.0722 0,0.0103 0.0103,0.10312 0.0206,0.0928 0.0412,0.22688 0.0206,0.12375 0.0413,0.25781 0.0206,0.13406 0.0309,0.21656 l -0.0722,1.09313 0.14437,0.92812 q 0,0.165 -0.0309,0.2475 -0.0309,0.0825 -0.0722,0.13407 -0.0413,0.0516 -0.0722,0.10312 -0.0309,0.0412 -0.0309,0.13406 0,0.14438 0.0516,0.2475 0.0619,0.10313 0.0825,0.21657 0,0.0206 0.0103,0.11343 0.0103,0.0928 0.0206,0.22688 0.0103,0.12375 0.0206,0.25781 0.0103,0.12375 0.0103,0.20625 v 0.83531 q -0.0722,0.14438 -0.0928,0.22688 -0.0206,0.0722 -0.0206,0.18562 l -0.0206,0.53625 0.0413,0.44344 q 0,0.0309 0.0103,0.0825 0.0206,0.0413 0.0412,0.0619 0.0722,0.0516 0.25781,0.0825 0.19594,0.0309 0.37125,0.15468 l 0.0825,0.0825 q 0.0309,0.14438 0.13407,0.2475 0.10312,0.10313 0.10312,0.21657 0,0.11343 -0.0309,0.22687 -0.0206,0.11344 -0.165,0.11344 h -0.0412 q -0.20625,0.0206 -0.38156,0.0309 -0.17531,0.0206 -0.38156,0.0206 -0.0928,0 -0.20625,-0.0103 -0.11344,0 -0.22688,-0.0206 -0.18562,-0.0206 -0.36093,-0.0309 -0.165,-0.0103 -0.33,-0.0103 -0.22688,0 -0.45375,0.0103 -0.21657,0.0103 -0.45375,0.0309 -0.0516,-0.0206 -0.13407,-0.0309 -0.0722,-0.0103 -0.15468,-0.0103 -0.14438,0 -0.27844,-0.0206 -0.13406,-0.0103 -0.25781,-0.0103 h -0.26813 q -0.14437,0 -0.19594,-0.13407 -0.0516,-0.13406 -0.0516,-0.36093 0,-0.14438 0.0825,-0.27844 0.0825,-0.13406 0.28875,-0.15469 l 0.68063,-0.0928 q 0.14437,-0.0103 0.165,-0.12375 0.0309,-0.12375 0.0516,-0.19594 l 0.0516,-0.10312 q 0.0722,-0.12375 0.10313,-0.19594 0.0309,-0.0825 0.0412,-0.14438 0.0206,-0.0722 0.0206,-0.15468 0.0103,-0.0825 0.0309,-0.21657 l 0.0516,-0.21656 -0.0516,-0.26812 v -0.58782 l -0.0722,-0.55687 0.12375,-0.47438 q -0.0206,-0.17531 -0.0309,-0.34031 0,-0.17531 0,-0.36094 0,-0.17531 0,-0.35062 0.0103,-0.18563 0.0309,-0.36094 0.0413,-0.0928 0.0413,-0.15469 0.0103,-0.0722 0.0103,-0.21656 -0.0103,-0.0206 -0.0928,-0.11344 -0.0825,-0.10312 -0.0825,-0.12375 -0.0206,-0.0309 -0.0516,-0.13406 -0.0206,-0.11344 -0.0516,-0.23719 -0.0206,-0.12375 -0.0412,-0.23718 -0.0206,-0.11344 -0.0309,-0.14438 -0.0103,-0.0103 -0.0619,-0.0619 -0.0412,-0.0516 -0.0928,-0.10313 -0.0516,-0.0516 -0.10312,-0.0928 -0.0413,-0.0516 -0.0516,-0.0619 0,-0.0103 -0.0206,-0.0928 -0.0206,-0.0825 -0.0516,-0.0825 -0.0206,-0.0309 -0.0516,-0.0825 -0.0309,-0.0619 -0.0516,-0.0825 -0.0309,-0.0103 -0.12375,-0.0309 -0.0928,-0.0309 -0.19594,-0.0516 -0.0928,-0.0206 -0.18562,-0.0412 -0.0825,-0.0206 -0.11344,-0.0309 h -0.13406 q -0.59813,0 -1.05188,0.165 -0.44343,0.15469 -0.88687,0.54657 -0.0412,0.0309 -0.11344,0.10312 -0.0722,0.0722 -0.14437,0.14438 -0.0722,0.0722 -0.13407,0.13406 -0.0516,0.0516 -0.0516,0.0619 -0.0103,0.0103 -0.0206,0.0722 -0.0103,0.0619 -0.0206,0.13406 -0.0103,0.0722 -0.0206,0.13407 0,0.0619 0,0.0722 -0.0412,0.14438 -0.0825,0.27844 -0.0412,0.13406 -0.0412,0.30938 0,0.29906 0.0309,0.51562 0.0412,0.21656 0.0412,0.48469 0,0.165 -0.0516,0.29906 -0.0516,0.12375 -0.0516,0.36094 l 0.10312,0.73219 -0.10312,0.51562 v 0.14438 q 0.0206,0.0206 0.0412,0.13406 0.0309,0.11344 0.0309,0.13406 v 0.66 l 0.0309,0.21656 q 0.0103,0.0309 0.0619,0.0825 0.0516,0.0412 0.11344,0.0928 0.0619,0.0413 0.11343,0.0825 0.0516,0.0309 0.0722,0.0412 0.0206,0.0206 0.0825,0.0516 0.0722,0.0206 0.15469,0.0516 0.0825,0.0206 0.15469,0.0412 0.0825,0.0206 0.12375,0.0309 0.0825,0.0413 0.14437,0.0516 0.0619,0.0103 0.11344,0.0206 0.0619,0 0.10312,0.0206 0.0516,0.0206 0.10313,0.0928 0.0309,0.0309 0.0722,0.0413 0.0412,0 0.0722,0.0206 0.0413,0.0103 0.0619,0.0413 0.0206,0.0309 0.0206,0.10312 l 0.0206,0.23719 q 0,0.0825 -0.0309,0.14438 -0.0309,0.0516 -0.14437,0.12375 -0.0928,0.0516 -0.15469,0.12375 -0.0516,0.0722 -0.165,0.0722 -0.11344,0 -0.22688,0.0413 -0.11343,0.0516 -0.165,0.0516 h -0.12375 q -0.43312,-0.0722 -0.9075,-0.165 -0.46406,-0.10313 -0.93844,-0.10313 z"
         style="font-family:'IM FELL English';-inkscape-font-specification:'IM FELL English'"
         id="path82354" />
      <path
         d="m 339.86209,249.61123 q 0,-0.61875 0.26813,-0.93844 0.26812,-0.33 0.91781,-0.33 0.21656,0 0.38156,0.0722 0.165,0.0722 0.34031,0.14438 0.22688,0.11343 0.34032,0.21656 0.12375,0.10312 0.17531,0.23719 0.0619,0.12375 0.0722,0.28875 0.0103,0.165 0.0103,0.40218 v 0.60844 q -0.0206,0.0825 -0.12375,0.21656 -0.0928,0.12375 -0.22688,0.2475 -0.12375,0.12375 -0.25781,0.21657 -0.13406,0.0825 -0.22687,0.0825 -0.36094,-0.0722 -0.67032,-0.165 -0.29906,-0.0928 -0.52593,-0.2475 -0.21657,-0.15469 -0.35063,-0.40219 -0.12375,-0.25781 -0.12375,-0.64969 z"
         style="font-family:'IM FELL English';-inkscape-font-specification:'IM FELL English'"
         id="path82356" />
      <path
         d="m 347.44178,251.02404 q -0.66,0 -1.20656,-0.2475 -0.54656,-0.25781 -0.89719,-0.84562 l -0.50531,-0.51563 q -0.0103,-0.0516 -0.0722,-0.19593 -0.0619,-0.14438 -0.13406,-0.30938 -0.0722,-0.165 -0.13406,-0.29906 -0.0619,-0.13406 -0.0619,-0.17531 v -0.55688 q -0.0206,-0.12375 -0.0722,-0.21656 -0.0412,-0.10313 -0.10312,-0.19594 -0.0516,-0.10312 -0.0928,-0.19594 -0.0413,-0.10312 -0.0413,-0.22687 l 0.0928,-1.26844 q 0,-0.0928 -0.0412,-0.19594 -0.0309,-0.10312 -0.0309,-0.21656 0,-0.14437 0.0309,-0.2475 0.0412,-0.10312 0.0825,-0.20625 0.0412,-0.10312 0.0722,-0.21656 0.0412,-0.12375 0.0412,-0.30938 l 0.72187,-0.92812 -0.0722,-0.15469 q 0.0309,-0.0412 0.0722,-0.0928 0.0309,-0.0412 0.0619,-0.0928 0.0413,-0.0516 0.0722,-0.10313 0.60844,-0.75281 1.41282,-1.19625 0.80437,-0.45375 1.76343,-0.71156 l 0.18563,-0.0516 q 0.55687,0 1.11375,0.10312 0.56719,0.10313 1.0725,0.28875 0.0722,0.17531 0.22687,0.22688 0.165,0.0412 0.30938,0.0412 0.0928,0.165 0.17531,0.28875 0.0825,0.12375 0.14438,0.2475 0.0619,0.12375 0.0928,0.26812 0.0412,0.13406 0.0412,0.31969 0,0.37125 -0.25781,0.62906 -0.25782,0.25781 -0.73219,0.25781 -0.0309,-0.0412 -0.0825,-0.10312 -0.0516,-0.0722 -0.11344,-0.13406 -0.0619,-0.0722 -0.11344,-0.12375 -0.0516,-0.0516 -0.0825,-0.0619 -0.0103,-0.0206 -0.10312,-0.0309 -0.0928,-0.0206 -0.10313,-0.0206 -0.2475,-0.11344 -0.38156,-0.35063 -0.12375,-0.2475 -0.26812,-0.48468 -0.13407,-0.2475 -0.34032,-0.43313 -0.19593,-0.18562 -0.59812,-0.18562 -0.29906,0 -0.54656,0.10312 -0.2475,0.0928 -0.47438,0.25781 -0.22687,0.15469 -0.43312,0.37125 -0.19594,0.20625 -0.40219,0.43313 -0.0412,0.0825 -0.13406,0.17531 -0.0928,0.0825 -0.12375,0.165 v 0.42281 l -0.0825,0.12375 q -0.165,0.33 -0.22688,0.62907 -0.0619,0.29906 -0.0619,0.68062 0,0.0619 0,0.15469 0,0.0825 0.0103,0.17531 0.0103,0.0825 0.0206,0.15469 0.0103,0.0619 0.0412,0.0619 0,0.0825 0,0.20625 0.0103,0.11344 0.0206,0.22688 0.0103,0.11344 0.0206,0.19594 0.0103,0.0825 0.0103,0.0825 l 0.0928,0.14437 v 0.28875 q 0,0.23719 0.0206,0.4125 0.0309,0.17531 0.0825,0.34031 0.0619,0.15469 0.13407,0.31969 0.0825,0.15469 0.17531,0.35063 0,0.0206 0.0825,0.14437 0.0825,0.11344 0.17531,0.25781 0.0928,0.13407 0.17531,0.25782 0.0825,0.11343 0.10313,0.14437 0.0825,0.0928 0.21656,0.11344 0.13406,0.0206 0.20625,0.0825 0.165,0.12375 0.26813,0.21656 0.11343,0.0825 0.21656,0.14438 0.11344,0.0619 0.23719,0.0928 0.12375,0.0309 0.33,0.0309 0.47437,0 0.96937,-0.19594 0.495,-0.19594 0.86625,-0.48469 0.0825,-0.0619 0.17531,-0.15469 0.10313,-0.10312 0.20625,-0.19593 0.10313,-0.0928 0.20625,-0.165 0.11344,-0.0722 0.21657,-0.0722 0.18562,0 0.2475,0.0722 0.0722,0.0722 0.0722,0.2475 v 0.12375 q -0.17531,0.58781 -0.55687,1.01062 -0.37125,0.42281 -0.86625,0.70125 -0.495,0.26813 -1.06219,0.40219 -0.56719,0.13406 -1.11375,0.13406 h -0.31969 l -0.18562,-0.15469 z"
         style="font-family:'IM FELL English';-inkscape-font-specification:'IM FELL English'"
         id="path82358" />
      <path
         d="m 353.2271,245.62029 q 0.14437,-0.54656 0.36093,-1.04156 0.21657,-0.50531 0.495,-1.03125 l 0.28875,-0.34031 0.12375,-0.21656 q 0.0309,-0.0516 0.0722,-0.0928 0.0309,-0.0412 0.0619,-0.0722 0.0309,-0.0413 0.0619,-0.0619 l 0.60844,-0.43312 q 0.0516,-0.0619 0.11344,-0.0825 0.0619,-0.0309 0.11343,-0.0412 0.0619,-0.0206 0.12375,-0.0309 0.0619,-0.0206 0.11344,-0.0722 l 0.19594,-0.19594 0.165,-0.0722 h 0.15469 l 0.55687,-0.21657 q 0.0412,-0.0206 0.11344,-0.0413 0.0825,-0.0206 0.165,-0.0412 0.0825,-0.0206 0.15469,-0.0309 0.0722,-0.0103 0.10312,-0.0103 h 1.05188 q 0.0928,-0.0413 0.15468,-0.0413 0.0722,-0.0103 0.11344,-0.0103 0.29906,0 0.59813,0.10313 0.29906,0.0928 0.59812,0.17531 h 0.39188 q 0.0206,0 0.0619,0.0412 0.0412,0.0309 0.0928,0.0825 l 0.11344,0.11344 q 0.25781,0.14437 0.50531,0.28875 0.2475,0.13406 0.495,0.29906 0.20625,0.165 0.31969,0.37125 0.12375,0.19594 0.27844,0.39187 0.0206,0.0206 0.0722,0.10313 0.0619,0.0722 0.12375,0.165 0.0619,0.0928 0.11343,0.18562 0.0619,0.0928 0.0825,0.14438 l 0.0619,0.12375 0.40219,1.32 q 0.0309,0.0619 0.0516,0.14437 0.0206,0.0825 0.0412,0.165 0.0206,0.0722 0.0309,0.14438 0.0103,0.0619 0.0103,0.0825 v 0.33 l -0.0619,0.25781 v 0.7425 l -0.53625,1.57781 q -0.20625,0.27844 -0.43312,0.5775 -0.22688,0.28875 -0.45375,0.54657 0,0.0103 -0.0412,0.0516 -0.0619,0.0825 -0.14438,0.17531 -0.0825,0.0928 -0.18562,0.17531 -0.0206,0.0206 -0.12375,0.0309 -0.0928,0.0103 -0.20625,0.0619 l -0.61875,0.36093 q -0.0206,0 -0.0928,0.0206 -0.0619,0.0103 -0.14438,0.0309 -0.0722,0.0103 -0.14437,0.0206 -0.0722,0.0103 -0.10313,0.0103 -0.18562,0.0413 -0.30937,0.11344 -0.11344,0.0722 -0.33,0.0722 l -1.05188,0.0309 q -0.0412,0 -0.17531,0 -0.13406,-0.0103 -0.28875,-0.0103 -0.15469,-0.0103 -0.29906,-0.0103 -0.14438,-0.0103 -0.21657,-0.0103 l -0.28875,-0.0619 -0.66,-0.0516 -0.10312,-0.0516 -1.02094,-0.71156 -0.2475,-0.11344 q -0.18562,-0.10313 -0.30937,-0.29906 -0.12375,-0.20625 -0.2475,-0.39188 -0.11344,-0.20625 -0.23719,-0.37125 -0.11344,-0.165 -0.22688,-0.30937 -0.0928,-0.165 -0.20625,-0.31969 -0.10312,-0.15469 -0.19593,-0.31969 -0.0825,-0.165 -0.14438,-0.33 -0.0619,-0.17531 -0.0619,-0.38156 l -0.0825,-0.80438 z m 2.12437,1.45407 q 0.0825,0.0928 0.11344,0.165 0.0413,0.0722 0.0516,0.13406 0.0206,0.0619 0.0206,0.13406 0.0103,0.0722 0.0309,0.17531 0.0825,0.34032 0.26813,0.71157 0.18562,0.37125 0.39187,0.62906 l 0.39188,0.37125 q 0.20625,0.25781 0.39187,0.51562 0.18563,0.2475 0.46407,0.36094 h 0.4125 q 0.22687,0 0.48468,-0.0516 0.25782,-0.0619 0.51563,-0.10313 0.14437,0 0.25781,-0.0103 0.11344,-0.0206 0.27844,-0.12375 l 0.12375,-0.13406 q 0.495,-0.26813 0.85594,-0.66 l 0.71156,-1.12406 -0.0309,-1.0725 q 0.0516,-0.0825 0.0619,-0.15469 0.0103,-0.0722 0.0103,-0.21656 0,-0.17532 -0.0825,-0.31969 -0.0825,-0.14438 -0.0825,-0.35063 l 0.0928,-0.39187 q -0.0309,-0.12375 -0.0619,-0.28875 -0.0309,-0.165 -0.0722,-0.33 -0.0309,-0.17531 -0.0825,-0.31969 -0.0412,-0.15469 -0.11344,-0.2475 l -0.52594,-0.60844 q -0.0309,-0.0206 -0.0825,-0.0928 -0.0412,-0.0722 -0.0928,-0.165 -0.0412,-0.0928 -0.0825,-0.17531 -0.0309,-0.0825 -0.0309,-0.12375 l -0.30937,-0.21656 q -0.18563,-0.20625 -0.37125,-0.35063 -0.18563,-0.15469 -0.44344,-0.19594 l -0.50531,-0.0619 q -0.26813,-0.0412 -0.47438,-0.0928 -0.20625,-0.0619 -0.46406,-0.0619 h -0.0722 l -0.62906,0.37125 -1.00031,1.16531 q -0.0412,0.11344 -0.0722,0.20625 -0.0309,0.0928 -0.0309,0.18563 l -0.0516,0.31969 -0.165,0.42281 v 0.26812 q 0,0.14438 0.0412,0.26813 0.0516,0.12375 0.0516,0.28875 0,0.0825 -0.0103,0.13406 -0.0103,0.0412 -0.0825,0.0928 z"
         style="font-family:'IM FELL English';-inkscape-font-specification:'IM FELL English'"
         id="path82360" />
      <path
         d="m 364.46772,250.63217 q 0,-0.14438 0.0103,-0.19594 0.0103,-0.0619 0.0722,-0.0928 0.0516,-0.0206 0.14437,-0.0206 0.10313,0 0.19594,0 0.0516,0 0.12375,-0.0309 0.0722,-0.0413 0.0928,-0.0516 0.0206,-0.0206 0.0619,-0.0412 0.0516,-0.0309 0.11343,-0.0516 0.22688,-0.0412 0.31969,-0.0412 0.0928,-0.0103 0.14438,-0.15469 0.0206,-0.27843 0.0412,-0.5775 0.0309,-0.30937 0.0309,-0.5775 0,-0.34031 -0.0206,-0.64968 -0.0206,-0.31969 -0.0516,-0.60844 l 0.0412,-0.19594 v -0.72187 q 0,-0.2475 0.0206,-0.48469 0.0309,-0.2475 0.15469,-0.48469 l -0.0722,-1.53656 q -0.0103,-0.0206 -0.0206,-0.0722 -0.0103,-0.0619 -0.0206,-0.12375 -0.0103,-0.0619 -0.0206,-0.11344 -0.0103,-0.0516 -0.0103,-0.0619 -0.0516,-0.0516 -0.0722,-0.0516 0,-0.0206 -0.0516,-0.0516 -0.0412,-0.0309 -0.10312,-0.0619 -0.0516,-0.0412 -0.10313,-0.0619 -0.0516,-0.0309 -0.0619,-0.0412 -0.0103,0 -0.0516,-0.0309 -0.0309,-0.0309 -0.0722,-0.0619 -0.0412,-0.0412 -0.0825,-0.0722 -0.0309,-0.0413 -0.0412,-0.0516 -0.11344,-0.0309 -0.20625,-0.0413 -0.0928,-0.0103 -0.17531,-0.0206 -0.0722,-0.0206 -0.14438,-0.0619 -0.0722,-0.0413 -0.13406,-0.14437 0.0206,-0.0206 0.0103,-0.13407 0,-0.12375 0.0825,-0.23718 0.0928,-0.0722 0.19594,-0.0928 0.10312,-0.0206 0.20625,-0.0516 0.0928,-0.0206 0.17531,-0.0412 0.0928,-0.0309 0.18563,-0.10312 0.0103,0 0.0619,-0.0309 0.0516,-0.0309 0.10313,-0.0722 0.0516,-0.0413 0.0928,-0.0722 0.0516,-0.0309 0.0619,-0.0309 l 0.51563,-0.21657 q 0.0103,-0.0103 0.0516,-0.0516 0.0516,-0.0516 0.10313,-0.0928 0.0516,-0.0516 0.0928,-0.0928 0.0412,-0.0413 0.0619,-0.0516 h 0.27844 q 0.20625,0 0.31969,0.0206 0.12375,0.0206 0.17531,0.0722 0.0619,0.0516 0.0722,0.15468 0.0206,0.10313 0.0206,0.26813 v 0.19594 q 0.0103,0.0928 0.0206,0.20625 0.0206,0.11343 0.0619,0.21656 0.0412,0.0928 0.11344,0.165 0.0825,0.0722 0.20625,0.0722 0.0103,-0.0206 0.0619,-0.0619 0.0516,-0.0516 0.11343,-0.10312 0.0619,-0.0619 0.11344,-0.10313 0.0516,-0.0412 0.0619,-0.0516 l 0.39187,-0.12375 q 0.0206,0 0.0516,-0.0103 0.0412,-0.0206 0.0619,-0.0412 0.0206,-0.0103 0.13406,-0.10313 0.11344,-0.0928 0.2475,-0.19594 0.13406,-0.10312 0.25781,-0.18562 0.12375,-0.0928 0.17532,-0.10313 0.0103,-0.0103 0.0722,-0.0413 0.0722,-0.0309 0.165,-0.0619 0.0928,-0.0412 0.17532,-0.0722 0.0825,-0.0309 0.12375,-0.0413 h 0.165 q 0.15468,-0.0412 0.29906,-0.15469 0.15469,-0.11343 0.34031,-0.11343 h 0.12375 l 0.28875,0.14437 q 0.0103,0.0103 0.0722,0.0206 0.0619,0.0103 0.13406,0.0206 0.0825,0 0.15469,0.0103 0.0722,0 0.10312,0 0.29907,0.0928 0.47438,0.2475 0.18562,0.14438 0.33,0.4125 0.0825,0.11344 0.12375,0.23719 0.0516,0.12375 0.10312,0.22688 0.0516,0.10312 0.13407,0.17531 0.0928,0.0722 0.25781,0.0722 0.0309,0 0.0722,0 0.0516,-0.0103 0.10312,-0.0516 l 0.66,-0.66 0.34031,-0.15468 0.36094,-0.43313 0.4125,-0.12375 q 0.33,-0.0928 0.63938,-0.14437 0.30937,-0.0516 0.60843,-0.0516 h 0.22688 q 0.165,0 0.29906,0.0309 0.14438,0.0206 0.33,0.11344 0.0103,0.0103 0.10313,0.0928 0.0928,0.0825 0.11343,0.0825 0,0.0103 0.0516,0.0309 0.0619,0.0206 0.12375,0.0516 0.0619,0.0309 0.11343,0.0516 0.0619,0.0206 0.0825,0.0309 0.0206,0 0.0413,0.0206 0.0309,0.0103 0.0309,0.0309 0.0103,0.0103 0.0309,0.0722 0.0309,0.0516 0.0619,0.12375 0.0412,0.0619 0.0722,0.13406 0.0309,0.0619 0.0516,0.0928 0.0619,0.23718 0.19594,0.495 0.14438,0.2475 0.17531,0.48468 v 0.38157 l 0.0928,0.22687 v 0.26813 q 0,0.44343 -0.0413,0.9075 -0.0309,0.45375 -0.0722,0.89718 l 0.0722,0.75282 v 0.13406 l -0.0516,0.18562 v 0.58782 q -0.0103,0.0516 -0.0206,0.21656 -0.0103,0.15469 -0.0206,0.33 0,0.165 -0.0103,0.30937 0,0.14438 0,0.17532 l -0.0206,0.23718 q 0,0.11344 0.0103,0.30938 0.0206,0.19594 0.0619,0.27844 0.0206,0.0413 0.0825,0.13406 0.0619,0.0928 0.34032,0.23719 0.165,0.0825 0.25781,0.15468 0.10312,0.0619 0.165,0.12375 0.0722,0.0516 0.11344,0.0928 0.0516,0.0309 0.11343,0.0619 0.10313,0.0619 0.10313,0.22688 0,0.21656 -0.0928,0.31968 -0.0412,0.0825 -0.0722,0.10313 -0.0206,0.0103 -0.0516,0.0103 h -0.10313 q -0.0206,0 -0.0412,0.0103 -0.0206,0 -0.0619,0 l -1.11375,-0.13406 -0.29907,0.0103 h -1.03125 q -0.0516,0 -0.17531,0.0619 -0.12375,0.0516 -0.165,0.0516 l -0.46406,-0.11344 h -0.19594 q -0.11344,0 -0.12375,-0.0516 l -0.0206,-0.34031 q 0,-0.18563 0.12375,-0.25781 0.12375,-0.0825 0.22687,-0.20625 0.14438,-0.18563 0.27844,-0.33 0.14437,-0.14438 0.35062,-0.23719 l 0.19594,-0.26813 -0.14437,-0.92812 0.165,-0.66 -0.0412,-0.56719 q -0.0103,-0.0516 -0.0103,-0.0825 0,-0.0412 0,-0.0825 0,-0.0516 0,-0.0825 0.0103,-0.0309 0.0516,-0.0825 -0.11344,-0.62906 -0.11344,-1.29937 v -0.39188 q 0.0825,-0.11344 0.0928,-0.17531 0.0206,-0.0619 0.0206,-0.14438 v -0.14437 l -0.18563,-1.00031 q -0.0103,0 -0.0309,-0.0103 -0.0206,-0.0206 -0.0206,-0.0412 -0.0206,0 -0.0722,-0.0206 -0.0413,-0.0206 -0.0928,-0.0516 -0.0412,-0.0309 -0.0825,-0.0516 -0.0412,-0.0309 -0.0516,-0.0412 l -0.26813,-0.20625 q -0.0825,-0.11343 -0.22687,-0.13406 -0.14438,-0.0309 -0.30938,-0.0309 h -0.2475 q -0.18562,0 -0.30937,0.0103 -0.11344,0 -0.31969,0.0412 -0.19594,0.0928 -0.27844,0.19593 -0.0825,0.0516 -0.165,0.11344 -0.0825,0.0516 -0.165,0.10313 -0.0103,0.0206 -0.11344,0.0516 -0.10312,0.0206 -0.13406,0.0206 -0.23719,0.0825 -0.36094,0.22688 -0.11343,0.14437 -0.22687,0.36094 -0.0103,0.0206 -0.0516,0.0825 -0.0413,0.0619 -0.0928,0.14437 -0.0516,0.0722 -0.0928,0.14438 -0.0413,0.0619 -0.0516,0.0928 v 0.19594 q 0.0103,0.0309 0.0206,0.20625 0.0103,0.165 0.0206,0.37125 0.0103,0.19593 0.0103,0.38156 0.0103,0.17531 0.0103,0.21656 v 0.23719 l 0.17532,0.34031 v 0.10313 q 0,0.165 -0.0413,0.33 -0.0309,0.165 -0.0309,0.33 l 0.0722,0.48468 q 0,0.25782 -0.0413,0.495 -0.0412,0.23719 -0.0722,0.51563 0,0.0206 -0.0103,0.14437 0,0.11344 0,0.19594 0,0.0309 0.0103,0.0928 0.0206,0.0516 0.0309,0.12375 0.0103,0.0619 0.0206,0.12375 0.0206,0.0516 0.0206,0.0722 0.0206,0.0722 0.0413,0.10313 0.0206,0.0206 0.0309,0.0309 0.0206,0.0103 0.0412,0.0309 0.0206,0.0103 0.0516,0.0722 0,0 0.0309,0.0412 0.0309,0.0413 0.0619,0.0928 0.0412,0.0412 0.0722,0.0825 0.0412,0.0413 0.0516,0.0619 0.0412,0.0206 0.17531,0.0516 0.14438,0.0309 0.29906,0.0722 0.165,0.0413 0.31969,0.10312 0.15469,0.0516 0.21656,0.11344 0.0825,0.0412 0.0928,0.0825 0.0206,0.0309 0.0206,0.0825 v 0.20625 q 0,0.0516 -0.0206,0.11344 -0.0103,0.0516 -0.0928,0.12375 -0.13406,0.0722 -0.39187,0.11343 -0.25781,0.0309 -0.42281,0.0309 -0.14438,0 -0.25782,-0.0103 -0.10312,-0.0103 -0.18562,-0.0103 h -0.33 l -0.29906,-0.0516 q -0.0722,-0.0206 -0.14438,-0.0309 -0.0619,-0.0103 -0.17531,-0.0103 -0.11344,0 -0.23719,0 -0.11344,0 -0.22687,0.0206 l -0.34032,0.0206 q -0.11343,0.0309 -0.18562,0.0516 -0.0722,0.0103 -0.14438,0.0206 -0.0619,0.0206 -0.13406,0.0206 -0.0722,0.0103 -0.17531,0.0103 -0.0516,0 -0.17531,-0.0206 -0.12375,-0.0206 -0.25782,-0.0516 -0.12375,-0.0309 -0.23718,-0.0825 -0.10313,-0.0516 -0.13407,-0.11344 -0.0722,-0.0722 -0.0722,-0.15468 0,-0.0309 0.0103,-0.0516 0.0103,-0.0309 0.0103,-0.0928 0.0103,-0.165 0.0619,-0.20625 0.0619,-0.0516 0.13406,-0.10312 0.0722,-0.0619 0.25781,-0.0722 0.18563,-0.0103 0.37125,-0.0516 0.19594,-0.0412 0.34031,-0.15469 0.15469,-0.11344 0.15469,-0.39188 l 0.0103,-0.26812 -0.10312,-0.4125 0.10312,-1.22719 -0.12375,-1.2375 q 0,-0.22687 0.0825,-0.4125 0.0825,-0.18562 0.0825,-0.39187 l -0.21656,-0.35063 v -0.12375 l 0.0722,-0.25781 v -0.51563 q 0,-0.47437 -0.10313,-0.76312 -0.0928,-0.28875 -0.29906,-0.44344 -0.19594,-0.15469 -0.52594,-0.20625 -0.31968,-0.0516 -0.76312,-0.0516 -0.0825,0 -0.19594,0.0103 -0.10312,0.0103 -0.14437,0.0103 l -0.78375,0.31969 q -0.14438,0.0412 -0.2475,0.0722 -0.0928,0.0309 -0.20625,0.14437 -0.0619,0.0516 -0.13407,0.15469 -0.0722,0.10313 -0.13406,0.23719 -0.0619,0.12375 -0.11344,0.25781 -0.0413,0.12375 -0.0413,0.20625 0,0.0516 0.0103,0.0928 0.0206,0.0309 0.0412,0.10313 v 0.70125 l 0.12375,0.37125 v 0.76312 q 0,0.0206 0.0206,0.10313 0.0309,0.0825 0.0516,0.0928 v 0.18563 q -0.0206,0.0103 -0.0516,0.12375 -0.0206,0.11343 -0.0206,0.14437 v 0.58781 l -0.12375,0.92813 q 0,0.0103 -0.0103,0.10312 0,0.0928 -0.0103,0.20625 -0.0103,0.11344 -0.0206,0.21657 0,0.10312 -0.0103,0.14437 0,0.14438 0.0309,0.2475 0.0412,0.0928 0.10313,0.17531 0.0722,0.0722 0.165,0.13407 0.0928,0.0619 0.19593,0.14437 0.0516,0.0412 0.12375,0.0722 0.0722,0.0309 0.165,0.0309 l 0.23719,0.14437 q 0.10313,0 0.18563,0.0206 0.0825,0.0206 0.13406,0.0825 0.0516,0.0722 0.0619,0.11343 0.0103,0.0413 0.0206,0.10313 v 0.14437 q 0,0.0825 -0.0103,0.165 -0.0103,0.0722 -0.0722,0.12375 -0.14438,0.13407 -0.39188,0.15469 -0.2475,0.0206 -0.43312,0.0206 l -0.69094,-0.0309 h -1.21687 l -1.0725,0.0619 q -0.0206,0 -0.0619,-0.0103 -0.0309,0 -0.0619,-0.0206 -0.0206,-0.0206 -0.12375,-0.0206 -0.10313,-0.0103 -0.14438,-0.0309 -0.0722,-0.0516 -0.0928,-0.165 -0.0103,-0.11343 -0.0103,-0.22687 z"
         style="font-family:'IM FELL English';-inkscape-font-specification:'IM FELL English'"
         id="path82362" />
    </g>
  </g>
</svg>
