<?xml version="1.0" encoding="UTF-8" standalone="no"?>
<!-- Created with Inkscape (http://www.inkscape.org/) -->

<svg
   width="131.48964mm"
   height="17.140039mm"
   viewBox="0 0 496.96873 64.781252"
   version="1.1"
   id="svg5"
   inkscape:version="1.1.2 (0a00cf5339, 2022-02-04)"
   sodipodi:docname="email.svg"
   xmlns:inkscape="http://www.inkscape.org/namespaces/inkscape"
   xmlns:sodipodi="http://sodipodi.sourceforge.net/DTD/sodipodi-0.dtd"
   xmlns="http://www.w3.org/2000/svg"
   xmlns:svg="http://www.w3.org/2000/svg">
  <sodipodi:namedview
     id="namedview7"
     pagecolor="#ffffff"
     bordercolor="#666666"
     borderopacity="1.0"
     inkscape:pageshadow="2"
     inkscape:pageopacity="0.0"
     inkscape:pagecheckerboard="0"
     inkscape:document-units="mm"
     showgrid="false"
     inkscape:zoom="0.58974467"
     inkscape:cx="181.43445"
     inkscape:cy="354.39066"
     inkscape:window-width="2478"
     inkscape:window-height="1651"
     inkscape:window-x="0"
     inkscape:window-y="0"
     inkscape:window-maximized="1"
     inkscape:current-layer="layer1" />
  <defs
     id="defs2">
    <rect
       x="219.01837"
       y="249.1861"
       width="148.41898"
       height="116.50581"
       id="rect7702" />
    <rect
       x="-217.94958"
       y="-45.78894"
       width="719.78058"
       height="229.2377"
       id="rect5210" />
    <rect
       x="-631.75757"
       y="-261.38974"
       width="1207.608"
       height="647.85999"
       id="rect4742" />
  </defs>
  <g
     inkscape:label="Layer 1"
     inkscape:groupmode="layer"
     id="layer1"
     transform="translate(-215.57584,-204.41936)">
    <text
       xml:space="preserve"
       id="text4740"
       style="font-size:64px;line-height:1.25;font-family:sans-serif;white-space:pre;shape-inside:url(#rect4742)" />
    <text
       xml:space="preserve"
       id="text5208"
       style="font-size:64px;line-height:1.25;font-family:sans-serif;white-space:pre;shape-inside:url(#rect5210)" />
    <text
       xml:space="preserve"
       id="text7700"
       style="font-size:64px;line-height:1.25;font-family:sans-serif;white-space:pre;shape-inside:url(#rect7702)" />
    <g
       aria-label="kxygk@aliyun.com"
       id="text9270"
       style="font-size:64px;line-height:1.25">
      <path
         d="m 215.60709,250.85686 q -0.0312,-0.0625 -0.0312,-0.1875 0,-0.15625 0,-0.28125 l 0.0312,-0.65625 q 0,-0.28125 0.21875,-0.34375 0.25,-0.0625 0.5,-0.21875 0.28125,-0.34375 0.6875,-0.375 0.4375,-0.0625 0.71875,-0.21875 0.84375,-0.34375 1.71875,-0.6875 0.875,-0.375 1.40625,-1.3125 0.0937,-0.125 0.25,-0.5 0.1875,-0.375 0.34375,-0.8125 0.15625,-0.46875 0.28125,-0.90625 0.125,-0.4375 0.15625,-0.625 0.0625,-0.0937 0.0625,-0.25 0,-0.1875 0,-0.25 l -0.71875,-3.40625 q 0,-0.40625 0.28125,-0.75 0.28125,-0.34375 0.28125,-0.71875 l -0.375,-1.4375 q 0,-0.4375 0,-1.0625 0.0312,-0.625 0.0625,-1.25 0.0625,-0.65625 0.1875,-1.1875 0.125,-0.5625 0.34375,-0.84375 0.0625,-0.90625 0.0937,-1.71875 0.0625,-0.8125 0.0625,-1.6875 0,-0.6875 -0.0625,-1.34375 -0.0312,-0.6875 -0.0937,-1.40625 0.15625,-0.25 0.1875,-0.5625 0.0625,-0.34375 0.0625,-0.625 v -0.5 l -0.21875,-2.25 q 0,-0.28125 0.125,-0.40625 0.15625,-0.15625 0.3125,-0.25 0.15625,-0.125 0.28125,-0.21875 0.15625,-0.125 0.15625,-0.3125 l -0.875,-1.78125 0.5,-3.5625 q 0,-0.59375 -0.15625,-1.15625 -0.125,-0.59375 -0.125,-1.28125 l 0.15625,-1.25 q 0,-0.5 -0.46875,-1.03125 -0.4375,-0.5625 -0.75,-0.96875 l -2.125,-2.125 q -0.0625,0 -0.1875,-0.0625 -0.125,-0.0937 -0.125,-0.15625 -0.0312,-0.0625 -0.0312,-0.0937 -0.0312,-0.0312 -0.0312,-0.0937 0,-0.4375 0.0625,-0.8125 0.0625,-0.375 0.3125,-0.5 0.15625,-0.15625 0.40625,-0.1875 0.28125,-0.0312 0.625,-0.0312 h 0.53125 q 0.4375,0 0.59375,-0.0625 0.875,-0.1875 1.75,-0.59375 0.875,-0.40625 1.875,-0.40625 0.3125,0 0.75,0.125 0.46875,0.125 0.90625,0.3125 0.4375,0.1875 0.75,0.46875 0.3125,0.25 0.3125,0.53125 0,0.375 -0.1875,0.6875 -0.15625,0.28125 -0.15625,0.625 l 0.5,3.4375 q 0,0.4375 -0.0312,0.65625 -0.0312,0.21875 -0.1875,0.65625 v 2.96875 q 0,0.3125 0,0.8125 0.0312,0.5 0.0312,1 0,0.46875 0,0.84375 0.0312,0.34375 0.0312,0.375 l 0.15625,2.15625 -0.21875,0.9375 q 0,0.53125 0.0937,1 0.125,0.46875 0.125,1 0,0.625 -0.25,1.0625 -0.25,0.4375 -0.25,0.875 l 0.34375,1.125 q 0,0.21875 -0.15625,0.4375 -0.125,0.1875 -0.28125,0.40625 -0.15625,0.21875 -0.3125,0.4375 -0.125,0.21875 -0.125,0.46875 l 0.125,1.1875 -0.125,0.90625 q 0,0.34375 0.25,0.71875 0.28125,0.375 0.78125,0.375 h 0.15625 q 0.28125,-0.0312 0.5625,-0.21875 0.3125,-0.21875 0.5625,-0.46875 0.28125,-0.25 0.5,-0.46875 0.21875,-0.21875 0.375,-0.3125 0.8125,-0.4375 1.375,-0.65625 0.59375,-0.25 1.0625,-0.5 0.5,-0.28125 0.9375,-0.6875 0.46875,-0.4375 1.0625,-1.28125 0.15625,-0.28125 0.25,-0.4375 0.125,-0.15625 0.1875,-0.25 0.0937,-0.0937 0.125,-0.1875 0.0312,-0.0937 0.0312,-0.28125 0,-0.34375 -0.21875,-0.59375 -0.1875,-0.25 -0.4375,-0.5 -0.21875,-0.25 -0.40625,-0.53125 -0.1875,-0.28125 -0.1875,-0.6875 v -0.375 q 0,-0.125 0.0312,-0.25 0.0625,-0.125 0.3125,-0.25 0.4375,-0.0625 0.875,-0.0937 0.4375,-0.0625 0.78125,-0.0625 0.53125,0.0625 1.03125,0.125 0.5,0.0312 0.96875,0.0312 0.25,0 0.4375,0 0.21875,0 0.4375,-0.0625 l 2.5,-0.0937 q 0.0312,0 0.15625,-0.0312 0.15625,-0.0312 0.3125,-0.0625 0.15625,-0.0625 0.28125,-0.0937 0.125,-0.0312 0.15625,-0.0312 h 2.8125 q 0.34375,0.28125 0.625,0.59375 0.28125,0.3125 0.28125,0.65625 0,0.3125 -0.3125,0.625 -0.3125,0.28125 -0.8125,0.5625 -0.5,0.25 -1.125,0.46875 -0.59375,0.21875 -1.15625,0.40625 -0.5625,0.1875 -1.03125,0.34375 -0.46875,0.125 -0.6875,0.1875 -0.90625,0.40625 -1.5,0.6875 -0.59375,0.25 -1.40625,0.65625 -0.25,0.34375 -0.375,0.65625 -0.0937,0.3125 -0.5,0.65625 -0.15625,0.0937 -0.5625,0.25 -0.375,0.15625 -0.8125,0.375 -0.40625,0.21875 -0.75,0.53125 -0.3125,0.28125 -0.3125,0.625 0,0.25 0,0.65625 0.0312,0.40625 0.0937,0.84375 0.0625,0.4375 0.1875,0.84375 0.125,0.40625 0.3125,0.6875 0.6875,0.90625 1.4375,1.59375 0.75,0.65625 1.28125,1.59375 0.1875,0.21875 0.21875,0.34375 0.0625,0.0937 0.0625,0.1875 0.0312,0.0937 0.0625,0.25 0.0312,0.125 0.1875,0.40625 0.0937,0.34375 0.34375,0.5625 0.28125,0.1875 0.5625,0.375 0.3125,0.1875 0.59375,0.40625 0.3125,0.1875 0.5,0.5 0.78125,1.8125 2.15625,3.5625 1.375,1.71875 2.8125,3.03125 0.28125,0.21875 0.9375,0.46875 0.6875,0.25 1.4375,0.5625 0.78125,0.28125 1.5,0.59375 0.71875,0.3125 1.09375,0.6875 0.0937,0.0937 0.0937,0.21875 0.0312,0.125 0.0312,0.28125 v 0.625 q 0,0.3125 -0.1875,0.5625 -0.15625,0.25 -0.40625,0.3125 h -2.59375 l -3.84375,-0.53125 q -0.0312,0 -0.0625,0.0312 -0.0312,0 -0.0625,0 -0.0625,0.0312 -0.0937,0.0312 -2.0625,0.625 -3.9375,0.625 l -1.75,0.0625 q -0.5,0 -0.96875,-0.0625 -0.4375,-0.0625 -0.65625,-0.21875 -0.34375,-0.34375 -0.40625,-0.65625 -0.0625,-0.34375 -0.0625,-0.78125 v -0.59375 q 0,-0.3125 0.375,-0.46875 0.375,-0.1875 0.84375,-0.375 0.46875,-0.1875 0.84375,-0.46875 0.375,-0.28125 0.375,-0.8125 0,-0.375 -0.21875,-0.59375 -0.21875,-0.25 -0.5,-0.4375 -0.28125,-0.21875 -0.59375,-0.40625 -0.3125,-0.21875 -0.5,-0.5 -0.21875,-0.46875 -0.3125,-0.96875 -0.0625,-0.53125 -0.1875,-1 -0.125,-0.5 -0.4375,-0.90625 -0.3125,-0.40625 -1,-0.65625 -0.0625,-0.125 -0.21875,-0.40625 -0.125,-0.28125 -0.28125,-0.59375 -0.15625,-0.34375 -0.3125,-0.625 -0.125,-0.3125 -0.15625,-0.46875 -0.15625,-0.25 -0.46875,-0.40625 -0.28125,-0.15625 -0.5625,-0.3125 -0.40625,-0.375 -0.8125,-0.90625 -0.375,-0.5625 -0.84375,-1.09375 -0.4375,-0.53125 -0.9375,-0.90625 -0.5,-0.375 -1.125,-0.375 -0.25,0 -0.46875,0.15625 -0.1875,0.125 -0.1875,0.5 l 0.21875,0.6875 q 0,0.0937 -0.15625,0.375 -0.125,0.25 -0.3125,0.53125 -0.15625,0.28125 -0.3125,0.53125 -0.125,0.21875 -0.125,0.25 v 1.5 q 0,0.875 0.21875,1.5625 0.25,0.6875 0.25,1.46875 0,0.34375 -0.0937,0.59375 -0.0937,0.25 -0.1875,0.5 -0.0625,0.28125 -0.125,0.53125 -0.0625,0.25 -0.0625,0.53125 0,1.1875 0.3125,1.96875 0.34375,0.75 0.90625,1.125 0.34375,0.21875 0.78125,0.34375 0.46875,0.0937 0.875,0.15625 0.4375,0.0312 0.8125,0.0625 0.375,0.0312 0.5625,0.125 0.34375,0.15625 0.375,0.3125 0.0625,0.15625 0.0625,0.34375 0,0.4375 -0.0937,0.9375 -0.0625,0.46875 -0.375,0.75 -0.25,0.15625 -0.625,0.1875 -0.375,0.0625 -0.75,0.0625 h -0.84375 l -2.4375,-0.46875 -3.3125,0.21875 h -2.0625 l -2.53125,0.25 -1.46875,0.0625 q -0.1875,-0.0625 -0.46875,-0.0625 -0.28125,0 -0.5,0 z"
         style="font-family:'IM FELL English';-inkscape-font-specification:'IM FELL English'"
         id="path44763" />
      <path
         d="m 251.29459,250.26311 q 0,-0.34375 0.46875,-0.59375 1.40625,-0.53125 2.65625,-1.375 1.25,-0.875 2.34375,-1.90625 1.125,-1.03125 2.125,-2.1875 1,-1.1875 1.90625,-2.3125 0.21875,-0.28125 0.625,-0.65625 0.40625,-0.375 0.8125,-0.8125 0.40625,-0.46875 0.6875,-0.90625 0.3125,-0.46875 0.3125,-0.875 0,-0.21875 -0.15625,-0.46875 -0.15625,-0.25 -0.375,-0.5 -0.1875,-0.25 -0.375,-0.5 -0.1875,-0.25 -0.28125,-0.46875 -0.0312,-0.0937 -0.1875,-0.375 -0.15625,-0.28125 -0.3125,-0.625 -0.15625,-0.34375 -0.3125,-0.65625 -0.125,-0.3125 -0.15625,-0.40625 -0.4375,-0.15625 -0.90625,-0.5 -0.46875,-0.375 -0.90625,-0.8125 -0.40625,-0.4375 -0.78125,-0.90625 -0.34375,-0.46875 -0.5625,-0.875 -0.21875,-0.40625 -0.375,-0.875 -0.125,-0.46875 -0.28125,-0.96875 -0.125,-0.5 -0.34375,-0.96875 -0.1875,-0.46875 -0.5625,-0.84375 -0.0312,-0.0312 -0.1875,-0.125 -0.125,-0.0937 -0.28125,-0.1875 -0.125,-0.125 -0.25,-0.21875 -0.125,-0.0937 -0.125,-0.125 -0.0625,-0.0625 -0.28125,-0.25 -0.21875,-0.21875 -0.46875,-0.4375 -0.25,-0.25 -0.46875,-0.4375 -0.21875,-0.21875 -0.3125,-0.28125 -0.4375,-0.375 -0.9375,-0.5 -0.5,-0.125 -0.9375,-0.28125 -0.40625,-0.1875 -0.6875,-0.5 -0.28125,-0.34375 -0.28125,-1.09375 0,-0.21875 0.0937,-0.46875 0.0937,-0.28125 0.25,-0.5 0.1875,-0.21875 0.40625,-0.375 0.25,-0.15625 0.53125,-0.15625 1.625,-0.1875 3.25,-0.1875 1.59375,0 3.28125,0.1875 0.4375,0.15625 1.28125,0.15625 0.84375,-0.0312 1.65625,0.0312 0.84375,0.0312 1.4375,0.28125 0.625,0.25 0.625,0.9375 0,0.4375 -0.28125,0.78125 -0.25,0.3125 -0.5625,0.625 -0.3125,0.28125 -0.59375,0.625 -0.25,0.3125 -0.25,0.71875 0,0.71875 0.1875,1.1875 0.21875,0.46875 0.53125,0.875 0.3125,0.375 0.65625,0.78125 0.34375,0.40625 0.625,1 0.15625,0.28125 0.25,0.6875 0.0937,0.375 0.21875,0.75 0.15625,0.375 0.40625,0.625 0.28125,0.25 0.8125,0.25 0.84375,0 1.25,-0.15625 0.4375,-0.15625 0.6875,-0.46875 0.25,-0.34375 0.40625,-0.78125 0.1875,-0.46875 0.5625,-1.09375 0.28125,-0.625 0.53125,-1.15625 0.28125,-0.5625 0.28125,-1.25 0,-0.5 -0.1875,-1.21875 -0.1875,-0.71875 -0.25,-1.34375 -0.71875,-0.28125 -1.0625,-0.6875 -0.34375,-0.4375 -0.34375,-1.3125 0,-0.1875 0,-0.3125 0.0312,-0.15625 0.15625,-0.15625 0.5,-0.0937 0.96875,-0.15625 0.5,-0.0625 1,-0.0625 0.46875,0 1.03125,0.0625 0.5625,0.0625 0.90625,0.15625 0.0625,0.0312 0.34375,0.0937 0.3125,0.0625 0.53125,0.125 0.0312,-0.0312 0.15625,-0.0625 0.15625,-0.0625 0.3125,-0.125 0.15625,-0.0625 0.3125,-0.125 0.15625,-0.0625 0.21875,-0.125 0.4375,-0.0937 0.78125,-0.125 0.375,-0.0312 0.8125,-0.0312 0.34375,0 0.71875,0.0312 0.40625,0.0312 0.78125,0.125 0.28125,0.15625 0.71875,0.1875 0.46875,0 0.875,0.0625 0.4375,0.0312 0.75,0.21875 0.3125,0.1875 0.3125,0.71875 0,0.5 -0.46875,0.8125 -0.4375,0.3125 -1.0625,0.53125 -0.59375,0.1875 -1.25,0.375 -0.625,0.15625 -0.96875,0.375 -0.84375,0.65625 -1.625,1.53125 -0.75,0.84375 -1.5625,1.625 -0.125,0.0937 -0.34375,0.28125 -0.1875,0.1875 -0.40625,0.40625 -0.1875,0.1875 -0.34375,0.34375 -0.125,0.15625 -0.125,0.1875 -0.0937,0.0937 -0.375,0.59375 -0.25,0.46875 -0.53125,1.03125 -0.25,0.53125 -0.5,1 -0.21875,0.46875 -0.28125,0.5625 -0.0312,0.0937 -0.1875,0.3125 -0.15625,0.21875 -0.34375,0.4375 -0.15625,0.21875 -0.3125,0.40625 -0.15625,0.1875 -0.1875,0.21875 v 0.375 q 0,0.8125 0.34375,1.65625 0.375,0.84375 0.90625,1.6875 0.5625,0.8125 1.15625,1.59375 0.59375,0.78125 1.0625,1.4375 0.34375,0.40625 0.4375,0.90625 0.125,0.5 0.375,0.9375 l 1.03125,0.84375 q 0.125,0.125 0.15625,0.3125 0.0625,0.1875 0.0937,0.40625 0.0625,0.1875 0.15625,0.375 0.0937,0.1875 0.28125,0.3125 0.84375,0.875 1.71875,1.65625 0.90625,0.75 1.90625,1.5625 0.15625,0.15625 0.40625,0.40625 0.25,0.25 0.46875,0.5 0.25,0.21875 0.40625,0.40625 0.1875,0.15625 0.1875,0.1875 v 0.375 q -0.53125,0.25 -0.96875,0.46875 -0.40625,0.1875 -1,0.1875 l -2.75,-0.21875 -1.0625,0.0625 q -0.15625,0.125 -0.375,0.15625 -0.21875,0 -0.5625,0 -0.25,0 -0.46875,-0.0937 -0.21875,-0.125 -0.4375,-0.21875 -0.21875,-0.125 -0.46875,-0.21875 -0.21875,-0.125 -0.5,-0.125 l -3.15625,0.28125 q -0.4375,0 -0.53125,-0.0937 -0.0937,-0.125 -0.0937,-0.5625 v -0.375 q 0.34375,-0.3125 0.65625,-0.5 0.3125,-0.21875 0.53125,-0.40625 0.25,-0.21875 0.375,-0.5 0.15625,-0.28125 0.15625,-0.71875 0,-0.53125 -0.28125,-1.03125 -0.28125,-0.5 -0.6875,-0.96875 -0.375,-0.5 -0.8125,-0.96875 -0.4375,-0.46875 -0.71875,-0.96875 -0.3125,-0.46875 -0.3125,-0.75 0,-0.3125 -0.0625,-0.5 -0.0625,-0.1875 -0.34375,-0.25 -0.28125,-0.0625 -1.15625,-0.0625 h -0.65625 q -0.21875,0 -0.40625,0.0312 -0.15625,0.0312 -0.40625,0.1875 -0.0937,0.0312 -0.375,0.59375 -0.28125,0.5625 -0.59375,1.28125 -0.3125,0.6875 -0.5625,1.34375 -0.25,0.625 -0.25,0.78125 0,0.5 0,1.09375 0.0312,0.59375 0.15625,1 0.125,0.34375 0.4375,0.5 0.34375,0.15625 0.65625,0.28125 0.3125,0.125 0.5625,0.3125 0.25,0.15625 0.25,0.53125 0,0.4375 -0.34375,0.6875 -0.3125,0.25 -0.75,0.375 -0.4375,0.125 -0.9375,0.15625 -0.46875,0.0312 -0.78125,0.0312 h -1.96875 q -1.6875,0 -3.53125,-0.0625 -1.8125,-0.0625 -3.4375,-0.25 -0.46875,-0.0937 -0.46875,-0.5 z"
         style="font-family:'IM FELL English';-inkscape-font-specification:'IM FELL English'"
         id="path44765" />
      <path
         d="m 284.88834,265.82561 q 0,-0.28125 0,-0.5 0.0312,-0.21875 0.1875,-0.5625 0.15625,-0.71875 0.65625,-1.1875 0.53125,-0.46875 1.59375,-0.78125 0.0937,-0.0312 0.3125,-0.0937 0.21875,-0.0312 0.4375,-0.0625 0.21875,-0.0312 0.375,-0.0625 0.1875,0 0.21875,0 l 1.15625,0.21875 0.6875,-0.21875 q 0.0937,0 0.28125,-0.0312 0.1875,0 0.53125,0 0.5625,0 0.75,-0.0312 0.21875,-0.0312 0.34375,-0.1875 0.25,-0.375 0.40625,-0.65625 0.15625,-0.28125 0.25,-0.5625 0.125,-0.25 0.1875,-0.5625 0.0937,-0.28125 0.1875,-0.71875 0,-0.0312 0.0312,-0.21875 0.0312,-0.15625 0.0625,-0.375 0.0312,-0.21875 0.0625,-0.40625 0.0312,-0.1875 0.0625,-0.28125 0,-0.125 0.15625,-0.46875 0.15625,-0.34375 0.34375,-0.71875 0.1875,-0.375 0.34375,-0.71875 0.1875,-0.3125 0.28125,-0.46875 l -0.21875,-1.3125 q 0.34375,-0.5625 0.53125,-1.03125 0.1875,-0.46875 0.1875,-1.125 0,-0.0937 -0.0312,-0.25 -0.0312,-0.125 -0.0312,-0.1875 0,-0.25 -0.0312,-0.625 0,-0.34375 -0.0312,-0.65625 -0.0312,-0.34375 -0.0625,-0.59375 -0.0312,-0.25 -0.0312,-0.28125 0,-0.0937 -0.125,-0.375 -0.125,-0.3125 -0.28125,-0.65625 -0.125,-0.34375 -0.28125,-0.65625 -0.125,-0.3125 -0.125,-0.4375 -0.0312,-0.0625 -0.125,-0.375 -0.0937,-0.3125 -0.21875,-0.65625 -0.0937,-0.375 -0.1875,-0.6875 -0.0625,-0.3125 -0.0625,-0.375 l -1,-1.6875 q 0,-0.0312 -0.0312,-0.25 -0.0312,-0.21875 -0.0625,-0.46875 -0.0312,-0.25 -0.0937,-0.46875 -0.0312,-0.25 -0.0625,-0.3125 0,-0.28125 -0.0625,-0.6875 -0.0625,-0.4375 -0.0937,-0.4375 -0.0312,-0.0937 -0.1875,-0.25 -0.125,-0.15625 -0.3125,-0.3125 -0.15625,-0.15625 -0.3125,-0.28125 -0.15625,-0.125 -0.15625,-0.15625 l -0.4375,-1.125 -1.03125,-1.46875 -1.15625,-2.96875 q -0.0312,-0.0625 -0.1875,-0.34375 -0.125,-0.3125 -0.125,-0.34375 -0.0625,-0.0625 -0.1875,-0.15625 -0.125,-0.125 -0.125,-0.1875 -0.0312,-0.0312 -0.0625,-0.28125 -0.0312,-0.25 -0.0625,-0.53125 0,-0.28125 -0.0312,-0.5 0,-0.25 0,-0.3125 -0.125,-0.5 -0.375,-1.0625 -0.25,-0.59375 -0.53125,-1.15625 -0.28125,-0.59375 -0.59375,-1.15625 -0.28125,-0.5625 -0.5,-1.03125 0,-0.0625 -0.0625,-0.3125 -0.0625,-0.28125 -0.125,-0.34375 0,-0.0937 -0.15625,-0.25 -0.125,-0.1875 -0.28125,-0.25 -0.90625,-0.71875 -1.9375,-1.125 -1,-0.40625 -2.09375,-0.9375 l -0.28125,-0.40625 q -0.125,-0.25 -0.375,-0.375 -0.28125,-0.125 -0.28125,-0.34375 0,-1.09375 0.40625,-1.40625 0.375,-0.3125 0.96875,-0.3125 0.46875,0 0.90625,0.15625 0.46875,0.15625 0.96875,0.4375 0.0937,0 0.375,-0.0312 0.28125,-0.0312 0.65625,-0.0312 0.34375,0 0.65625,0.0312 0.34375,0.0312 0.46875,0.0312 l 0.8125,0.3125 h 0.8125 q 0.0312,0 0.25,-0.0312 0.25,-0.0625 0.5,-0.0937 0.28125,-0.0625 0.5,-0.0937 0.21875,-0.0625 0.28125,-0.0937 0.1875,-0.0937 0.5,-0.15625 0.34375,-0.0937 0.65625,-0.15625 0.3125,-0.0625 0.53125,-0.0937 0.25,-0.0312 0.3125,-0.0312 h 1.40625 l 0.84375,-0.15625 q 0.28125,0 0.65625,0.125 0.40625,0.0937 0.71875,0.28125 0.34375,0.1875 0.5625,0.4375 0.25,0.21875 0.25,0.4375 0,0.25 -0.0625,0.75 -0.0625,0.46875 -0.28125,0.71875 -0.5,0.53125 -1.0625,0.75 -0.53125,0.21875 -0.78125,0.28125 l -0.53125,0.15625 q -0.21875,0.0937 -0.5,0.0625 -0.25,-0.0625 -0.46875,0.15625 0.0312,0.25 0.125,0.625 0.0937,0.34375 0.21875,0.6875 0.125,0.34375 0.21875,0.625 0.0937,0.25 0.0937,0.28125 0.0312,0.3125 0.15625,0.5625 0.15625,0.25 0.3125,0.5 0.15625,0.25 0.3125,0.5 0.15625,0.25 0.25,0.53125 l 0.375,2 q 0.0625,0.4375 0.3125,0.84375 0.25,0.375 0.53125,0.75 0.28125,0.34375 0.5625,0.75 0.28125,0.375 0.375,0.8125 0,0.0312 0,0.28125 0.0312,0.25 0.0312,0.53125 0.0312,0.28125 0.0625,0.53125 0.0312,0.25 0.0625,0.28125 0,0.0312 0.1875,0.3125 0.1875,0.28125 0.25,0.3125 0.0312,0.0625 0.15625,0.34375 0.125,0.28125 0.21875,0.375 l 0.46875,0.96875 q 0.0625,0.21875 0.21875,0.5625 0.15625,0.3125 0.28125,0.3125 0.21875,0.34375 0.46875,0.5 0.28125,0.125 0.5,0.125 0.15625,0 0.4375,-0.125 0.28125,-0.15625 0.4375,-0.5 0.0937,-0.125 0.21875,-0.25 0.25,-0.25 0.375,-0.34375 l 0.0625,-0.1875 q 0.0312,-0.0625 0.0625,-0.125 0.0312,-0.0625 0.0312,-0.125 0.375,-0.9375 0.71875,-1.90625 0.34375,-0.96875 0.6875,-2.03125 0,-0.0937 0.0625,-0.40625 0.0625,-0.34375 0.21875,-0.46875 0,-0.0312 0,-0.1875 0.0312,-0.15625 0.0312,-0.34375 0.0312,-0.21875 0.0625,-0.375 0.0312,-0.1875 0.0625,-0.21875 l 0.46875,-1.3125 q 0.0312,-0.0312 0.0625,-0.1875 0.0312,-0.15625 0.0625,-0.3125 0.0312,-0.1875 0.0312,-0.3125 0.0312,-0.15625 0.0312,-0.21875 0.0937,-0.3125 0.28125,-0.625 0.21875,-0.3125 0.40625,-0.59375 0.1875,-0.28125 0.34375,-0.5625 0.15625,-0.3125 0.15625,-0.65625 -0.0625,-0.125 -0.1875,-0.34375 -0.0937,-0.25 -0.15625,-0.28125 v -1.3125 q 0,-0.0625 -0.25,-0.34375 -0.21875,-0.28125 -0.34375,-0.34375 -0.125,-0.0625 -0.375,-0.15625 -0.21875,-0.125 -0.5,-0.21875 -0.28125,-0.0937 -0.5625,-0.15625 -0.25,-0.0937 -0.40625,-0.125 -0.3125,0 -0.46875,-0.0937 -0.125,-0.125 -0.15625,-0.125 l -1.03125,-0.75 q -0.15625,-0.4375 -0.15625,-0.71875 0,-0.40625 0.15625,-0.71875 0.15625,-0.34375 0.375,-0.6875 0.40625,-0.21875 0.75,-0.28125 0.375,-0.0937 0.65625,-0.0937 0.28125,-0.0312 0.53125,-0.0625 0.25,-0.0312 0.4375,-0.15625 l 0.75,-0.0937 q 0.0625,0 0.34375,0.0312 0.3125,0 0.65625,0.0312 0.34375,0.0312 0.625,0.0625 0.3125,0 0.375,0.0312 l 1.03125,0.21875 q 0.71875,0 1.28125,-0.21875 0.59375,-0.21875 1.3125,-0.4375 h 0.71875 q 0,-0.0625 0.28125,-0.0937 0.28125,-0.0625 0.40625,-0.0625 0,-0.0625 0.0625,-0.0625 0.0937,0 0.15625,0 0.28125,0 0.75,0.125 0.5,0.125 0.96875,0.34375 0.46875,0.21875 0.8125,0.5 0.34375,0.28125 0.34375,0.59375 0,0.375 -0.21875,0.53125 -0.21875,0.15625 -0.4375,0.40625 l -1.1875,0.96875 q -0.375,0.34375 -0.75,0.53125 -0.375,0.15625 -0.78125,0.25 -0.375,0.0937 -0.8125,0.15625 -0.4375,0.0625 -0.90625,0.1875 -0.53125,0.8125 -0.90625,1.65625 -0.34375,0.84375 -0.75,1.65625 0,0.15625 -0.0625,0.40625 -0.0625,0.21875 -0.125,0.28125 0,0.0312 -0.0312,0.1875 0,0.125 -0.0312,0.3125 -0.0312,0.15625 -0.0625,0.3125 0,0.15625 -0.0312,0.15625 0,0.0625 -0.125,0.21875 -0.0937,0.15625 -0.21875,0.375 -0.125,0.1875 -0.25,0.375 -0.0937,0.15625 -0.0937,0.1875 v 1.625 q -0.0312,0.0312 -0.125,0.21875 -0.0937,0.15625 -0.21875,0.375 -0.0937,0.1875 -0.21875,0.34375 -0.0937,0.15625 -0.15625,0.1875 -0.4375,0.8125 -1.03125,1.75 -0.59375,0.9375 -0.84375,1.9375 v 1.125 q 0,0.0625 -0.125,0.34375 -0.0937,0.25 -0.15625,0.25 -0.34375,0.65625 -0.4375,1.21875 -0.0937,0.5625 -0.375,1.09375 l -0.90625,1.84375 q -0.125,0.625 -0.15625,1.28125 -0.0312,0.65625 -0.0312,1.34375 0,0.65625 -0.0312,1.3125 -0.0312,0.65625 -0.125,1.3125 -0.0625,0.78125 -0.5,1.53125 -0.4375,0.75 -0.78125,1.4375 -0.0625,0.0625 -0.1875,0.15625 -0.0937,0.125 -0.0937,0.15625 -0.125,0.1875 -0.25,0.59375 -0.0625,0.1875 -0.125,0.40625 -0.0312,0.1875 -0.0625,0.59375 -0.0312,0.40625 -0.0625,0.84375 0,0.4375 -0.0312,0.8125 0,0.40625 0,0.5625 -0.3125,0.25 -0.46875,0.71875 -0.125,0.46875 -0.21875,1.03125 -0.0625,0.5625 -0.125,1.09375 -0.0312,0.5625 -0.15625,0.9375 l -0.875,1.125 q -0.0625,0.0625 -0.125,0.40625 -0.0312,0.375 -0.0312,0.46875 -0.0937,0.0937 -0.21875,0.3125 -0.125,0.1875 -0.3125,0.53125 -0.1875,0.34375 -0.4375,0.9375 0,0.0312 -0.0625,0.1875 -0.0625,0.1875 -0.15625,0.375 -0.0937,0.21875 -0.1875,0.40625 -0.0625,0.1875 -0.0937,0.21875 -0.125,0.4375 -0.375,0.5625 -0.21875,0.125 -0.53125,0.40625 -0.1875,0.15625 -0.28125,0.25 -0.0937,0.125 -0.15625,0.21875 -0.0625,0.0937 -0.15625,0.1875 -0.0625,0.125 -0.21875,0.3125 -0.4375,0.5625 -1,0.65625 -0.5625,0.125 -1.1875,0.3125 l -0.625,0.5 q -0.375,0.125 -0.71875,0.125 -0.34375,0.0312 -0.65625,0.0312 -0.59375,0 -1.25,-0.21875 -0.65625,-0.1875 -1.21875,-0.5625 -0.5625,-0.375 -0.9375,-0.90625 -0.375,-0.53125 -0.375,-1.1875 z"
         style="font-family:'IM FELL English';-inkscape-font-specification:'IM FELL English'"
         id="path44767" />
      <path
         d="m 320.82584,268.91936 q -0.34375,-0.34375 -0.875,-0.46875 -0.5,-0.125 -0.84375,-0.1875 -1.125,-0.40625 -2.21875,-1.03125 -1.0625,-0.59375 -1.875,-1.4375 -0.8125,-0.8125 -1.3125,-1.875 -0.5,-1.03125 -0.5,-2.3125 0,-0.375 0.0625,-1.0625 0.0625,-0.65625 0.1875,-1.40625 0.15625,-0.71875 0.34375,-1.375 0.21875,-0.65625 0.5,-0.96875 0.1875,-0.375 0.65625,-0.625 0.5,-0.21875 1,-0.46875 0.5,-0.25 0.875,-0.59375 0.375,-0.34375 0.375,-0.90625 0,-0.875 -0.46875,-1.46875 -0.46875,-0.59375 -1.0625,-1.125 -0.5625,-0.53125 -1.03125,-1.125 -0.46875,-0.59375 -0.46875,-1.46875 0,-0.375 0.0312,-0.8125 0.0312,-0.46875 0.0937,-0.90625 0.0937,-0.46875 0.21875,-0.875 0.125,-0.4375 0.3125,-0.75 0.1875,-0.25 0.4375,-0.59375 0.28125,-0.375 0.5625,-0.75 0.3125,-0.375 0.59375,-0.6875 0.3125,-0.3125 0.5625,-0.5 0.3125,-0.21875 0.59375,-0.34375 0.3125,-0.125 0.53125,-0.25 0.25,-0.15625 0.40625,-0.3125 0.15625,-0.1875 0.15625,-0.5 0,-0.4375 -0.1875,-0.84375 -0.1875,-0.40625 -0.5,-0.78125 -0.28125,-0.375 -0.65625,-0.75 -0.34375,-0.375 -0.71875,-0.71875 l -0.25,-0.28125 q -0.21875,-0.25 -0.25,-0.3125 -0.0312,-0.0625 -0.0937,-0.0625 0.0312,-0.0312 -0.1875,-0.5625 -0.1875,-0.5625 -0.4375,-1.28125 -0.21875,-0.71875 -0.4375,-1.40625 -0.1875,-0.71875 -0.1875,-1.0625 l 0.0625,-1.03125 q 0,-0.5 0.21875,-0.59375 0.21875,-0.125 0.375,-0.3125 -0.0625,-0.25 -0.25,-0.5 -0.1875,-0.28125 -0.1875,-0.875 0,-0.0312 0.0937,-0.21875 0.125,-0.1875 0.1875,-0.25 1.34375,-2.75 2.5625,-4.3125 1.21875,-1.59375 2.75,-2.375 1.5625,-0.8125 3.65625,-1 2.09375,-0.21875 5.1875,-0.21875 h 0.125 q 0.625,0.25 1.3125,0.4375 0.6875,0.1875 1.28125,0.59375 l 0.8125,0.71875 q 0.53125,0.40625 1.25,0.65625 0.71875,0.21875 1.5,0.46875 l 1.0625,0.21875 q 0.1875,0.0937 0.4375,0.0937 h 0.0625 q 0.28125,0 0.5,-0.1875 0.21875,-0.1875 0.40625,-0.4375 0.21875,-0.25 0.40625,-0.53125 0.21875,-0.28125 0.40625,-0.46875 1.03125,-0.84375 2.25,-1.5 1.21875,-0.65625 2.625,-0.65625 1.28125,0 2,0.8125 0.71875,0.8125 0.71875,1.9375 0,0.4375 -0.0625,0.96875 -0.0312,0.53125 -0.25,1 -0.1875,0.4375 -0.65625,0.75 -0.4375,0.3125 -1.21875,0.3125 -0.53125,-0.6875 -0.9375,-0.875 -0.40625,-0.1875 -0.9375,-0.1875 h -1.25 q -0.65625,0 -1.25,0.625 -0.5625,0.625 -0.96875,1.53125 -0.40625,0.875 -0.65625,1.8125 -0.21875,0.9375 -0.21875,1.59375 l 0.34375,2.53125 q 0,1.09375 -0.40625,2.03125 -0.375,0.9375 -0.90625,1.75 -0.46875,0.625 -0.78125,1.375 -0.28125,0.71875 -0.9375,1.125 l -0.53125,0.21875 q -1.1875,0.4375 -2,0.8125 -0.8125,0.34375 -1.59375,0.59375 -0.78125,0.25 -1.71875,0.40625 -0.90625,0.125 -2.3125,0.125 h -0.8125 l -4.5625,-0.3125 q -1.75,0 -2.75,1 -0.96875,1 -0.96875,2.78125 v 0.375 q 0.25,0.84375 0.59375,1.1875 0.34375,0.3125 0.78125,0.40625 0.4375,0.0937 0.9375,0.15625 0.53125,0.0312 1.15625,0.34375 0.625,-0.0625 1.28125,-0.125 0.65625,-0.0625 1.3125,-0.0625 0.21875,0 0.46875,0.0312 0.28125,0 0.5625,0.0625 h 2 l 1.78125,0.4375 h 0.90625 q 0.53125,0 0.75,-0.0312 0.25,-0.0312 0.59375,-0.0312 0.15625,0 0.34375,0 0.1875,0 0.53125,0.0625 0.40625,0.0625 0.8125,0.21875 0.40625,0.15625 0.9375,0.21875 h 2.15625 q 0.34375,0 0.6875,0.15625 0.375,0.125 0.71875,0.3125 0.34375,0.15625 0.625,0.34375 0.3125,0.15625 0.5,0.21875 0.40625,0.28125 0.75,0.4375 0.375,0.15625 0.65625,0.28125 0.28125,0.15625 0.46875,0.28125 0.1875,0.15625 0.25,0.375 0.15625,0.25 0.5,0.65625 0.34375,0.4375 0.71875,1 0.375,0.5625 0.71875,1.25 0.375,0.71875 0.53125,1.5 0,0.25 0,0.375 0,0.15625 -0.0625,0.375 -0.1875,1.75 -0.4375,2.875 -0.25,1.15625 -0.71875,2.03125 -0.46875,0.875 -1.25,1.625 -0.78125,0.78125 -2.0625,1.78125 -1,0.78125 -2,1.625 -1,0.84375 -2.15625,1.1875 l -2.28125,0.59375 q -0.0937,0 -0.3125,0.0937 -0.21875,0.125 -0.28125,0.1875 -0.9375,0.0625 -1.625,0.0937 -0.65625,0.0625 -1.28125,0.0937 -0.59375,0.0625 -1.25,0.0625 -0.625,0.0312 -1.46875,0.0312 -0.71875,0 -1.34375,-0.0312 -0.59375,0 -1.1875,-0.0625 -0.59375,-0.0312 -1.25,-0.0937 -0.625,-0.0312 -1.46875,-0.0937 z m -3.0625,-11.78125 q -0.0625,0.34375 -0.0937,0.625 -0.0312,0.3125 -0.0312,0.65625 0,0.4375 0.0625,0.875 0.0937,0.4375 0.25,0.96875 0,0.0312 0.15625,0.34375 0.1875,0.3125 0.40625,0.71875 0.25,0.4375 0.4375,0.8125 0.21875,0.40625 0.3125,0.5625 0.15625,0.25 0.25,0.53125 0.0937,0.3125 0.1875,0.59375 0.0937,0.28125 0.1875,0.46875 0.0937,0.21875 0.28125,0.3125 0.4375,0.15625 1.0625,0.40625 0.625,0.28125 0.9375,0.4375 0.5,0.21875 1.15625,0.40625 0.65625,0.21875 1.3125,0.34375 0.65625,0.15625 1.1875,0.25 0.5625,0.0937 0.84375,0.0937 0.0937,0 0.125,-0.0312 0.0312,0 0.0312,-0.0312 0.5,0.125 0.96875,0.125 0.5,0.0312 0.9375,0.0312 0.625,0 1.1875,-0.0312 0.5625,-0.0312 1.125,-0.125 0.59375,-0.15625 1.21875,-0.28125 0.625,-0.125 1.15625,-0.34375 0.5625,-0.21875 0.96875,-0.5625 0.4375,-0.3125 0.65625,-0.90625 l 1.90625,-0.9375 q 0.1875,-1.46875 0.34375,-2.78125 0.1875,-1.28125 0.1875,-2.78125 0,-1.40625 -0.71875,-2.3125 -0.6875,-0.90625 -1.75,-1.4375 -1.0625,-0.53125 -2.3125,-0.75 -1.25,-0.21875 -2.34375,-0.25 -1.5,-0.0625 -2.90625,-0.21875 -1.40625,-0.125 -2.84375,-0.125 -0.25,0 -0.6875,-0.0312 -0.40625,0 -0.8125,0 -0.78125,0 -1.46875,0.0937 -0.6875,0.0937 -1.1875,0.4375 -0.15625,0.15625 -0.40625,0.46875 -0.25,0.3125 -0.28125,0.40625 -0.21875,0.15625 -0.5625,0.28125 -0.3125,0.125 -0.625,0.3125 -0.28125,0.1875 -0.5,0.40625 -0.21875,0.25 -0.21875,0.5625 z m 2.6875,-20.96875 q 0.1875,0.34375 0.3125,0.53125 0.15625,0.15625 0.3125,0.3125 0.1875,0.125 0.375,0.3125 0.1875,0.1875 0.46875,0.5 0.375,0.5 0.6875,1.09375 0.3125,0.5625 0.6875,1.0625 0.375,0.5 0.875,0.84375 0.5,0.3125 1.25,0.3125 1.09375,0 1.9375,-0.25 0.84375,-0.28125 1.5,-0.75 0.6875,-0.5 1.25,-1.15625 0.5625,-0.6875 1.09375,-1.46875 0.4375,-0.53125 0.90625,-0.9375 0.5,-0.4375 0.625,-1.0625 0.1875,-0.65625 0.28125,-1.53125 0.125,-0.90625 0.1875,-1.625 -0.21875,-1.4375 -0.46875,-2.53125 -0.25,-1.125 -0.75,-1.9375 -0.5,-0.84375 -1.40625,-1.40625 -0.90625,-0.59375 -2.4375,-0.9375 -0.53125,-0.125 -1,-0.40625 -0.46875,-0.28125 -0.90625,-0.28125 -0.6875,0 -1.40625,0.34375 -0.71875,0.3125 -1.375,0.8125 -0.625,0.46875 -1.15625,1.03125 -0.5,0.5625 -0.8125,1 -0.21875,0.6875 -0.59375,1.125 -0.375,0.40625 -0.71875,1.03125 v 3.40625 q 0,0.65625 0.0312,1.25 0.0312,0.5625 0.25,1.3125 z"
         style="font-family:'IM FELL English';-inkscape-font-specification:'IM FELL English'"
         id="path44769" />
      <path
         d="m 345.98209,250.85686 q -0.0312,-0.0625 -0.0312,-0.1875 0,-0.15625 0,-0.28125 l 0.0312,-0.65625 q 0,-0.28125 0.21875,-0.34375 0.25,-0.0625 0.5,-0.21875 0.28125,-0.34375 0.6875,-0.375 0.4375,-0.0625 0.71875,-0.21875 0.84375,-0.34375 1.71875,-0.6875 0.875,-0.375 1.40625,-1.3125 0.0937,-0.125 0.25,-0.5 0.1875,-0.375 0.34375,-0.8125 0.15625,-0.46875 0.28125,-0.90625 0.125,-0.4375 0.15625,-0.625 0.0625,-0.0937 0.0625,-0.25 0,-0.1875 0,-0.25 l -0.71875,-3.40625 q 0,-0.40625 0.28125,-0.75 0.28125,-0.34375 0.28125,-0.71875 l -0.375,-1.4375 q 0,-0.4375 0,-1.0625 0.0312,-0.625 0.0625,-1.25 0.0625,-0.65625 0.1875,-1.1875 0.125,-0.5625 0.34375,-0.84375 0.0625,-0.90625 0.0937,-1.71875 0.0625,-0.8125 0.0625,-1.6875 0,-0.6875 -0.0625,-1.34375 -0.0312,-0.6875 -0.0937,-1.40625 0.15625,-0.25 0.1875,-0.5625 0.0625,-0.34375 0.0625,-0.625 v -0.5 l -0.21875,-2.25 q 0,-0.28125 0.125,-0.40625 0.15625,-0.15625 0.3125,-0.25 0.15625,-0.125 0.28125,-0.21875 0.15625,-0.125 0.15625,-0.3125 l -0.875,-1.78125 0.5,-3.5625 q 0,-0.59375 -0.15625,-1.15625 -0.125,-0.59375 -0.125,-1.28125 l 0.15625,-1.25 q 0,-0.5 -0.46875,-1.03125 -0.4375,-0.5625 -0.75,-0.96875 l -2.125,-2.125 q -0.0625,0 -0.1875,-0.0625 -0.125,-0.0937 -0.125,-0.15625 -0.0312,-0.0625 -0.0312,-0.0937 -0.0312,-0.0312 -0.0312,-0.0937 0,-0.4375 0.0625,-0.8125 0.0625,-0.375 0.3125,-0.5 0.15625,-0.15625 0.40625,-0.1875 0.28125,-0.0312 0.625,-0.0312 h 0.53125 q 0.4375,0 0.59375,-0.0625 0.875,-0.1875 1.75,-0.59375 0.875,-0.40625 1.875,-0.40625 0.3125,0 0.75,0.125 0.46875,0.125 0.90625,0.3125 0.4375,0.1875 0.75,0.46875 0.3125,0.25 0.3125,0.53125 0,0.375 -0.1875,0.6875 -0.15625,0.28125 -0.15625,0.625 l 0.5,3.4375 q 0,0.4375 -0.0312,0.65625 -0.0312,0.21875 -0.1875,0.65625 v 2.96875 q 0,0.3125 0,0.8125 0.0312,0.5 0.0312,1 0,0.46875 0,0.84375 0.0312,0.34375 0.0312,0.375 l 0.15625,2.15625 -0.21875,0.9375 q 0,0.53125 0.0937,1 0.125,0.46875 0.125,1 0,0.625 -0.25,1.0625 -0.25,0.4375 -0.25,0.875 l 0.34375,1.125 q 0,0.21875 -0.15625,0.4375 -0.125,0.1875 -0.28125,0.40625 -0.15625,0.21875 -0.3125,0.4375 -0.125,0.21875 -0.125,0.46875 l 0.125,1.1875 -0.125,0.90625 q 0,0.34375 0.25,0.71875 0.28125,0.375 0.78125,0.375 h 0.15625 q 0.28125,-0.0312 0.5625,-0.21875 0.3125,-0.21875 0.5625,-0.46875 0.28125,-0.25 0.5,-0.46875 0.21875,-0.21875 0.375,-0.3125 0.8125,-0.4375 1.375,-0.65625 0.59375,-0.25 1.0625,-0.5 0.5,-0.28125 0.9375,-0.6875 0.46875,-0.4375 1.0625,-1.28125 0.15625,-0.28125 0.25,-0.4375 0.125,-0.15625 0.1875,-0.25 0.0937,-0.0937 0.125,-0.1875 0.0312,-0.0937 0.0312,-0.28125 0,-0.34375 -0.21875,-0.59375 -0.1875,-0.25 -0.4375,-0.5 -0.21875,-0.25 -0.40625,-0.53125 -0.1875,-0.28125 -0.1875,-0.6875 v -0.375 q 0,-0.125 0.0312,-0.25 0.0625,-0.125 0.3125,-0.25 0.4375,-0.0625 0.875,-0.0937 0.4375,-0.0625 0.78125,-0.0625 0.53125,0.0625 1.03125,0.125 0.5,0.0312 0.96875,0.0312 0.25,0 0.4375,0 0.21875,0 0.4375,-0.0625 l 2.5,-0.0937 q 0.0312,0 0.15625,-0.0312 0.15625,-0.0312 0.3125,-0.0625 0.15625,-0.0625 0.28125,-0.0937 0.125,-0.0312 0.15625,-0.0312 h 2.8125 q 0.34375,0.28125 0.625,0.59375 0.28125,0.3125 0.28125,0.65625 0,0.3125 -0.3125,0.625 -0.3125,0.28125 -0.8125,0.5625 -0.5,0.25 -1.125,0.46875 -0.59375,0.21875 -1.15625,0.40625 -0.5625,0.1875 -1.03125,0.34375 -0.46875,0.125 -0.6875,0.1875 -0.90625,0.40625 -1.5,0.6875 -0.59375,0.25 -1.40625,0.65625 -0.25,0.34375 -0.375,0.65625 -0.0937,0.3125 -0.5,0.65625 -0.15625,0.0937 -0.5625,0.25 -0.375,0.15625 -0.8125,0.375 -0.40625,0.21875 -0.75,0.53125 -0.3125,0.28125 -0.3125,0.625 0,0.25 0,0.65625 0.0312,0.40625 0.0937,0.84375 0.0625,0.4375 0.1875,0.84375 0.125,0.40625 0.3125,0.6875 0.6875,0.90625 1.4375,1.59375 0.75,0.65625 1.28125,1.59375 0.1875,0.21875 0.21875,0.34375 0.0625,0.0937 0.0625,0.1875 0.0312,0.0937 0.0625,0.25 0.0312,0.125 0.1875,0.40625 0.0937,0.34375 0.34375,0.5625 0.28125,0.1875 0.5625,0.375 0.3125,0.1875 0.59375,0.40625 0.3125,0.1875 0.5,0.5 0.78125,1.8125 2.15625,3.5625 1.375,1.71875 2.8125,3.03125 0.28125,0.21875 0.9375,0.46875 0.6875,0.25 1.4375,0.5625 0.78125,0.28125 1.5,0.59375 0.71875,0.3125 1.09375,0.6875 0.0937,0.0937 0.0937,0.21875 0.0312,0.125 0.0312,0.28125 v 0.625 q 0,0.3125 -0.1875,0.5625 -0.15625,0.25 -0.40625,0.3125 h -2.59375 l -3.84375,-0.53125 q -0.0312,0 -0.0625,0.0312 -0.0312,0 -0.0625,0 -0.0625,0.0312 -0.0937,0.0312 -2.0625,0.625 -3.9375,0.625 l -1.75,0.0625 q -0.5,0 -0.96875,-0.0625 -0.4375,-0.0625 -0.65625,-0.21875 -0.34375,-0.34375 -0.40625,-0.65625 -0.0625,-0.34375 -0.0625,-0.78125 v -0.59375 q 0,-0.3125 0.375,-0.46875 0.375,-0.1875 0.84375,-0.375 0.46875,-0.1875 0.84375,-0.46875 0.375,-0.28125 0.375,-0.8125 0,-0.375 -0.21875,-0.59375 -0.21875,-0.25 -0.5,-0.4375 -0.28125,-0.21875 -0.59375,-0.40625 -0.3125,-0.21875 -0.5,-0.5 -0.21875,-0.46875 -0.3125,-0.96875 -0.0625,-0.53125 -0.1875,-1 -0.125,-0.5 -0.4375,-0.90625 -0.3125,-0.40625 -1,-0.65625 -0.0625,-0.125 -0.21875,-0.40625 -0.125,-0.28125 -0.28125,-0.59375 -0.15625,-0.34375 -0.3125,-0.625 -0.125,-0.3125 -0.15625,-0.46875 -0.15625,-0.25 -0.46875,-0.40625 -0.28125,-0.15625 -0.5625,-0.3125 -0.40625,-0.375 -0.8125,-0.90625 -0.375,-0.5625 -0.84375,-1.09375 -0.4375,-0.53125 -0.9375,-0.90625 -0.5,-0.375 -1.125,-0.375 -0.25,0 -0.46875,0.15625 -0.1875,0.125 -0.1875,0.5 l 0.21875,0.6875 q 0,0.0937 -0.15625,0.375 -0.125,0.25 -0.3125,0.53125 -0.15625,0.28125 -0.3125,0.53125 -0.125,0.21875 -0.125,0.25 v 1.5 q 0,0.875 0.21875,1.5625 0.25,0.6875 0.25,1.46875 0,0.34375 -0.0937,0.59375 -0.0937,0.25 -0.1875,0.5 -0.0625,0.28125 -0.125,0.53125 -0.0625,0.25 -0.0625,0.53125 0,1.1875 0.3125,1.96875 0.34375,0.75 0.90625,1.125 0.34375,0.21875 0.78125,0.34375 0.46875,0.0937 0.875,0.15625 0.4375,0.0312 0.8125,0.0625 0.375,0.0312 0.5625,0.125 0.34375,0.15625 0.375,0.3125 0.0625,0.15625 0.0625,0.34375 0,0.4375 -0.0937,0.9375 -0.0625,0.46875 -0.375,0.75 -0.25,0.15625 -0.625,0.1875 -0.375,0.0625 -0.75,0.0625 h -0.84375 l -2.4375,-0.46875 -3.3125,0.21875 h -2.0625 l -2.53125,0.25 -1.46875,0.0625 q -0.1875,-0.0625 -0.46875,-0.0625 -0.28125,0 -0.5,0 z"
         style="font-family:'IM FELL English';-inkscape-font-specification:'IM FELL English'"
         id="path44771" />
      <path
         d="m 405.82584,238.04436 q 0.0312,-0.0937 0.125,-0.28125 0.0937,-0.1875 0.1875,-0.40625 0.125,-0.25 0.21875,-0.46875 0.0937,-0.21875 0.15625,-0.3125 0.21875,-0.3125 0.21875,-0.90625 -0.0312,-0.0625 -0.0312,-0.15625 -0.0312,-0.0625 -0.0312,-0.125 0,-0.0937 0,-0.15625 0,-0.125 -0.15625,-0.34375 -0.15625,-0.25 -0.375,-0.25 -0.0937,0 -0.125,0.0312 -0.0312,0.0312 -0.0937,0.0937 -0.0625,0 -0.15625,0.0625 -0.0625,0.0312 -0.125,0.0312 -0.0625,0.0625 -0.0937,0.0937 0,0.0312 -0.0625,0.0625 -0.0625,0.0312 -0.0937,0.0625 -0.0312,0.0312 -0.15625,0.15625 -0.125,0.125 -0.28125,0.28125 -0.15625,0.125 -0.3125,0.28125 -0.125,0.125 -0.1875,0.15625 l -1.84375,1.1875 q -0.0625,0.0937 -0.21875,0.25 -0.15625,0.15625 -0.34375,0.34375 -0.15625,0.15625 -0.3125,0.3125 -0.15625,0.15625 -0.25,0.21875 -0.71875,0.78125 -1.84375,1.28125 -1.09375,0.46875 -2.09375,0.625 h -0.9375 q -0.46875,0 -0.9375,0 -0.4375,-0.0312 -0.875,-0.1875 -0.0625,0 -0.15625,-0.0625 -0.0625,-0.0625 -0.125,-0.15625 -0.65625,-0.34375 -1.125,-1 -0.4375,-0.65625 -0.65625,-1.40625 -0.125,-0.4375 -0.15625,-0.75 0,-0.34375 0,-0.78125 v -0.6875 q 0,-0.4375 0.125,-0.875 0.15625,-0.46875 0.34375,-0.90625 0.4375,-1.0625 0.9375,-2.0625 0.53125,-1.03125 1.0625,-2 0.21875,-0.25 0.375,-0.53125 0.1875,-0.28125 0.34375,-0.5 0,-0.0312 0.0625,-0.21875 0.0312,-0.0625 0.0937,-0.15625 0.125,-0.125 0.34375,-0.40625 0.25,-0.3125 0.5,-0.59375 0.25,-0.3125 0.46875,-0.5625 0.21875,-0.28125 0.3125,-0.375 0.125,-0.25 0.40625,-0.34375 0.3125,-0.125 0.46875,-0.3125 l 2.625,-2.21875 q 0,0 0.0625,-0.125 0.0312,-0.0312 0.0625,-0.0937 0.0625,-0.0625 0.3125,-0.3125 0.25,-0.28125 0.53125,-0.59375 0.28125,-0.34375 0.53125,-0.625 0.25,-0.3125 0.34375,-0.40625 0.0625,-0.0625 0.15625,-0.125 0.125,-0.0937 0.1875,-0.15625 l 0.0312,-0.0625 h 0.1875 q 0.0625,0 0.15625,-0.0312 0.25,-0.0625 0.40625,-0.1875 0.1875,-0.15625 0.34375,-0.375 1.21875,-0.96875 2.4375,-1.53125 1.21875,-0.5625 2.8125,-0.84375 0.46875,-0.125 0.96875,-0.125 0.53125,-0.0312 1.0625,-0.0312 h 0.28125 q 0.34375,0.0625 0.53125,0.21875 0.1875,0.15625 0.4375,0.21875 0.1875,0.0937 0.34375,0.0937 h 0.75 l 0.0625,-0.0312 q 0.28125,-0.21875 0.4375,-0.4375 0.15625,-0.21875 0.34375,-0.5 0.4375,-0.40625 0.84375,-0.75 0.4375,-0.375 1.0625,-0.375 h 0.375 q 0.4375,0.4375 0.625,1 0.1875,0.53125 0.1875,1.09375 0,1 -0.34375,1.78125 -0.34375,0.78125 -0.78125,1.59375 -0.0937,0.28125 -0.125,0.53125 -0.0312,0.21875 -0.0937,0.46875 0,0.21875 -0.125,0.34375 l -3.4375,7.0625 q -0.0625,0.15625 -0.0625,0.25 0,0.0625 0,0.1875 0,0.125 0,0.25 0,0.0937 -0.0625,0.25 -0.25,0.53125 -0.5,1.09375 -0.25,0.5625 -0.53125,1.125 v 0.0937 q -0.0625,0.25 -0.125,0.40625 -0.0625,0.15625 -0.125,0.28125 -0.0312,0.125 -0.0625,0.1875 -0.0625,0.125 -0.1875,0.28125 -0.0937,0.15625 -0.0937,0.40625 0,0.28125 0.0625,0.59375 0.0625,0.28125 0.4375,0.28125 0.34375,0 0.625,-0.1875 0.28125,-0.1875 0.5625,-0.40625 l 3.5,-2 q 0.0937,-0.0625 0.1875,-0.125 0.125,-0.0937 0.25,-0.15625 0.9375,-0.78125 1.84375,-1.59375 0.9375,-0.84375 1.6875,-1.75 0.78125,-0.9375 1.3125,-1.9375 0.53125,-1.03125 0.6875,-2.21875 0.125,-0.53125 0.15625,-1.125 0.0625,-0.625 0.0625,-1.21875 0,-0.40625 -0.125,-0.90625 -0.0937,-0.5 -0.15625,-1.03125 -0.71875,-1.75 -1.28125,-3.125 -0.5625,-1.375 -1.25,-2.375 h -0.0625 l -2.21875,-3.03125 q -1,-0.375 -1.71875,-0.90625 -0.71875,-0.5625 -1.59375,-1.03125 -1.0625,-0.65625 -1.90625,-1.09375 -0.84375,-0.46875 -1.6875,-0.59375 -0.46875,0.0625 -0.71875,0.125 -0.21875,0.0312 -0.375,0.0312 h -0.53125 q -0.25,0 -0.40625,0 -0.15625,0 -0.40625,0.0625 l -1.15625,-0.53125 q -0.90625,0 -1.875,0.15625 -0.96875,0.125 -1.625,0.84375 -1.9375,0.1875 -3.28125,0.59375 -1.34375,0.375 -2.375,1.0625 -1,0.65625 -1.84375,1.65625 -0.84375,0.96875 -1.8125,2.375 l -0.84375,0.875 -1.1875,1.78125 q -0.21875,0.21875 -0.3125,0.5625 -0.0937,0.34375 -0.0937,0.625 l -1.5625,3.875 q -0.15625,0.34375 -0.28125,0.8125 -0.0937,0.46875 -0.1875,0.9375 -0.0625,0.46875 -0.125,0.9375 -0.0312,0.4375 -0.0937,0.78125 -0.0312,0.15625 -0.15625,0.46875 -0.0937,0.28125 -0.21875,0.65625 -0.125,0.34375 -0.25,0.6875 -0.0937,0.34375 -0.0937,0.5625 0.15625,2.625 0.78125,4.75 0.65625,2.09375 1.5,3.84375 0.25,0.34375 0.34375,0.78125 0.0937,0.4375 0.21875,0.90625 0.15625,0.46875 0.40625,0.9375 0.28125,0.46875 0.875,0.84375 0.34375,0.71875 0.8125,1.5 0.46875,0.78125 1.125,1.25 0.40625,0.34375 0.71875,0.6875 0.34375,0.34375 0.65625,0.75 0.3125,0.375 0.65625,0.8125 0.375,0.40625 0.90625,0.84375 0.375,0.0625 0.84375,0.21875 0.46875,0.125 0.90625,0.28125 0.4375,0.15625 0.8125,0.3125 0.375,0.125 0.5625,0.15625 l 1.9375,0.59375 2.9375,-0.0625 q 0.75,-0.125 1.34375,-0.15625 0.625,-0.0625 1.125,-0.0625 0.9375,0 1.4375,0.0937 0.53125,0.0937 0.78125,0.0937 0.21875,0 0.375,0.0937 0.15625,0.0625 0.65625,0.0625 0.40625,0 0.6875,-0.0625 0.28125,-0.0937 0.5,-0.21875 0.25,-0.125 0.53125,-0.25 0.28125,-0.125 0.71875,-0.1875 0.0625,-0.0625 0.65625,-0.40625 0.59375,-0.375 1.3125,-0.75 0.71875,-0.40625 1.3125,-0.71875 0.59375,-0.34375 0.65625,-0.34375 1,0 1.34375,0.28125 0.375,0.25 0.375,0.65625 0,0.53125 -0.46875,1.15625 -0.4375,0.59375 -0.75,0.9375 -0.4375,0.65625 -0.75,1.03125 -0.3125,0.375 -0.5625,0.5625 -0.25,0.15625 -0.46875,0.21875 -0.1875,0.0312 -0.40625,0.0312 -0.40625,0 -0.75,0.0937 -0.3125,0.0937 -0.65625,0.25 -0.8125,0.34375 -1.8125,0.625 -0.96875,0.28125 -2.21875,0.28125 l 0.0937,-0.0625 q -0.1875,0.0625 -0.53125,0.0625 -0.34375,0 -0.71875,0 h -4.25 q -0.4375,0 -0.84375,0 -0.375,0 -0.5625,-0.0625 -0.9375,0 -1.90625,-0.15625 -0.9375,-0.125 -1.90625,-0.34375 -0.96875,-0.21875 -1.90625,-0.4375 -0.9375,-0.25 -1.84375,-0.40625 -0.0625,0 -0.25,-0.0625 -0.15625,-0.0937 -0.1875,-0.15625 -0.875,-0.65625 -1.84375,-1.3125 -0.9375,-0.65625 -1.9375,-1.1875 l -1.09375,-0.1875 q -0.15625,-0.0312 -0.6875,-0.46875 -0.53125,-0.4375 -1.15625,-0.96875 -0.59375,-0.53125 -1.09375,-1.03125 -0.5,-0.53125 -0.5625,-0.75 l -2.5,-4.375 q -0.25,-0.59375 -0.65625,-1.8125 -0.40625,-1.21875 -0.78125,-2.5625 -0.375,-1.34375 -0.65625,-2.53125 -0.28125,-1.21875 -0.28125,-1.78125 0,-0.34375 0.0937,-0.5 0.125,-0.1875 0.125,-0.53125 l -0.21875,-1.84375 q 0,-0.6875 0.15625,-1.75 0.1875,-1.0625 0.375,-2.1875 0.21875,-1.125 0.4375,-2.125 0.21875,-1 0.3125,-1.625 0.0312,-0.1875 0.25,-0.625 0.25,-0.4375 0.40625,-0.59375 0.3125,-0.375 0.46875,-0.75 0.15625,-0.375 0.25,-0.75 0.125,-0.40625 0.25,-0.78125 0.125,-0.375 0.375,-0.75 0.15625,-0.28125 0.34375,-0.40625 0.21875,-0.15625 0.375,-0.28125 0.1875,-0.125 0.3125,-0.3125 0.125,-0.1875 0.125,-0.53125 l 3.71875,-3.78125 2.65625,-1.34375 q 0.0625,-0.0625 0.15625,-0.1875 0.125,-0.15625 0.28125,-0.3125 l 1.5625,-0.53125 4.21875,-2.0625 8.21875,-1.625 h 1.78125 l 1.625,0.78125 0.8125,-0.125 2.21875,0.75 q 0.25,0.0937 0.84375,0.34375 0.59375,0.21875 1.25,0.5 0.65625,0.25 1.21875,0.53125 0.59375,0.25 0.84375,0.4375 0.40625,0.40625 0.71875,0.71875 0.34375,0.28125 0.65625,0.53125 0.34375,0.21875 0.6875,0.46875 0.375,0.21875 0.8125,0.46875 0.28125,0.15625 0.78125,0.78125 0.53125,0.625 1.03125,1.375 0.53125,0.71875 0.9375,1.40625 0.40625,0.65625 0.46875,0.875 0.0937,0.40625 0.0937,0.78125 0,0.375 0.0312,0.6875 0.0312,0.3125 0.15625,0.59375 0.15625,0.28125 0.53125,0.5 0.25,1.0625 0.5,2.25 0.25,1.15625 0.4375,2.1875 0.21875,1 0.34375,1.75 0.125,0.71875 0.125,0.875 0,0.71875 -0.15625,1.09375 -0.125,0.375 -0.28125,0.96875 -0.4375,0.6875 -0.78125,1.125 -0.34375,0.4375 -0.34375,0.78125 -0.4375,0.5625 -0.65625,1 -0.1875,0.4375 -0.40625,0.84375 -0.1875,0.40625 -0.46875,0.8125 -0.28125,0.375 -0.84375,0.84375 -1.125,0.90625 -1.875,1.5 -0.71875,0.5625 -1.40625,1 -0.65625,0.4375 -1.40625,0.875 -0.71875,0.4375 -1.8125,1.0625 l -2.03125,1.71875 -0.28125,0.21875 q -0.0625,0.0625 -0.3125,0.28125 -0.25,0.21875 -0.34375,0.25 -0.28125,0.25 -0.59375,0.34375 -0.3125,0.0625 -0.65625,0.21875 -0.46875,0.34375 -0.875,0.75 -0.40625,0.40625 -0.90625,0.65625 l -1.0625,0.3125 h -0.125 l -2.03125,-0.3125 q -0.0625,-0.0312 -0.15625,-0.0625 -0.0625,-0.0312 -0.125,-0.0625 -0.0625,-0.0312 -0.125,-0.0312 -0.125,-0.15625 -0.34375,-0.3125 -0.21875,-0.15625 -0.28125,-0.28125 -0.21875,-0.3125 -0.3125,-0.59375 -0.0625,-0.28125 -0.0625,-0.625 z m -7.53125,-2.65625 q 0,0.4375 0.125,0.78125 0.125,0.3125 0.46875,0.46875 0.125,0.125 0.28125,0.21875 0.15625,0.0937 0.3125,0.0937 0.8125,0 1.375,-0.3125 0.59375,-0.34375 1.15625,-0.90625 0.4375,-0.375 1.0625,-1 0.65625,-0.625 1.28125,-1.21875 0.71875,-0.6875 1.46875,-1.46875 l 2.59375,-3.46875 1.34375,-1.4375 1.46875,-3 0.625,-2.46875 q 0,-0.0625 0.0312,-0.15625 0.0312,-0.125 0.0312,-0.15625 0,-0.25 -0.0625,-0.5625 -0.0625,-0.3125 -0.25,-0.46875 -0.0312,-0.0625 -0.0625,-0.125 -0.0312,-0.0625 -0.0625,-0.125 l -0.0937,-0.0937 h -0.125 q -0.125,0 -0.15625,-0.0312 -0.0625,0 -0.21875,0 -0.15625,0 -0.15625,-0.0625 h -0.5 l -0.0937,0.0625 q -0.0937,0 -0.34375,0.125 -0.21875,0.0937 -0.5,0.21875 -0.28125,0.125 -0.5625,0.25 -0.25,0.125 -0.375,0.15625 -0.15625,0.0312 -0.25,0.125 -0.0625,0.0625 -0.125,0.1875 -0.0937,0.0625 -0.375,0.3125 -0.28125,0.25 -0.625,0.5625 -0.34375,0.28125 -0.625,0.53125 -0.28125,0.25 -0.375,0.3125 l -0.28125,0.34375 h -0.375 l -2.375,2.53125 q -0.40625,0.40625 -0.5,0.9375 -0.0625,0.15625 -0.0937,0.34375 -0.0312,0.1875 -0.125,0.34375 -0.25,0.40625 -0.5625,0.6875 -0.3125,0.28125 -0.5625,0.625 -0.0625,0.0937 -0.1875,0.28125 -0.0937,0.15625 -0.21875,0.34375 -0.0937,0.1875 -0.1875,0.34375 -0.0937,0.125 -0.0937,0.15625 l -2,3.5625 v 0.28125 q -0.0625,0.4375 -0.0937,0.9375 -0.0312,0.46875 -0.0312,0.9375 z"
         style="font-family:'IM FELL English';-inkscape-font-specification:'IM FELL English'"
         id="path44773" />
      <path
         d="m 443.57584,247.38811 q -0.125,0.0625 -0.40625,0.375 -0.25,0.28125 -0.40625,0.28125 l -1.1875,0.59375 q -0.0625,0.0312 -0.21875,0.15625 -0.125,0.0937 -0.3125,0.25 -0.15625,0.125 -0.28125,0.25 -0.125,0.0937 -0.15625,0.0937 -0.0625,0.0312 -0.25,0.0625 -0.15625,0.0312 -0.375,0.0625 -0.1875,0.0312 -0.375,0.0625 -0.15625,0 -0.25,0 -0.25,0.0625 -0.46875,0.21875 -0.1875,0.15625 -0.40625,0.375 -0.1875,0.1875 -0.4375,0.40625 -0.25,0.1875 -0.5625,0.34375 h -2.96875 q -0.15625,0 -0.4375,-0.0625 -0.25,-0.0625 -0.5625,-0.15625 -0.28125,-0.0937 -0.5625,-0.21875 -0.28125,-0.125 -0.4375,-0.21875 0,-0.0625 -0.1875,-0.28125 -0.15625,-0.25 -0.1875,-0.40625 -0.0625,-0.0625 -0.0937,-0.15625 -0.0937,-0.0937 -0.0937,-0.1875 l -0.84375,-0.8125 q -0.25,-0.5 -0.4375,-1.25 -0.15625,-0.78125 -0.15625,-1.28125 l 0.21875,-0.65625 -0.21875,-0.65625 v -0.375 q 0,-0.15625 0.0625,-0.40625 0.0937,-0.28125 0.1875,-0.53125 0.0937,-0.28125 0.1875,-0.5 0.0937,-0.25 0.15625,-0.34375 0.0312,-0.0312 0.21875,-0.21875 0.21875,-0.21875 0.46875,-0.46875 0.25,-0.28125 0.4375,-0.5 0.21875,-0.21875 0.28125,-0.3125 0.0312,0 0.21875,-0.21875 0.21875,-0.21875 0.21875,-0.28125 l 0.0625,-0.125 q 0.0312,-0.0625 0.0312,-0.125 0.53125,-0.34375 1.03125,-0.71875 0.5,-0.40625 1.125,-0.6875 0.0312,-0.0312 0.4375,-0.1875 0.4375,-0.1875 0.9375,-0.375 0.53125,-0.21875 1.03125,-0.375 0.5,-0.15625 0.75,-0.21875 0.3125,-0.15625 0.65625,-0.40625 0.34375,-0.25 0.65625,-0.46875 0.34375,-0.21875 0.625,-0.375 0.28125,-0.1875 0.46875,-0.1875 h 0.8125 q 0.0312,0 0.1875,-0.0937 0.0625,-0.0312 0.15625,-0.0937 0.125,-0.0312 0.59375,-0.0937 0.5,-0.0625 0.65625,-0.0625 l 0.40625,-0.53125 q 0.21875,-0.125 0.4375,-0.1875 0.21875,-0.0937 0.40625,-0.1875 0.1875,-0.0937 0.3125,-0.25 0.15625,-0.1875 0.25,-0.5 0.21875,-0.65625 0.28125,-1.375 0.0937,-0.75 0.0937,-1.40625 v -0.6875 q 0,-0.0625 -0.1875,-0.34375 -0.1875,-0.28125 -0.1875,-0.40625 l -0.375,-1.59375 -0.6875,-0.84375 -0.34375,-0.65625 q -0.125,-0.0625 -0.25,-0.3125 -0.125,-0.25 -0.15625,-0.40625 -0.0625,-0.1875 -0.46875,-0.34375 -0.40625,-0.1875 -0.90625,-0.3125 -0.5,-0.15625 -1,-0.21875 -0.46875,-0.0937 -0.65625,-0.0937 -0.0625,0 -0.5,0 -0.40625,-0.0312 -0.6875,-0.0312 -0.28125,0 -0.78125,0.0625 -0.46875,0.0312 -0.90625,0.1875 -0.4375,0.125 -0.78125,0.375 -0.3125,0.25 -0.3125,0.65625 v 0.28125 q 0.0312,0.0625 0.125,0.28125 0.0937,0.1875 0.1875,0.4375 0.0937,0.21875 0.15625,0.4375 0.0937,0.1875 0.0937,0.25 0,0.125 -0.0937,0.375 -0.0625,0.21875 -0.125,0.46875 -0.21875,1 -0.59375,1.53125 -0.375,0.53125 -1.1875,1.03125 l -0.375,0.28125 q -0.125,0.0937 -0.21875,0.1875 h -2.375 q -0.28125,0 -0.46875,-0.21875 -0.1875,-0.21875 -0.3125,-0.5 -0.125,-0.3125 -0.1875,-0.59375 -0.0625,-0.3125 -0.0625,-0.46875 0,-0.1875 0.0625,-0.5 0.0625,-0.3125 0.1875,-0.59375 0.125,-0.3125 0.25,-0.5625 0.15625,-0.28125 0.3125,-0.4375 0.0937,-0.21875 0.21875,-0.375 0.0625,-0.15625 0.125,-0.25 0.0937,-0.0937 0.125,-0.125 l 0.5,-0.5 q 0.6875,-0.4375 1.15625,-0.90625 0.46875,-0.46875 1.09375,-1 l 2.1875,-1.4375 q 0.3125,-0.28125 0.5625,-0.40625 0.28125,-0.15625 0.5625,-0.25 0.28125,-0.0937 0.5625,-0.15625 0.3125,-0.0625 0.71875,-0.21875 0.0312,0 0.15625,-0.0625 0.15625,-0.0625 0.3125,-0.125 0.15625,-0.0937 0.3125,-0.15625 0.15625,-0.0625 0.21875,-0.0937 0.15625,-0.0312 0.59375,-0.125 0.46875,-0.0937 0.96875,-0.1875 0.53125,-0.0937 1,-0.15625 0.46875,-0.0625 0.65625,-0.0625 0.15625,0 0.28125,0.125 0.15625,0.0937 0.21875,0.0937 0.0937,0 0.28125,0.0312 0.1875,0 0.375,0.0312 0.21875,0.0312 0.375,0.0625 0.1875,0 0.25,0.0312 0.1875,0.0625 0.5,0.1875 0.3125,0.0937 0.625,0.21875 0.3125,0.125 0.5625,0.21875 0.25,0.0937 0.3125,0.125 0.0312,0.0312 0.15625,0.15625 0.125,0.125 0.28125,0.3125 0.1875,0.15625 0.34375,0.3125 0.15625,0.15625 0.21875,0.25 0.34375,0.5 0.6875,0.90625 0.375,0.40625 0.53125,0.9375 0.15625,0.3125 0.21875,0.6875 0.0937,0.34375 0.15625,0.6875 0.0937,0.34375 0.21875,0.65625 0.125,0.3125 0.40625,0.5625 v 1.9375 q 0,2.0625 -0.15625,4.0625 -0.125,1.96875 -0.1875,4.0625 -0.125,0.3125 -0.21875,0.625 -0.0937,0.28125 -0.0937,0.65625 0,0.28125 0.0625,0.625 0.0937,0.34375 0.0937,0.5 l -0.28125,0.59375 q -0.0312,0.125 -0.0312,0.25 v 0.34375 q 0,0.46875 0.0312,1 0.0312,0.53125 0.15625,1.0625 0.125,0.53125 0.34375,1 0.25,0.46875 0.6875,0.78125 0.15625,0.125 0.40625,0.375 0.28125,0.21875 0.40625,0.21875 h 0.125 q 0.3125,0 0.71875,-0.0937 0.40625,-0.125 0.84375,-0.25 0.4375,-0.15625 0.875,-0.28125 0.46875,-0.125 0.90625,-0.125 0.59375,0 0.59375,0.375 0,1 -0.40625,1.9375 -0.375,0.9375 -1.0625,1.6875 -0.6875,0.71875 -1.59375,1.1875 -0.90625,0.4375 -1.96875,0.4375 -1.0625,0 -2.0625,-0.0937 -1,-0.125 -2.1875,-0.5625 l -0.21875,-0.15625 q -0.0625,-0.0625 -0.3125,-0.375 -0.21875,-0.34375 -0.5,-0.71875 -0.25,-0.375 -0.46875,-0.6875 -0.21875,-0.34375 -0.25,-0.4375 l -0.75,-0.65625 h -0.21875 z m -7.0625,-4.6875 q 0,0.5 0.15625,1.15625 0.1875,0.65625 0.53125,1.25 0.34375,0.5625 0.84375,0.96875 0.5,0.40625 1.125,0.40625 0.125,0 0.21875,-0.0312 0.0937,-0.0312 0.53125,-0.25 l 2.84375,-0.25 q 0.0937,-0.0625 0.28125,-0.25 0.21875,-0.21875 0.40625,-0.4375 0.21875,-0.21875 0.375,-0.40625 0.1875,-0.1875 0.25,-0.28125 0.0312,0 0.0937,-0.1875 0.0937,-0.1875 0.21875,-0.46875 0.125,-0.28125 0.21875,-0.59375 0.125,-0.3125 0.21875,-0.5625 0.0625,-0.15625 0.0937,-0.46875 0.0625,-0.3125 0.0625,-0.34375 -0.0312,-0.34375 -0.0625,-0.6875 -0.0312,-0.34375 -0.0312,-0.6875 0,-0.3125 0.0312,-0.5625 0.0312,-0.28125 0.0625,-0.5625 l 0.21875,-0.6875 v -0.5625 q 0,-0.53125 -0.34375,-0.96875 -0.34375,-0.4375 -1,-0.4375 -0.53125,0 -0.90625,0.25 -0.34375,0.21875 -0.8125,0.5625 -0.15625,0.0937 -0.625,0.34375 -0.46875,0.21875 -1,0.46875 -0.5,0.21875 -0.96875,0.4375 -0.4375,0.21875 -0.59375,0.28125 l -0.59375,0.3125 q -0.0625,0 -0.25,0.0625 -0.1875,0.0625 -0.1875,0.0937 l -0.4375,0.8125 -0.75,0.75 q -0.15625,0.34375 -0.1875,0.8125 -0.0312,0.4375 -0.0312,0.71875 z"
         style="font-family:'IM FELL English';-inkscape-font-specification:'IM FELL English'"
         id="path44775" />
      <path
         d="m 457.70084,251.29436 q -0.0937,0 -0.21875,0 -0.125,0 -0.28125,-0.0625 h -0.65625 l -0.375,-0.3125 v -1.46875 l 0.71875,-1.125 q 0.28125,-0.125 0.65625,-0.125 0.375,-0.0312 0.40625,-0.0312 0.125,0 0.5625,-0.0312 0.46875,-0.0625 0.75,-0.1875 0.71875,0.15625 1.03125,0.15625 0.375,-0.28125 0.71875,-0.75 0.34375,-0.46875 0.59375,-1.03125 0.28125,-0.5625 0.40625,-1.125 0.15625,-0.5625 0.15625,-1.03125 v -3.46875 q 0,-1.09375 0,-2.125 0.0312,-1.0625 0.125,-1.5 -0.0937,-0.84375 -0.125,-1.65625 -0.0312,-0.84375 -0.0937,-1.6875 l -0.21875,-3.25 q -0.0937,-1.46875 -0.15625,-2.9375 -0.0625,-1.46875 -0.0625,-2.96875 0,-0.15625 0.0312,-0.21875 0.0312,-0.0937 0.28125,-0.25 -0.125,-0.5 -0.15625,-0.90625 0,-0.40625 0,-0.875 0,-0.4375 0,-0.875 0.0312,-0.46875 0.15625,-0.96875 -0.25,-0.15625 -0.40625,-0.46875 -0.125,-0.3125 -0.125,-0.84375 0,-0.40625 0.25,-0.65625 0.25,-0.25 0.25,-0.75 0,-0.6875 -0.0312,-1.46875 -0.0312,-0.78125 -0.25,-1.59375 -0.21875,-1.09375 -0.21875,-1.75 0,-0.65625 -0.0625,-1.40625 -0.1875,-0.28125 -0.65625,-0.5625 -0.4375,-0.28125 -0.96875,-0.5625 -0.5,-0.3125 -0.96875,-0.625 -0.46875,-0.34375 -0.65625,-0.71875 -0.25,-0.5 -0.34375,-0.59375 -0.0625,-0.125 -0.125,-0.28125 0,-0.21875 0.125,-0.625 0.125,-0.4375 0.46875,-0.5 0.65625,-0.15625 1.34375,-0.375 0.6875,-0.21875 1.03125,-0.28125 0.0625,0 0.3125,-0.0937 0.28125,-0.125 0.5625,-0.25 0.3125,-0.15625 0.5625,-0.28125 0.28125,-0.15625 0.34375,-0.25 0.59375,-0.15625 1.09375,-0.34375 0.53125,-0.1875 1.03125,-0.34375 0.5,-0.15625 1.03125,-0.28125 0.5625,-0.125 1.1875,-0.15625 0.3125,0 0.53125,0.0312 0.21875,0.0312 0.21875,0.25 0.125,0.8125 0.15625,1.59375 0.0625,0.75 0.0625,1.46875 0,0.71875 -0.0625,1.46875 -0.0312,0.71875 -0.15625,1.40625 -0.25,0.65625 -0.3125,1.40625 -0.0625,0.75 -0.0625,1.5 l 0.0312,1.625 -0.0937,2.15625 q 0.125,0.25 0.15625,0.5 0.0625,0.25 0.0625,0.65625 0,0.625 -0.0312,0.90625 0,0.28125 -0.0937,0.4375 l 0.21875,2 q -0.125,0.5 -0.40625,1.03125 -0.28125,0.5 -0.4375,1.125 0,0.34375 0.15625,0.625 0.15625,0.25 0.21875,0.6875 0.125,1.21875 0.125,2.34375 0.0312,1.125 0.0937,2.34375 -0.15625,0.71875 -0.375,1.28125 -0.1875,0.53125 -0.1875,1.09375 v 0.5 q 0.0312,0.65625 0.0937,1.21875 0.0625,0.53125 0.125,1.0625 0.0937,0.53125 0.15625,1.125 0.0625,0.5625 0.125,1.3125 0,0.8125 -0.0937,1.40625 -0.0625,0.59375 -0.125,1.4375 -0.0312,0.1875 -0.0937,0.53125 -0.0312,0.34375 -0.0937,0.71875 -0.0312,0.34375 -0.0625,0.65625 -0.0312,0.3125 -0.0312,0.4375 v 0.0312 q 0.0312,0.15625 0.125,0.625 0.0937,0.46875 0.1875,0.96875 0.0937,0.5 0.1875,0.9375 0.0937,0.4375 0.0937,0.5625 l 0.21875,0.46875 h 0.0625 q 0.0937,0 0.125,0.0937 0.0312,0.0937 0.0937,0.125 0.125,0.125 0.15625,0.28125 0.0312,0.125 0.125,0.28125 0.125,0.125 0.34375,0.28125 0.25,0.125 0.78125,0.25 0.59375,0.375 0.90625,0.375 0.0937,0 0.15625,0 0.0625,0 0.21875,-0.0625 0.25,0.0625 0.59375,0.0937 0.34375,0.0312 0.71875,0.125 0.375,0.0625 0.75,0.21875 0.375,0.15625 0.65625,0.4375 0.15625,0.125 0.1875,0.34375 0.0312,0.1875 0.0312,0.53125 v 1.0625 q 0,0.21875 -0.0625,0.40625 -0.0625,0.1875 -0.25,0.25 -0.25,-0.0625 -0.53125,-0.0625 -0.25,0 -0.5,0 -0.21875,0 -0.46875,-0.0312 -0.25,0 -0.625,-0.0625 l -0.96875,-0.125 q -0.0625,0 -0.28125,-0.0312 -0.1875,0 -0.4375,-0.0312 -0.21875,0 -0.4375,-0.0312 -0.1875,0 -0.25,0 l -1.53125,-0.0937 q -0.0312,0 -0.0625,-0.0312 -0.0312,0 -0.0625,0 0,-0.0312 -0.0312,-0.0312 -0.6875,0.0312 -1.25,0.0937 -0.53125,0.0625 -1.03125,0.125 -0.46875,0.0937 -0.96875,0.15625 -0.46875,0.0937 -1.0625,0.0937 -0.71875,-0.0625 -1.5625,-0.15625 -0.8125,-0.0937 -1.53125,-0.0937 z"
         style="font-family:'IM FELL English';-inkscape-font-specification:'IM FELL English'"
         id="path44777" />
      <path
         d="m 476.88834,251.07561 q -0.375,0 -0.59375,0.125 -0.1875,0.15625 -0.40625,0.15625 -0.125,0 -0.3125,-0.125 -0.15625,-0.125 -0.5,-0.3125 -0.0625,-0.0312 -0.0937,-0.15625 0,-0.15625 -0.0625,-0.34375 -0.0625,-0.1875 -0.0937,-0.46875 0,-0.0312 0.0625,-0.15625 0.0937,-0.15625 0.1875,-0.3125 0.0937,-0.1875 0.1875,-0.34375 0.0937,-0.15625 0.15625,-0.21875 l 0.59375,-0.34375 h 0.6875 q 0.71875,0 1.28125,-0.0937 0.59375,-0.125 0.9375,-0.71875 0.125,-1.0625 0.1875,-2.03125 0.0625,-0.96875 0.3125,-1.90625 l 0.375,-1.46875 v -2.90625 l 0.15625,-2.8125 v -1.84375 q 0,-0.0625 -0.0625,-0.3125 -0.0625,-0.28125 -0.125,-0.59375 -0.0625,-0.34375 -0.125,-0.625 -0.0625,-0.3125 -0.0625,-0.46875 v -2.96875 q -0.125,-0.34375 -0.40625,-0.84375 -0.28125,-0.5 -0.5625,-0.71875 l -0.96875,-0.3125 q -0.53125,-0.375 -0.96875,-0.8125 -0.40625,-0.4375 -0.65625,-1.09375 0,-0.34375 0.15625,-0.53125 0.15625,-0.1875 0.40625,-0.28125 0.25,-0.0937 0.53125,-0.15625 0.28125,-0.0625 0.53125,-0.125 l 2.3125,-1.1875 q 0.28125,-0.125 0.46875,-0.1875 0.21875,-0.0937 0.40625,-0.1875 0.1875,-0.0937 0.34375,-0.21875 0.1875,-0.125 0.40625,-0.375 l 0.90625,-0.0625 q 0.15625,0 0.46875,0.0312 0.34375,0.0312 0.40625,0.0312 0.0937,0 0.3125,0.0312 0.21875,0.0312 0.46875,0.0937 0.25,0.0625 0.46875,0.125 0.21875,0.0625 0.3125,0.0937 0.28125,0.125 0.34375,0.53125 0.0937,0.375 0.0937,0.6875 v 1 l -0.21875,0.75 q -0.15625,2.03125 -0.15625,4 0,1.96875 -0.0625,4.0625 l -0.15625,1.125 q -0.0312,0.0312 -0.0625,0.21875 0,0.1875 0,0.4375 0,0.25 0,0.5 0,0.21875 0,0.34375 0,0.21875 0,0.5 0,0.28125 0,0.53125 0,0.25 0,0.4375 0.0312,0.15625 0.0625,0.15625 0,0.0937 0.0625,0.4375 0.0625,0.3125 0.0937,0.375 v 0.65625 q 0,0.0937 -0.0312,0.5 -0.0312,0.40625 -0.0625,0.9375 -0.0312,0.5 -0.0625,1 0,0.46875 0,0.6875 0,0.28125 0.0312,0.90625 0.0625,0.59375 0.125,1.28125 0.0937,0.6875 0.15625,1.3125 0.0625,0.59375 0.0625,0.84375 0,0.34375 0.34375,0.5625 0.375,0.1875 0.59375,0.25 0.0937,0 0.375,0.0312 0.3125,0.0312 0.65625,0.0625 0.34375,0.0312 0.625,0.0625 0.3125,0 0.4375,0 0.21875,0.25 0.34375,0.53125 0.15625,0.28125 0.15625,0.71875 0,0.4375 -0.0937,0.84375 -0.0625,0.40625 -0.34375,0.5625 -0.375,0.3125 -0.84375,0.34375 -0.4375,0.0625 -0.9375,0.0625 h -0.5625 l -0.75,-0.3125 h -3.84375 q -0.0312,0 -0.40625,-0.0625 -0.375,-0.0937 -0.5,-0.0937 h -0.875 z m 0.90625,-41.40625 0.96875,-0.96875 1.03125,-0.8125 0.3125,-0.65625 q 0.375,-0.28125 0.84375,-0.3125 0.46875,-0.0625 0.84375,-0.0625 h 0.3125 q 0.0312,0.0312 0.1875,0.0937 0.15625,0.0625 0.3125,0.125 0.15625,0.0625 0.28125,0.125 0.15625,0.0312 0.21875,0.0312 0.125,0.0625 0.375,0.125 0.28125,0.0312 0.5625,0.0937 0.28125,0.0312 0.53125,0.0625 0.25,0 0.34375,0 0.125,0.0312 0.28125,0.375 0.15625,0.34375 0.25,0.78125 0.125,0.40625 0.1875,0.8125 0.0937,0.375 0.0937,0.5 0,0.78125 -0.1875,1.46875 -0.15625,0.65625 -0.78125,1.1875 -0.0312,0.0312 -0.1875,0.0937 -0.125,0.0312 -0.28125,0.0937 -0.15625,0.0312 -0.3125,0.0937 -0.125,0.0312 -0.125,0.0312 -0.0312,0.0625 -0.15625,0.21875 -0.125,0.125 -0.28125,0.28125 -0.15625,0.125 -0.3125,0.25 -0.15625,0.0937 -0.1875,0.125 -0.1875,0.21875 -0.5625,0.25 -0.34375,0.0312 -0.65625,0.0312 h -1.21875 q -0.34375,0 -0.59375,-0.0312 -0.25,-0.0625 -0.6875,-0.40625 -0.53125,-0.78125 -1,-1.4375 -0.46875,-0.65625 -0.46875,-1.65625 z"
         style="font-family:'IM FELL English';-inkscape-font-specification:'IM FELL English'"
         id="path44779" />
      <path
         d="m 494.29459,265.82561 q 0,-0.28125 0,-0.5 0.0312,-0.21875 0.1875,-0.5625 0.15625,-0.71875 0.65625,-1.1875 0.53125,-0.46875 1.59375,-0.78125 0.0937,-0.0312 0.3125,-0.0937 0.21875,-0.0312 0.4375,-0.0625 0.21875,-0.0312 0.375,-0.0625 0.1875,0 0.21875,0 l 1.15625,0.21875 0.6875,-0.21875 q 0.0937,0 0.28125,-0.0312 0.1875,0 0.53125,0 0.5625,0 0.75,-0.0312 0.21875,-0.0312 0.34375,-0.1875 0.25,-0.375 0.40625,-0.65625 0.15625,-0.28125 0.25,-0.5625 0.125,-0.25 0.1875,-0.5625 0.0937,-0.28125 0.1875,-0.71875 0,-0.0312 0.0312,-0.21875 0.0312,-0.15625 0.0625,-0.375 0.0312,-0.21875 0.0625,-0.40625 0.0312,-0.1875 0.0625,-0.28125 0,-0.125 0.15625,-0.46875 0.15625,-0.34375 0.34375,-0.71875 0.1875,-0.375 0.34375,-0.71875 0.1875,-0.3125 0.28125,-0.46875 l -0.21875,-1.3125 q 0.34375,-0.5625 0.53125,-1.03125 0.1875,-0.46875 0.1875,-1.125 0,-0.0937 -0.0312,-0.25 -0.0312,-0.125 -0.0312,-0.1875 0,-0.25 -0.0312,-0.625 0,-0.34375 -0.0312,-0.65625 -0.0312,-0.34375 -0.0625,-0.59375 -0.0312,-0.25 -0.0312,-0.28125 0,-0.0937 -0.125,-0.375 -0.125,-0.3125 -0.28125,-0.65625 -0.125,-0.34375 -0.28125,-0.65625 -0.125,-0.3125 -0.125,-0.4375 -0.0312,-0.0625 -0.125,-0.375 -0.0937,-0.3125 -0.21875,-0.65625 -0.0937,-0.375 -0.1875,-0.6875 -0.0625,-0.3125 -0.0625,-0.375 l -1,-1.6875 q 0,-0.0312 -0.0312,-0.25 -0.0312,-0.21875 -0.0625,-0.46875 -0.0312,-0.25 -0.0937,-0.46875 -0.0312,-0.25 -0.0625,-0.3125 0,-0.28125 -0.0625,-0.6875 -0.0625,-0.4375 -0.0937,-0.4375 -0.0312,-0.0937 -0.1875,-0.25 -0.125,-0.15625 -0.3125,-0.3125 -0.15625,-0.15625 -0.3125,-0.28125 -0.15625,-0.125 -0.15625,-0.15625 l -0.4375,-1.125 -1.03125,-1.46875 -1.15625,-2.96875 q -0.0312,-0.0625 -0.1875,-0.34375 -0.125,-0.3125 -0.125,-0.34375 -0.0625,-0.0625 -0.1875,-0.15625 -0.125,-0.125 -0.125,-0.1875 -0.0312,-0.0312 -0.0625,-0.28125 -0.0312,-0.25 -0.0625,-0.53125 0,-0.28125 -0.0312,-0.5 0,-0.25 0,-0.3125 -0.125,-0.5 -0.375,-1.0625 -0.25,-0.59375 -0.53125,-1.15625 -0.28125,-0.59375 -0.59375,-1.15625 -0.28125,-0.5625 -0.5,-1.03125 0,-0.0625 -0.0625,-0.3125 -0.0625,-0.28125 -0.125,-0.34375 0,-0.0937 -0.15625,-0.25 -0.125,-0.1875 -0.28125,-0.25 -0.90625,-0.71875 -1.9375,-1.125 -1,-0.40625 -2.09375,-0.9375 l -0.28125,-0.40625 q -0.125,-0.25 -0.375,-0.375 -0.28125,-0.125 -0.28125,-0.34375 0,-1.09375 0.40625,-1.40625 0.375,-0.3125 0.96875,-0.3125 0.46875,0 0.90625,0.15625 0.46875,0.15625 0.96875,0.4375 0.0937,0 0.375,-0.0312 0.28125,-0.0312 0.65625,-0.0312 0.34375,0 0.65625,0.0312 0.34375,0.0312 0.46875,0.0312 l 0.8125,0.3125 h 0.8125 q 0.0312,0 0.25,-0.0312 0.25,-0.0625 0.5,-0.0937 0.28125,-0.0625 0.5,-0.0937 0.21875,-0.0625 0.28125,-0.0937 0.1875,-0.0937 0.5,-0.15625 0.34375,-0.0937 0.65625,-0.15625 0.3125,-0.0625 0.53125,-0.0937 0.25,-0.0312 0.3125,-0.0312 h 1.40625 l 0.84375,-0.15625 q 0.28125,0 0.65625,0.125 0.40625,0.0937 0.71875,0.28125 0.34375,0.1875 0.5625,0.4375 0.25,0.21875 0.25,0.4375 0,0.25 -0.0625,0.75 -0.0625,0.46875 -0.28125,0.71875 -0.5,0.53125 -1.0625,0.75 -0.53125,0.21875 -0.78125,0.28125 l -0.53125,0.15625 q -0.21875,0.0937 -0.5,0.0625 -0.25,-0.0625 -0.46875,0.15625 0.0312,0.25 0.125,0.625 0.0937,0.34375 0.21875,0.6875 0.125,0.34375 0.21875,0.625 0.0937,0.25 0.0937,0.28125 0.0312,0.3125 0.15625,0.5625 0.15625,0.25 0.3125,0.5 0.15625,0.25 0.3125,0.5 0.15625,0.25 0.25,0.53125 l 0.375,2 q 0.0625,0.4375 0.3125,0.84375 0.25,0.375 0.53125,0.75 0.28125,0.34375 0.5625,0.75 0.28125,0.375 0.375,0.8125 0,0.0312 0,0.28125 0.0312,0.25 0.0312,0.53125 0.0312,0.28125 0.0625,0.53125 0.0312,0.25 0.0625,0.28125 0,0.0312 0.1875,0.3125 0.1875,0.28125 0.25,0.3125 0.0312,0.0625 0.15625,0.34375 0.125,0.28125 0.21875,0.375 l 0.46875,0.96875 q 0.0625,0.21875 0.21875,0.5625 0.15625,0.3125 0.28125,0.3125 0.21875,0.34375 0.46875,0.5 0.28125,0.125 0.5,0.125 0.15625,0 0.4375,-0.125 0.28125,-0.15625 0.4375,-0.5 0.0937,-0.125 0.21875,-0.25 0.25,-0.25 0.375,-0.34375 l 0.0625,-0.1875 q 0.0312,-0.0625 0.0625,-0.125 0.0312,-0.0625 0.0312,-0.125 0.375,-0.9375 0.71875,-1.90625 0.34375,-0.96875 0.6875,-2.03125 0,-0.0937 0.0625,-0.40625 0.0625,-0.34375 0.21875,-0.46875 0,-0.0312 0,-0.1875 0.0312,-0.15625 0.0312,-0.34375 0.0312,-0.21875 0.0625,-0.375 0.0312,-0.1875 0.0625,-0.21875 l 0.46875,-1.3125 q 0.0312,-0.0312 0.0625,-0.1875 0.0312,-0.15625 0.0625,-0.3125 0.0312,-0.1875 0.0312,-0.3125 0.0312,-0.15625 0.0312,-0.21875 0.0937,-0.3125 0.28125,-0.625 0.21875,-0.3125 0.40625,-0.59375 0.1875,-0.28125 0.34375,-0.5625 0.15625,-0.3125 0.15625,-0.65625 -0.0625,-0.125 -0.1875,-0.34375 -0.0937,-0.25 -0.15625,-0.28125 v -1.3125 q 0,-0.0625 -0.25,-0.34375 -0.21875,-0.28125 -0.34375,-0.34375 -0.125,-0.0625 -0.375,-0.15625 -0.21875,-0.125 -0.5,-0.21875 -0.28125,-0.0937 -0.5625,-0.15625 -0.25,-0.0937 -0.40625,-0.125 -0.3125,0 -0.46875,-0.0937 -0.125,-0.125 -0.15625,-0.125 l -1.03125,-0.75 q -0.15625,-0.4375 -0.15625,-0.71875 0,-0.40625 0.15625,-0.71875 0.15625,-0.34375 0.375,-0.6875 0.40625,-0.21875 0.75,-0.28125 0.375,-0.0937 0.65625,-0.0937 0.28125,-0.0312 0.53125,-0.0625 0.25,-0.0312 0.4375,-0.15625 l 0.75,-0.0937 q 0.0625,0 0.34375,0.0312 0.3125,0 0.65625,0.0312 0.34375,0.0312 0.625,0.0625 0.3125,0 0.375,0.0312 l 1.03125,0.21875 q 0.71875,0 1.28125,-0.21875 0.59375,-0.21875 1.3125,-0.4375 h 0.71875 q 0,-0.0625 0.28125,-0.0937 0.28125,-0.0625 0.40625,-0.0625 0,-0.0625 0.0625,-0.0625 0.0937,0 0.15625,0 0.28125,0 0.75,0.125 0.5,0.125 0.96875,0.34375 0.46875,0.21875 0.8125,0.5 0.34375,0.28125 0.34375,0.59375 0,0.375 -0.21875,0.53125 -0.21875,0.15625 -0.4375,0.40625 l -1.1875,0.96875 q -0.375,0.34375 -0.75,0.53125 -0.375,0.15625 -0.78125,0.25 -0.375,0.0937 -0.8125,0.15625 -0.4375,0.0625 -0.90625,0.1875 -0.53125,0.8125 -0.90625,1.65625 -0.34375,0.84375 -0.75,1.65625 0,0.15625 -0.0625,0.40625 -0.0625,0.21875 -0.125,0.28125 0,0.0312 -0.0312,0.1875 0,0.125 -0.0312,0.3125 -0.0312,0.15625 -0.0625,0.3125 0,0.15625 -0.0312,0.15625 0,0.0625 -0.125,0.21875 -0.0937,0.15625 -0.21875,0.375 -0.125,0.1875 -0.25,0.375 -0.0937,0.15625 -0.0937,0.1875 v 1.625 q -0.0312,0.0312 -0.125,0.21875 -0.0937,0.15625 -0.21875,0.375 -0.0937,0.1875 -0.21875,0.34375 -0.0937,0.15625 -0.15625,0.1875 -0.4375,0.8125 -1.03125,1.75 -0.59375,0.9375 -0.84375,1.9375 v 1.125 q 0,0.0625 -0.125,0.34375 -0.0937,0.25 -0.15625,0.25 -0.34375,0.65625 -0.4375,1.21875 -0.0937,0.5625 -0.375,1.09375 l -0.90625,1.84375 q -0.125,0.625 -0.15625,1.28125 -0.0312,0.65625 -0.0312,1.34375 0,0.65625 -0.0312,1.3125 -0.0312,0.65625 -0.125,1.3125 -0.0625,0.78125 -0.5,1.53125 -0.4375,0.75 -0.78125,1.4375 -0.0625,0.0625 -0.1875,0.15625 -0.0937,0.125 -0.0937,0.15625 -0.125,0.1875 -0.25,0.59375 -0.0625,0.1875 -0.125,0.40625 -0.0312,0.1875 -0.0625,0.59375 -0.0312,0.40625 -0.0625,0.84375 0,0.4375 -0.0312,0.8125 0,0.40625 0,0.5625 -0.3125,0.25 -0.46875,0.71875 -0.125,0.46875 -0.21875,1.03125 -0.0625,0.5625 -0.125,1.09375 -0.0312,0.5625 -0.15625,0.9375 l -0.875,1.125 q -0.0625,0.0625 -0.125,0.40625 -0.0312,0.375 -0.0312,0.46875 -0.0937,0.0937 -0.21875,0.3125 -0.125,0.1875 -0.3125,0.53125 -0.1875,0.34375 -0.4375,0.9375 0,0.0312 -0.0625,0.1875 -0.0625,0.1875 -0.15625,0.375 -0.0937,0.21875 -0.1875,0.40625 -0.0625,0.1875 -0.0937,0.21875 -0.125,0.4375 -0.375,0.5625 -0.21875,0.125 -0.53125,0.40625 -0.1875,0.15625 -0.28125,0.25 -0.0937,0.125 -0.15625,0.21875 -0.0625,0.0937 -0.15625,0.1875 -0.0625,0.125 -0.21875,0.3125 -0.4375,0.5625 -1,0.65625 -0.5625,0.125 -1.1875,0.3125 l -0.625,0.5 q -0.375,0.125 -0.71875,0.125 -0.34375,0.0312 -0.65625,0.0312 -0.59375,0 -1.25,-0.21875 -0.65625,-0.1875 -1.21875,-0.5625 -0.5625,-0.375 -0.9375,-0.90625 -0.375,-0.53125 -0.375,-1.1875 z"
         style="font-family:'IM FELL English';-inkscape-font-specification:'IM FELL English'"
         id="path44781" />
      <path
         d="m 542.45084,247.88811 q -0.3125,0 -0.625,0.15625 -0.28125,0.125 -0.5625,0.34375 -0.28125,0.21875 -0.59375,0.4375 -0.28125,0.21875 -0.59375,0.34375 -0.0625,0.0625 -0.34375,0.15625 -0.25,0.0625 -0.5625,0.125 -0.3125,0.0937 -0.59375,0.15625 -0.25,0.0625 -0.34375,0.125 -0.0312,0 -0.1875,0.125 -0.125,0.0937 -0.28125,0.25 -0.15625,0.125 -0.3125,0.28125 -0.125,0.125 -0.125,0.15625 -0.0625,0 -0.15625,0.0312 -0.0625,0.0312 -0.125,0.0625 -0.0937,0.0312 -0.15625,0.0625 -0.5,0.21875 -1,0.28125 -0.5,0.0312 -0.9375,0.0312 -0.5,0 -0.96875,-0.0312 -0.46875,-0.0625 -0.875,-0.28125 -1.125,-0.4375 -2,-0.625 -0.84375,-0.1875 -1.5,-0.5 -0.625,-0.3125 -1.125,-0.9375 -0.46875,-0.625 -0.84375,-1.9375 0,-0.21875 0.0312,-0.71875 0.0312,-0.5 0.0312,-1.125 0,-0.625 -0.0312,-1.0625 -0.0312,-0.4375 -0.0312,-0.78125 0,-0.0312 -0.0625,-0.21875 -0.0312,-0.1875 -0.0937,-0.40625 -0.0625,-0.25 -0.125,-0.4375 -0.0625,-0.1875 -0.0937,-0.21875 v -0.28125 l 0.4375,-1.5625 q 0,-0.53125 -0.21875,-1 -0.21875,-0.46875 -0.21875,-0.9375 0,-0.5 0.0625,-0.90625 0.0625,-0.4375 0.3125,-0.78125 l -0.21875,-2.375 v -5.84375 q -0.0625,-0.21875 -0.34375,-0.625 -0.25,-0.40625 -0.5625,-0.8125 -0.3125,-0.4375 -0.625,-0.75 -0.28125,-0.34375 -0.40625,-0.40625 -0.34375,-0.1875 -0.75,-0.34375 -0.375,-0.1875 -0.71875,-0.375 -0.34375,-0.21875 -0.59375,-0.5 -0.21875,-0.28125 -0.21875,-0.71875 0,-0.53125 0.15625,-0.8125 0.15625,-0.3125 0.40625,-0.46875 0.25,-0.15625 0.5625,-0.1875 0.34375,-0.0625 0.71875,-0.0625 h 1.25 l 2.53125,0.15625 q 0.71875,0 1.3125,-0.15625 0.59375,-0.15625 1.21875,-0.15625 0.84375,0 1.40625,0.3125 0.59375,0.3125 0.9375,0.84375 0.375,0.5 0.53125,1.15625 0.15625,0.65625 0.15625,1.375 v 0.0937 q -0.28125,0.90625 -0.40625,1.8125 -0.125,0.90625 -0.1875,1.8125 -0.0312,0.875 -0.0625,1.8125 0,0.90625 -0.0937,1.875 l -0.375,2.90625 0.21875,0.875 q 0,0.25 -0.0625,0.375 -0.0312,0.125 -0.0937,0.28125 v 5.5 q 0,0.59375 0.21875,0.9375 0.25,0.34375 0.5625,0.625 0.3125,0.25 0.65625,0.53125 0.34375,0.25 0.5625,0.625 0,0.0312 0.0312,0.3125 0.0625,0.28125 0.125,0.28125 0.15625,0.0937 0.625,0.21875 0.46875,0.125 0.96875,0.25 0.53125,0.125 1,0.21875 0.5,0.0625 0.6875,0.0625 0.90625,0 1.625,-0.0937 0.71875,-0.125 1.21875,-0.4375 0.53125,-0.34375 0.875,-0.875 0.375,-0.5625 0.5625,-1.46875 0,-0.0625 0.0625,-0.15625 0.0937,-0.125 0.15625,-0.15625 0.53125,-0.8125 0.75,-1.71875 0.25,-0.9375 0.375,-1.90625 l -0.46875,-2.0625 q 0,-0.3125 0.125,-0.71875 0.125,-0.40625 0.28125,-0.84375 0.15625,-0.4375 0.28125,-0.875 0.125,-0.4375 0.125,-0.84375 0,-0.625 -0.0937,-1.1875 -0.0625,-0.59375 -0.1875,-1.21875 -0.0625,-0.625 -0.1875,-1.1875 -0.125,-0.59375 -0.125,-1.125 v -2.28125 q -0.1875,-0.71875 -0.71875,-1.21875 -0.53125,-0.5 -1.21875,-0.875 -0.6875,-0.375 -1.4375,-0.65625 -0.75,-0.28125 -1.40625,-0.59375 -0.625,-0.34375 -1.03125,-0.71875 -0.40625,-0.40625 -0.40625,-0.96875 0,-0.125 0,-0.15625 0.0312,-0.0625 0.15625,-0.15625 0.53125,-0.34375 0.90625,-0.625 0.40625,-0.3125 0.75,-0.53125 0.375,-0.21875 0.75,-0.34375 0.375,-0.125 0.875,-0.125 h 0.71875 l 2.5,0.96875 q 0.46875,0.21875 1.15625,0.3125 0.6875,0.0625 1.40625,0.15625 0.75,0.0937 1.46875,0.21875 0.71875,0.0937 1.28125,0.375 0.59375,0.25 0.9375,0.71875 0.375,0.4375 0.375,1.15625 0,0.0625 0,0.3125 0,0.21875 -0.0312,0.28125 0,0.0312 -0.0937,0.21875 -0.0937,0.15625 -0.21875,0.34375 -0.0937,0.1875 -0.1875,0.375 -0.0937,0.15625 -0.0937,0.1875 -0.0625,0.25 -0.21875,0.75 -0.125,0.5 -0.28125,1.0625 -0.125,0.53125 -0.25,0.96875 -0.0937,0.4375 -0.125,0.5625 v 2.4375 l -0.3125,1.25 q 0,0.53125 0.0625,1.09375 0.0625,0.5625 0.125,1.125 0.1875,0.90625 0.1875,2 l -0.0625,0.59375 q -0.0625,0.21875 -0.21875,0.65625 -0.125,0.4375 -0.28125,0.59375 v 1.9375 l 0.21875,3.625 q 0,0.4375 -0.125,0.6875 -0.0937,0.21875 -0.0937,0.5625 0,0.40625 0.25,0.90625 0.28125,0.5 0.71875,0.5 0.34375,0 0.625,-0.0937 0.3125,-0.0937 0.59375,-0.1875 0.28125,-0.125 0.53125,-0.21875 0.28125,-0.0937 0.59375,-0.0937 0.625,0 0.9375,0.4375 0.34375,0.40625 0.34375,0.90625 0,0.78125 -0.65625,1.1875 -0.625,0.375 -1.53125,0.59375 -0.875,0.1875 -1.78125,0.375 -0.90625,0.15625 -1.4375,0.53125 -1.28125,0.0937 -2.125,0.125 -0.84375,0.0625 -1.8125,0.0625 h -0.75 q -0.28125,-0.375 -0.40625,-0.9375 -0.125,-0.59375 -0.21875,-1.15625 -0.0937,-0.5625 -0.21875,-0.96875 -0.125,-0.40625 -0.40625,-0.40625 z"
         style="font-family:'IM FELL English';-inkscape-font-specification:'IM FELL English'"
         id="path44783" />
      <path
         d="m 561.95084,250.85686 q -0.84375,0.21875 -1.65625,0.28125 -0.8125,0.0937 -1.6875,0.0937 l -0.8125,0.0625 q -0.375,0 -0.46875,-0.125 -0.21875,-0.28125 -0.40625,-0.59375 -0.1875,-0.34375 -0.1875,-0.84375 0,-0.34375 0.1875,-0.65625 0.1875,-0.3125 0.40625,-0.4375 0.34375,-0.125 0.625,-0.125 0.28125,-0.0312 0.5625,-0.0312 0.28125,0 0.53125,-0.0312 0.25,-0.0625 0.53125,-0.125 0.71875,-0.28125 1.125,-0.625 0.40625,-0.34375 0.625,-0.71875 0.21875,-0.40625 0.25,-0.8125 0.0625,-0.40625 0.0625,-0.8125 l -0.0937,-1.6875 q -0.0625,-0.0625 -0.15625,-0.25 -0.0937,-0.21875 -0.1875,-0.28125 l -0.15625,-0.5 q 0,-0.3125 0.25,-0.46875 0.25,-0.15625 0.25,-0.59375 l -0.21875,-1.53125 q 0,-0.5 0.0625,-1 0.0625,-0.53125 0.40625,-0.9375 v -2.15625 l -0.25,-0.65625 0.40625,-1.3125 v -0.84375 q 0,-0.78125 -0.125,-1.59375 -0.125,-0.8125 -0.4375,-1.5 -0.28125,-0.71875 -0.8125,-1.3125 -0.5,-0.59375 -1.25,-0.96875 l -1.53125,-0.8125 q -0.25,-0.0625 -0.46875,-0.375 -0.21875,-0.3125 -0.28125,-0.59375 0.0625,-0.15625 0.21875,-0.4375 0.15625,-0.28125 0.34375,-0.53125 0.21875,-0.28125 0.46875,-0.46875 0.28125,-0.21875 0.53125,-0.21875 h 1.5625 q 0.0312,0 0.1875,-0.0937 0.15625,-0.0937 0.3125,-0.1875 0.15625,-0.125 0.3125,-0.21875 0.15625,-0.125 0.21875,-0.15625 0.0312,-0.0312 0.1875,-0.0937 0.0625,-0.0312 0.15625,-0.0625 h 1.40625 q 0.0312,-0.0312 0.125,-0.125 0.125,-0.0937 0.28125,-0.21875 0.15625,-0.125 0.34375,-0.3125 0.0625,-0.0625 0.3125,-0.0625 0.25,0 0.5,0 0.125,0 0.375,0.0625 0.28125,0.0312 0.53125,0.15625 0.28125,0.125 0.46875,0.3125 0.1875,0.15625 0.1875,0.40625 0,0.0312 -0.0312,0.0312 0,0 0,0.0312 l -0.0312,0.0312 q 0,0.0625 -0.125,0.40625 -0.0937,0.34375 -0.125,0.40625 v 0.3125 q 0,0.0625 0.0937,0.21875 0.0937,0.125 0.1875,0.28125 0.0937,0.125 0.15625,0.25 0.0937,0.0937 0.0937,0.125 l 0.65625,1.125 q 0.0625,0.25 0.375,0.3125 0.3125,0.0312 0.53125,0.0312 0.4375,0 0.8125,-0.34375 0.375,-0.375 0.65625,-0.625 l 0.96875,-1.375 0.0625,-0.0625 q 0.0937,-0.0937 0.0937,-0.0937 0.0625,0 0.34375,-0.125 0.28125,-0.125 0.375,-0.1875 0.0312,-0.0312 0.21875,-0.25 0.1875,-0.21875 0.40625,-0.46875 0.21875,-0.25 0.40625,-0.4375 0.1875,-0.21875 0.25,-0.25 0.0312,-0.0312 0.21875,-0.0937 0.21875,-0.0625 0.4375,-0.125 0.25,-0.0625 0.4375,-0.0937 0.21875,-0.0625 0.25,-0.0625 0.40625,-0.15625 0.625,-0.3125 0.21875,-0.15625 0.40625,-0.25 0.21875,-0.125 0.5,-0.1875 0.28125,-0.0625 0.8125,-0.0625 h 0.625 l 1.3125,0.65625 q 0.0312,0 0.1875,0.0312 0.15625,0 0.34375,0.0312 0.1875,0.0312 0.34375,0.0625 0.15625,0 0.21875,0.0312 0.125,0 0.46875,0.0625 0.375,0.0312 0.375,0.0937 0.0625,0 0.34375,0.1875 0.28125,0.15625 0.375,0.3125 0.0312,0 0.15625,-0.0937 0.125,-0.0937 0.21875,-0.0937 0.4375,0.15625 0.84375,0.5625 0.40625,0.40625 0.65625,0.6875 0.15625,0.1875 0.375,0.53125 0.25,0.3125 0.46875,0.625 0.21875,0.3125 0.375,0.5625 0.1875,0.21875 0.1875,0.21875 0,0.0312 0.0312,0.3125 0.0625,0.28125 0.125,0.6875 0.0625,0.375 0.125,0.78125 0.0625,0.40625 0.0937,0.65625 l -0.21875,3.3125 0.4375,2.8125 q 0,0.5 -0.0937,0.75 -0.0937,0.25 -0.21875,0.40625 -0.125,0.15625 -0.21875,0.3125 -0.0937,0.125 -0.0937,0.40625 0,0.4375 0.15625,0.75 0.1875,0.3125 0.25,0.65625 0,0.0625 0.0312,0.34375 0.0312,0.28125 0.0625,0.6875 0.0312,0.375 0.0625,0.78125 0.0312,0.375 0.0312,0.625 v 2.53125 q -0.21875,0.4375 -0.28125,0.6875 -0.0625,0.21875 -0.0625,0.5625 l -0.0625,1.625 0.125,1.34375 q 0,0.0937 0.0312,0.25 0.0625,0.125 0.125,0.1875 0.21875,0.15625 0.78125,0.25 0.59375,0.0937 1.125,0.46875 l 0.25,0.25 q 0.0937,0.4375 0.40625,0.75 0.3125,0.3125 0.3125,0.65625 0,0.34375 -0.0937,0.6875 -0.0625,0.34375 -0.5,0.34375 h -0.125 q -0.625,0.0625 -1.15625,0.0937 -0.53125,0.0625 -1.15625,0.0625 -0.28125,0 -0.625,-0.0312 -0.34375,0 -0.6875,-0.0625 -0.5625,-0.0625 -1.09375,-0.0937 -0.5,-0.0312 -1,-0.0312 -0.6875,0 -1.375,0.0312 -0.65625,0.0312 -1.375,0.0937 -0.15625,-0.0625 -0.40625,-0.0937 -0.21875,-0.0312 -0.46875,-0.0312 -0.4375,0 -0.84375,-0.0625 -0.40625,-0.0312 -0.78125,-0.0312 h -0.8125 q -0.4375,0 -0.59375,-0.40625 -0.15625,-0.40625 -0.15625,-1.09375 0,-0.4375 0.25,-0.84375 0.25,-0.40625 0.875,-0.46875 l 2.0625,-0.28125 q 0.4375,-0.0312 0.5,-0.375 0.0937,-0.375 0.15625,-0.59375 l 0.15625,-0.3125 q 0.21875,-0.375 0.3125,-0.59375 0.0937,-0.25 0.125,-0.4375 0.0625,-0.21875 0.0625,-0.46875 0.0312,-0.25 0.0937,-0.65625 l 0.15625,-0.65625 -0.15625,-0.8125 v -1.78125 l -0.21875,-1.6875 0.375,-1.4375 q -0.0625,-0.53125 -0.0937,-1.03125 0,-0.53125 0,-1.09375 0,-0.53125 0,-1.0625 0.0312,-0.5625 0.0937,-1.09375 0.125,-0.28125 0.125,-0.46875 0.0312,-0.21875 0.0312,-0.65625 -0.0312,-0.0625 -0.28125,-0.34375 -0.25,-0.3125 -0.25,-0.375 -0.0625,-0.0937 -0.15625,-0.40625 -0.0625,-0.34375 -0.15625,-0.71875 -0.0625,-0.375 -0.125,-0.71875 -0.0625,-0.34375 -0.0937,-0.4375 -0.0312,-0.0312 -0.1875,-0.1875 -0.125,-0.15625 -0.28125,-0.3125 -0.15625,-0.15625 -0.3125,-0.28125 -0.125,-0.15625 -0.15625,-0.1875 0,-0.0312 -0.0625,-0.28125 -0.0625,-0.25 -0.15625,-0.25 -0.0625,-0.0937 -0.15625,-0.25 -0.0937,-0.1875 -0.15625,-0.25 -0.0937,-0.0312 -0.375,-0.0937 -0.28125,-0.0937 -0.59375,-0.15625 -0.28125,-0.0625 -0.5625,-0.125 -0.25,-0.0625 -0.34375,-0.0937 h -0.40625 q -1.8125,0 -3.1875,0.5 -1.34375,0.46875 -2.6875,1.65625 -0.125,0.0937 -0.34375,0.3125 -0.21875,0.21875 -0.4375,0.4375 -0.21875,0.21875 -0.40625,0.40625 -0.15625,0.15625 -0.15625,0.1875 -0.0312,0.0312 -0.0625,0.21875 -0.0312,0.1875 -0.0625,0.40625 -0.0312,0.21875 -0.0625,0.40625 0,0.1875 0,0.21875 -0.125,0.4375 -0.25,0.84375 -0.125,0.40625 -0.125,0.9375 0,0.90625 0.0937,1.5625 0.125,0.65625 0.125,1.46875 0,0.5 -0.15625,0.90625 -0.15625,0.375 -0.15625,1.09375 l 0.3125,2.21875 -0.3125,1.5625 v 0.4375 q 0.0625,0.0625 0.125,0.40625 0.0937,0.34375 0.0937,0.40625 v 2 l 0.0937,0.65625 q 0.0312,0.0937 0.1875,0.25 0.15625,0.125 0.34375,0.28125 0.1875,0.125 0.34375,0.25 0.15625,0.0937 0.21875,0.125 0.0625,0.0625 0.25,0.15625 0.21875,0.0625 0.46875,0.15625 0.25,0.0625 0.46875,0.125 0.25,0.0625 0.375,0.0937 0.25,0.125 0.4375,0.15625 0.1875,0.0312 0.34375,0.0625 0.1875,0 0.3125,0.0625 0.15625,0.0625 0.3125,0.28125 0.0937,0.0937 0.21875,0.125 0.125,0 0.21875,0.0625 0.125,0.0312 0.1875,0.125 0.0625,0.0937 0.0625,0.3125 l 0.0625,0.71875 q 0,0.25 -0.0937,0.4375 -0.0937,0.15625 -0.4375,0.375 -0.28125,0.15625 -0.46875,0.375 -0.15625,0.21875 -0.5,0.21875 -0.34375,0 -0.6875,0.125 -0.34375,0.15625 -0.5,0.15625 h -0.375 q -1.3125,-0.21875 -2.75,-0.5 -1.40625,-0.3125 -2.84375,-0.3125 z"
         style="font-family:'IM FELL English';-inkscape-font-specification:'IM FELL English'"
         id="path44785" />
      <path
         d="m 592.20084,246.63811 q 0,-1.875 0.8125,-2.84375 0.8125,-1 2.78125,-1 0.65625,0 1.15625,0.21875 0.5,0.21875 1.03125,0.4375 0.6875,0.34375 1.03125,0.65625 0.375,0.3125 0.53125,0.71875 0.1875,0.375 0.21875,0.875 0.0312,0.5 0.0312,1.21875 v 1.84375 q -0.0625,0.25 -0.375,0.65625 -0.28125,0.375 -0.6875,0.75 -0.375,0.375 -0.78125,0.65625 -0.40625,0.25 -0.6875,0.25 -1.09375,-0.21875 -2.03125,-0.5 -0.90625,-0.28125 -1.59375,-0.75 -0.65625,-0.46875 -1.0625,-1.21875 -0.375,-0.78125 -0.375,-1.96875 z"
         style="font-family:'IM FELL English';-inkscape-font-specification:'IM FELL English'"
         id="path44787" />
      <path
         d="m 615.16959,250.91936 q -2,0 -3.65625,-0.75 -1.65625,-0.78125 -2.71875,-2.5625 l -1.53125,-1.5625 q -0.0312,-0.15625 -0.21875,-0.59375 -0.1875,-0.4375 -0.40625,-0.9375 -0.21875,-0.5 -0.40625,-0.90625 -0.1875,-0.40625 -0.1875,-0.53125 v -1.6875 q -0.0625,-0.375 -0.21875,-0.65625 -0.125,-0.3125 -0.3125,-0.59375 -0.15625,-0.3125 -0.28125,-0.59375 -0.125,-0.3125 -0.125,-0.6875 l 0.28125,-3.84375 q 0,-0.28125 -0.125,-0.59375 -0.0937,-0.3125 -0.0937,-0.65625 0,-0.4375 0.0937,-0.75 0.125,-0.3125 0.25,-0.625 0.125,-0.3125 0.21875,-0.65625 0.125,-0.375 0.125,-0.9375 l 2.1875,-2.8125 -0.21875,-0.46875 q 0.0937,-0.125 0.21875,-0.28125 0.0937,-0.125 0.1875,-0.28125 0.125,-0.15625 0.21875,-0.3125 1.84375,-2.28125 4.28125,-3.625 2.4375,-1.375 5.34375,-2.15625 l 0.5625,-0.15625 q 1.6875,0 3.375,0.3125 1.71875,0.3125 3.25,0.875 0.21875,0.53125 0.6875,0.6875 0.5,0.125 0.9375,0.125 0.28125,0.5 0.53125,0.875 0.25,0.375 0.4375,0.75 0.1875,0.375 0.28125,0.8125 0.125,0.40625 0.125,0.96875 0,1.125 -0.78125,1.90625 -0.78125,0.78125 -2.21875,0.78125 -0.0937,-0.125 -0.25,-0.3125 -0.15625,-0.21875 -0.34375,-0.40625 -0.1875,-0.21875 -0.34375,-0.375 -0.15625,-0.15625 -0.25,-0.1875 -0.0312,-0.0625 -0.3125,-0.0937 -0.28125,-0.0625 -0.3125,-0.0625 -0.75,-0.34375 -1.15625,-1.0625 -0.375,-0.75 -0.8125,-1.46875 -0.40625,-0.75 -1.03125,-1.3125 -0.59375,-0.5625 -1.8125,-0.5625 -0.90625,0 -1.65625,0.3125 -0.75,0.28125 -1.4375,0.78125 -0.6875,0.46875 -1.3125,1.125 -0.59375,0.625 -1.21875,1.3125 -0.125,0.25 -0.40625,0.53125 -0.28125,0.25 -0.375,0.5 v 1.28125 l -0.25,0.375 q -0.5,1 -0.6875,1.90625 -0.1875,0.90625 -0.1875,2.0625 0,0.1875 0,0.46875 0,0.25 0.0312,0.53125 0.0312,0.25 0.0625,0.46875 0.0312,0.1875 0.125,0.1875 0,0.25 0,0.625 0.0312,0.34375 0.0625,0.6875 0.0312,0.34375 0.0625,0.59375 0.0312,0.25 0.0312,0.25 l 0.28125,0.4375 v 0.875 q 0,0.71875 0.0625,1.25 0.0937,0.53125 0.25,1.03125 0.1875,0.46875 0.40625,0.96875 0.25,0.46875 0.53125,1.0625 0,0.0625 0.25,0.4375 0.25,0.34375 0.53125,0.78125 0.28125,0.40625 0.53125,0.78125 0.25,0.34375 0.3125,0.4375 0.25,0.28125 0.65625,0.34375 0.40625,0.0625 0.625,0.25 0.5,0.375 0.8125,0.65625 0.34375,0.25 0.65625,0.4375 0.34375,0.1875 0.71875,0.28125 0.375,0.0937 1,0.0937 1.4375,0 2.9375,-0.59375 1.5,-0.59375 2.625,-1.46875 0.25,-0.1875 0.53125,-0.46875 0.3125,-0.3125 0.625,-0.59375 0.3125,-0.28125 0.625,-0.5 0.34375,-0.21875 0.65625,-0.21875 0.5625,0 0.75,0.21875 0.21875,0.21875 0.21875,0.75 v 0.375 q -0.53125,1.78125 -1.6875,3.0625 -1.125,1.28125 -2.625,2.125 -1.5,0.8125 -3.21875,1.21875 -1.71875,0.40625 -3.375,0.40625 h -0.96875 l -0.5625,-0.46875 z"
         style="font-family:'IM FELL English';-inkscape-font-specification:'IM FELL English'"
         id="path44789" />
      <path
         d="m 632.70084,234.54436 q 0.4375,-1.65625 1.09375,-3.15625 0.65625,-1.53125 1.5,-3.125 l 0.875,-1.03125 0.375,-0.65625 q 0.0937,-0.15625 0.21875,-0.28125 0.0937,-0.125 0.1875,-0.21875 0.0937,-0.125 0.1875,-0.1875 l 1.84375,-1.3125 q 0.15625,-0.1875 0.34375,-0.25 0.1875,-0.0937 0.34375,-0.125 0.1875,-0.0625 0.375,-0.0937 0.1875,-0.0625 0.34375,-0.21875 l 0.59375,-0.59375 0.5,-0.21875 h 0.46875 l 1.6875,-0.65625 q 0.125,-0.0625 0.34375,-0.125 0.25,-0.0625 0.5,-0.125 0.25,-0.0625 0.46875,-0.0937 0.21875,-0.0312 0.3125,-0.0312 h 3.1875 q 0.28125,-0.125 0.46875,-0.125 0.21875,-0.0312 0.34375,-0.0312 0.90625,0 1.8125,0.3125 0.90625,0.28125 1.8125,0.53125 h 1.1875 q 0.0625,0 0.1875,0.125 0.125,0.0937 0.28125,0.25 l 0.34375,0.34375 q 0.78125,0.4375 1.53125,0.875 0.75,0.40625 1.5,0.90625 0.625,0.5 0.96875,1.125 0.375,0.59375 0.84375,1.1875 0.0625,0.0625 0.21875,0.3125 0.1875,0.21875 0.375,0.5 0.1875,0.28125 0.34375,0.5625 0.1875,0.28125 0.25,0.4375 l 0.1875,0.375 1.21875,4 q 0.0937,0.1875 0.15625,0.4375 0.0625,0.25 0.125,0.5 0.0625,0.21875 0.0937,0.4375 0.0312,0.1875 0.0312,0.25 v 1 l -0.1875,0.78125 v 2.25 l -1.625,4.78125 q -0.625,0.84375 -1.3125,1.75 -0.6875,0.875 -1.375,1.65625 0,0.0312 -0.125,0.15625 -0.1875,0.25 -0.4375,0.53125 -0.25,0.28125 -0.5625,0.53125 -0.0625,0.0625 -0.375,0.0937 -0.28125,0.0312 -0.625,0.1875 l -1.875,1.09375 q -0.0625,0 -0.28125,0.0625 -0.1875,0.0312 -0.4375,0.0937 -0.21875,0.0312 -0.4375,0.0625 -0.21875,0.0312 -0.3125,0.0312 -0.5625,0.125 -0.9375,0.34375 -0.34375,0.21875 -1,0.21875 l -3.1875,0.0937 q -0.125,0 -0.53125,0 -0.40625,-0.0312 -0.875,-0.0312 -0.46875,-0.0312 -0.90625,-0.0312 -0.4375,-0.0312 -0.65625,-0.0312 l -0.875,-0.1875 -2,-0.15625 -0.3125,-0.15625 -3.09375,-2.15625 -0.75,-0.34375 q -0.5625,-0.3125 -0.9375,-0.90625 -0.375,-0.625 -0.75,-1.1875 -0.34375,-0.625 -0.71875,-1.125 -0.34375,-0.5 -0.6875,-0.9375 -0.28125,-0.5 -0.625,-0.96875 -0.3125,-0.46875 -0.59375,-0.96875 -0.25,-0.5 -0.4375,-1 -0.1875,-0.53125 -0.1875,-1.15625 l -0.25,-2.4375 z m 6.4375,4.40625 q 0.25,0.28125 0.34375,0.5 0.125,0.21875 0.15625,0.40625 0.0625,0.1875 0.0625,0.40625 0.0312,0.21875 0.0937,0.53125 0.25,1.03125 0.8125,2.15625 0.5625,1.125 1.1875,1.90625 l 1.1875,1.125 q 0.625,0.78125 1.1875,1.5625 0.5625,0.75 1.40625,1.09375 h 1.25 q 0.6875,0 1.46875,-0.15625 0.78125,-0.1875 1.5625,-0.3125 0.4375,0 0.78125,-0.0312 0.34375,-0.0625 0.84375,-0.375 l 0.375,-0.40625 q 1.5,-0.8125 2.59375,-2 l 2.15625,-3.40625 -0.0937,-3.25 q 0.15625,-0.25 0.1875,-0.46875 0.0312,-0.21875 0.0312,-0.65625 0,-0.53125 -0.25,-0.96875 -0.25,-0.4375 -0.25,-1.0625 l 0.28125,-1.1875 q -0.0937,-0.375 -0.1875,-0.875 -0.0937,-0.5 -0.21875,-1 -0.0937,-0.53125 -0.25,-0.96875 -0.125,-0.46875 -0.34375,-0.75 l -1.59375,-1.84375 q -0.0937,-0.0625 -0.25,-0.28125 -0.125,-0.21875 -0.28125,-0.5 -0.125,-0.28125 -0.25,-0.53125 -0.0937,-0.25 -0.0937,-0.375 l -0.9375,-0.65625 q -0.5625,-0.625 -1.125,-1.0625 -0.5625,-0.46875 -1.34375,-0.59375 l -1.53125,-0.1875 q -0.8125,-0.125 -1.4375,-0.28125 -0.625,-0.1875 -1.40625,-0.1875 h -0.21875 l -1.90625,1.125 -3.03125,3.53125 q -0.125,0.34375 -0.21875,0.625 -0.0937,0.28125 -0.0937,0.5625 l -0.15625,0.96875 -0.5,1.28125 v 0.8125 q 0,0.4375 0.125,0.8125 0.15625,0.375 0.15625,0.875 0,0.25 -0.0312,0.40625 -0.0312,0.125 -0.25,0.28125 z"
         style="font-family:'IM FELL English';-inkscape-font-specification:'IM FELL English'"
         id="path44791" />
      <path
         d="m 666.76334,249.73186 q 0,-0.4375 0.0312,-0.59375 0.0312,-0.1875 0.21875,-0.28125 0.15625,-0.0625 0.4375,-0.0625 0.3125,0 0.59375,0 0.15625,0 0.375,-0.0937 0.21875,-0.125 0.28125,-0.15625 0.0625,-0.0625 0.1875,-0.125 0.15625,-0.0937 0.34375,-0.15625 0.6875,-0.125 0.96875,-0.125 0.28125,-0.0312 0.4375,-0.46875 0.0625,-0.84375 0.125,-1.75 0.0937,-0.9375 0.0937,-1.75 0,-1.03125 -0.0625,-1.96875 -0.0625,-0.96875 -0.15625,-1.84375 l 0.125,-0.59375 v -2.1875 q 0,-0.75 0.0625,-1.46875 0.0937,-0.75 0.46875,-1.46875 l -0.21875,-4.65625 q -0.0312,-0.0625 -0.0625,-0.21875 -0.0312,-0.1875 -0.0625,-0.375 -0.0312,-0.1875 -0.0625,-0.34375 -0.0312,-0.15625 -0.0312,-0.1875 -0.15625,-0.15625 -0.21875,-0.15625 0,-0.0625 -0.15625,-0.15625 -0.125,-0.0937 -0.3125,-0.1875 -0.15625,-0.125 -0.3125,-0.1875 -0.15625,-0.0937 -0.1875,-0.125 -0.0312,0 -0.15625,-0.0937 -0.0937,-0.0937 -0.21875,-0.1875 -0.125,-0.125 -0.25,-0.21875 -0.0937,-0.125 -0.125,-0.15625 -0.34375,-0.0937 -0.625,-0.125 -0.28125,-0.0312 -0.53125,-0.0625 -0.21875,-0.0625 -0.4375,-0.1875 -0.21875,-0.125 -0.40625,-0.4375 0.0625,-0.0625 0.0312,-0.40625 0,-0.375 0.25,-0.71875 0.28125,-0.21875 0.59375,-0.28125 0.3125,-0.0625 0.625,-0.15625 0.28125,-0.0625 0.53125,-0.125 0.28125,-0.0937 0.5625,-0.3125 0.0312,0 0.1875,-0.0937 0.15625,-0.0937 0.3125,-0.21875 0.15625,-0.125 0.28125,-0.21875 0.15625,-0.0937 0.1875,-0.0937 l 1.5625,-0.65625 q 0.0312,-0.0312 0.15625,-0.15625 0.15625,-0.15625 0.3125,-0.28125 0.15625,-0.15625 0.28125,-0.28125 0.125,-0.125 0.1875,-0.15625 h 0.84375 q 0.625,0 0.96875,0.0625 0.375,0.0625 0.53125,0.21875 0.1875,0.15625 0.21875,0.46875 0.0625,0.3125 0.0625,0.8125 v 0.59375 q 0.0312,0.28125 0.0625,0.625 0.0625,0.34375 0.1875,0.65625 0.125,0.28125 0.34375,0.5 0.25,0.21875 0.625,0.21875 0.0312,-0.0625 0.1875,-0.1875 0.15625,-0.15625 0.34375,-0.3125 0.1875,-0.1875 0.34375,-0.3125 0.15625,-0.125 0.1875,-0.15625 l 1.1875,-0.375 q 0.0625,0 0.15625,-0.0312 0.125,-0.0625 0.1875,-0.125 0.0625,-0.0312 0.40625,-0.3125 0.34375,-0.28125 0.75,-0.59375 0.40625,-0.3125 0.78125,-0.5625 0.375,-0.28125 0.53125,-0.3125 0.0312,-0.0312 0.21875,-0.125 0.21875,-0.0937 0.5,-0.1875 0.28125,-0.125 0.53125,-0.21875 0.25,-0.0937 0.375,-0.125 h 0.5 q 0.46875,-0.125 0.90625,-0.46875 0.46875,-0.34375 1.03125,-0.34375 h 0.375 l 0.875,0.4375 q 0.0312,0.0312 0.21875,0.0625 0.1875,0.0312 0.40625,0.0625 0.25,0 0.46875,0.0312 0.21875,0 0.3125,0 0.90625,0.28125 1.4375,0.75 0.5625,0.4375 1,1.25 0.25,0.34375 0.375,0.71875 0.15625,0.375 0.3125,0.6875 0.15625,0.3125 0.40625,0.53125 0.28125,0.21875 0.78125,0.21875 0.0937,0 0.21875,0 0.15625,-0.0312 0.3125,-0.15625 l 2,-2 1.03125,-0.46875 1.09375,-1.3125 1.25,-0.375 q 1,-0.28125 1.9375,-0.4375 0.9375,-0.15625 1.84375,-0.15625 h 0.6875 q 0.5,0 0.90625,0.0937 0.4375,0.0625 1,0.34375 0.0312,0.0312 0.3125,0.28125 0.28125,0.25 0.34375,0.25 0,0.0312 0.15625,0.0937 0.1875,0.0625 0.375,0.15625 0.1875,0.0937 0.34375,0.15625 0.1875,0.0625 0.25,0.0937 0.0625,0 0.125,0.0625 0.0937,0.0312 0.0937,0.0937 0.0312,0.0312 0.0937,0.21875 0.0937,0.15625 0.1875,0.375 0.125,0.1875 0.21875,0.40625 0.0937,0.1875 0.15625,0.28125 0.1875,0.71875 0.59375,1.5 0.4375,0.75 0.53125,1.46875 v 1.15625 l 0.28125,0.6875 v 0.8125 q 0,1.34375 -0.125,2.75 -0.0937,1.375 -0.21875,2.71875 l 0.21875,2.28125 v 0.40625 l -0.15625,0.5625 v 1.78125 q -0.0312,0.15625 -0.0625,0.65625 -0.0312,0.46875 -0.0625,1 0,0.5 -0.0312,0.9375 0,0.4375 0,0.53125 l -0.0625,0.71875 q 0,0.34375 0.0312,0.9375 0.0625,0.59375 0.1875,0.84375 0.0625,0.125 0.25,0.40625 0.1875,0.28125 1.03125,0.71875 0.5,0.25 0.78125,0.46875 0.3125,0.1875 0.5,0.375 0.21875,0.15625 0.34375,0.28125 0.15625,0.0937 0.34375,0.1875 0.3125,0.1875 0.3125,0.6875 0,0.65625 -0.28125,0.96875 -0.125,0.25 -0.21875,0.3125 -0.0625,0.0312 -0.15625,0.0312 h -0.3125 q -0.0625,0 -0.125,0.0312 -0.0625,0 -0.1875,0 l -3.375,-0.40625 -0.90625,0.0312 h -3.125 q -0.15625,0 -0.53125,0.1875 -0.375,0.15625 -0.5,0.15625 l -1.40625,-0.34375 h -0.59375 q -0.34375,0 -0.375,-0.15625 l -0.0625,-1.03125 q 0,-0.5625 0.375,-0.78125 0.375,-0.25 0.6875,-0.625 0.4375,-0.5625 0.84375,-1 0.4375,-0.4375 1.0625,-0.71875 l 0.59375,-0.8125 -0.4375,-2.8125 0.5,-2 -0.125,-1.71875 q -0.0312,-0.15625 -0.0312,-0.25 0,-0.125 0,-0.25 0,-0.15625 0,-0.25 0.0312,-0.0937 0.15625,-0.25 -0.34375,-1.90625 -0.34375,-3.9375 v -1.1875 q 0.25,-0.34375 0.28125,-0.53125 0.0625,-0.1875 0.0625,-0.4375 v -0.4375 l -0.5625,-3.03125 q -0.0312,0 -0.0937,-0.0312 -0.0625,-0.0625 -0.0625,-0.125 -0.0625,0 -0.21875,-0.0625 -0.125,-0.0625 -0.28125,-0.15625 -0.125,-0.0937 -0.25,-0.15625 -0.125,-0.0937 -0.15625,-0.125 l -0.8125,-0.625 q -0.25,-0.34375 -0.6875,-0.40625 -0.4375,-0.0937 -0.9375,-0.0937 h -0.75 q -0.5625,0 -0.9375,0.0312 -0.34375,0 -0.96875,0.125 -0.59375,0.28125 -0.84375,0.59375 -0.25,0.15625 -0.5,0.34375 -0.25,0.15625 -0.5,0.3125 -0.0312,0.0625 -0.34375,0.15625 -0.3125,0.0625 -0.40625,0.0625 -0.71875,0.25 -1.09375,0.6875 -0.34375,0.4375 -0.6875,1.09375 -0.0312,0.0625 -0.15625,0.25 -0.125,0.1875 -0.28125,0.4375 -0.15625,0.21875 -0.28125,0.4375 -0.125,0.1875 -0.15625,0.28125 v 0.59375 q 0.0312,0.0937 0.0625,0.625 0.0312,0.5 0.0625,1.125 0.0312,0.59375 0.0312,1.15625 0.0312,0.53125 0.0312,0.65625 v 0.71875 l 0.53125,1.03125 v 0.3125 q 0,0.5 -0.125,1 -0.0937,0.5 -0.0937,1 l 0.21875,1.46875 q 0,0.78125 -0.125,1.5 -0.125,0.71875 -0.21875,1.5625 0,0.0625 -0.0312,0.4375 0,0.34375 0,0.59375 0,0.0937 0.0312,0.28125 0.0625,0.15625 0.0937,0.375 0.0312,0.1875 0.0625,0.375 0.0625,0.15625 0.0625,0.21875 0.0625,0.21875 0.125,0.3125 0.0625,0.0625 0.0937,0.0937 0.0625,0.0312 0.125,0.0937 0.0625,0.0312 0.15625,0.21875 0,0 0.0937,0.125 0.0937,0.125 0.1875,0.28125 0.125,0.125 0.21875,0.25 0.125,0.125 0.15625,0.1875 0.125,0.0625 0.53125,0.15625 0.4375,0.0937 0.90625,0.21875 0.5,0.125 0.96875,0.3125 0.46875,0.15625 0.65625,0.34375 0.25,0.125 0.28125,0.25 0.0625,0.0937 0.0625,0.25 v 0.625 q 0,0.15625 -0.0625,0.34375 -0.0312,0.15625 -0.28125,0.375 -0.40625,0.21875 -1.1875,0.34375 -0.78125,0.0937 -1.28125,0.0937 -0.4375,0 -0.78125,-0.0312 -0.3125,-0.0312 -0.5625,-0.0312 h -1 l -0.90625,-0.15625 q -0.21875,-0.0625 -0.4375,-0.0937 -0.1875,-0.0312 -0.53125,-0.0312 -0.34375,0 -0.71875,0 -0.34375,0 -0.6875,0.0625 l -1.03125,0.0625 q -0.34375,0.0937 -0.5625,0.15625 -0.21875,0.0312 -0.4375,0.0625 -0.1875,0.0625 -0.40625,0.0625 -0.21875,0.0312 -0.53125,0.0312 -0.15625,0 -0.53125,-0.0625 -0.375,-0.0625 -0.78125,-0.15625 -0.375,-0.0937 -0.71875,-0.25 -0.3125,-0.15625 -0.40625,-0.34375 -0.21875,-0.21875 -0.21875,-0.46875 0,-0.0937 0.0312,-0.15625 0.0312,-0.0937 0.0312,-0.28125 0.0312,-0.5 0.1875,-0.625 0.1875,-0.15625 0.40625,-0.3125 0.21875,-0.1875 0.78125,-0.21875 0.5625,-0.0312 1.125,-0.15625 0.59375,-0.125 1.03125,-0.46875 0.46875,-0.34375 0.46875,-1.1875 l 0.0312,-0.8125 -0.3125,-1.25 0.3125,-3.71875 -0.375,-3.75 q 0,-0.6875 0.25,-1.25 0.25,-0.5625 0.25,-1.1875 l -0.65625,-1.0625 v -0.375 l 0.21875,-0.78125 v -1.5625 q 0,-1.4375 -0.3125,-2.3125 -0.28125,-0.875 -0.90625,-1.34375 -0.59375,-0.46875 -1.59375,-0.625 -0.96875,-0.15625 -2.3125,-0.15625 -0.25,0 -0.59375,0.0312 -0.3125,0.0312 -0.4375,0.0312 l -2.375,0.96875 q -0.4375,0.125 -0.75,0.21875 -0.28125,0.0937 -0.625,0.4375 -0.1875,0.15625 -0.40625,0.46875 -0.21875,0.3125 -0.40625,0.71875 -0.1875,0.375 -0.34375,0.78125 -0.125,0.375 -0.125,0.625 0,0.15625 0.0312,0.28125 0.0625,0.0937 0.125,0.3125 v 2.125 l 0.375,1.125 v 2.3125 q 0,0.0625 0.0625,0.3125 0.0937,0.25 0.15625,0.28125 v 0.5625 q -0.0625,0.0312 -0.15625,0.375 -0.0625,0.34375 -0.0625,0.4375 v 1.78125 l -0.375,2.8125 q 0,0.0312 -0.0312,0.3125 0,0.28125 -0.0312,0.625 -0.0312,0.34375 -0.0625,0.65625 0,0.3125 -0.0312,0.4375 0,0.4375 0.0937,0.75 0.125,0.28125 0.3125,0.53125 0.21875,0.21875 0.5,0.40625 0.28125,0.1875 0.59375,0.4375 0.15625,0.125 0.375,0.21875 0.21875,0.0937 0.5,0.0937 l 0.71875,0.4375 q 0.3125,0 0.5625,0.0625 0.25,0.0625 0.40625,0.25 0.15625,0.21875 0.1875,0.34375 0.0312,0.125 0.0625,0.3125 v 0.4375 q 0,0.25 -0.0312,0.5 -0.0312,0.21875 -0.21875,0.375 -0.4375,0.40625 -1.1875,0.46875 -0.75,0.0625 -1.3125,0.0625 l -2.09375,-0.0937 h -3.6875 l -3.25,0.1875 q -0.0625,0 -0.1875,-0.0312 -0.0937,0 -0.1875,-0.0625 -0.0625,-0.0625 -0.375,-0.0625 -0.3125,-0.0312 -0.4375,-0.0937 -0.21875,-0.15625 -0.28125,-0.5 -0.0312,-0.34375 -0.0312,-0.6875 z"
         style="font-family:'IM FELL English';-inkscape-font-specification:'IM FELL English'"
         id="path44793" />
    </g>
  </g>
</svg>
